<mxfile host="app.diagrams.net" modified="2023-12-29T05:46:16.386Z" agent="Mozilla/5.0 (Windows NT 10.0; Win64; x64) AppleWebKit/537.36 (KHTML, like Gecko) Chrome/120.0.0.0 Safari/537.36" etag="lgEu9rGoy8Jl08Uox3Zf" version="22.1.15" type="github" pages="6">
  <diagram name="正向索引" id="1JxngPZYMQnK7lvO8EIG">
    <mxGraphModel dx="1050" dy="557" grid="0" gridSize="10" guides="1" tooltips="1" connect="1" arrows="1" fold="1" page="1" pageScale="1" pageWidth="1920" pageHeight="1200" math="0" shadow="0">
      <root>
        <mxCell id="0" />
        <mxCell id="1" parent="0" />
        <mxCell id="zqDXyUWVeApDbXY7VMIR-1" value="" style="childLayout=tableLayout;recursiveResize=0;shadow=0;fillColor=none;fontSize=17;" parent="1" vertex="1">
          <mxGeometry x="103" y="107" width="438" height="281" as="geometry" />
        </mxCell>
        <mxCell id="zqDXyUWVeApDbXY7VMIR-2" value="" style="shape=tableRow;horizontal=0;startSize=0;swimlaneHead=0;swimlaneBody=0;top=0;left=0;bottom=0;right=0;dropTarget=0;collapsible=0;recursiveResize=0;expand=0;fontStyle=0;fillColor=none;strokeColor=inherit;fontSize=17;" parent="zqDXyUWVeApDbXY7VMIR-1" vertex="1">
          <mxGeometry width="438" height="47" as="geometry" />
        </mxCell>
        <mxCell id="zqDXyUWVeApDbXY7VMIR-3" value="id" style="connectable=0;recursiveResize=0;strokeColor=inherit;fillColor=#FF66B3;align=center;whiteSpace=wrap;html=1;fontStyle=1;fontSize=17;" parent="zqDXyUWVeApDbXY7VMIR-2" vertex="1">
          <mxGeometry width="146" height="47" as="geometry">
            <mxRectangle width="146" height="47" as="alternateBounds" />
          </mxGeometry>
        </mxCell>
        <mxCell id="zqDXyUWVeApDbXY7VMIR-4" value="title" style="connectable=0;recursiveResize=0;strokeColor=inherit;fillColor=#FF66B3;align=center;whiteSpace=wrap;html=1;fontStyle=1;fontSize=17;" parent="zqDXyUWVeApDbXY7VMIR-2" vertex="1">
          <mxGeometry x="146" width="146" height="47" as="geometry">
            <mxRectangle width="146" height="47" as="alternateBounds" />
          </mxGeometry>
        </mxCell>
        <mxCell id="zqDXyUWVeApDbXY7VMIR-5" value="price" style="connectable=0;recursiveResize=0;strokeColor=inherit;fillColor=#FF66B3;align=center;whiteSpace=wrap;html=1;fontStyle=1;fontSize=17;" parent="zqDXyUWVeApDbXY7VMIR-2" vertex="1">
          <mxGeometry x="292" width="146" height="47" as="geometry">
            <mxRectangle width="146" height="47" as="alternateBounds" />
          </mxGeometry>
        </mxCell>
        <mxCell id="zqDXyUWVeApDbXY7VMIR-6" style="shape=tableRow;horizontal=0;startSize=0;swimlaneHead=0;swimlaneBody=0;top=0;left=0;bottom=0;right=0;dropTarget=0;collapsible=0;recursiveResize=0;expand=0;fontStyle=0;fillColor=none;strokeColor=inherit;fontSize=17;" parent="zqDXyUWVeApDbXY7VMIR-1" vertex="1">
          <mxGeometry y="47" width="438" height="46" as="geometry" />
        </mxCell>
        <mxCell id="zqDXyUWVeApDbXY7VMIR-7" value="1" style="connectable=0;recursiveResize=0;strokeColor=inherit;fillColor=none;align=center;whiteSpace=wrap;html=1;fontSize=17;" parent="zqDXyUWVeApDbXY7VMIR-6" vertex="1">
          <mxGeometry width="146" height="46" as="geometry">
            <mxRectangle width="146" height="46" as="alternateBounds" />
          </mxGeometry>
        </mxCell>
        <mxCell id="zqDXyUWVeApDbXY7VMIR-8" value="小米手机" style="connectable=0;recursiveResize=0;strokeColor=inherit;fillColor=none;align=center;whiteSpace=wrap;html=1;fontSize=17;" parent="zqDXyUWVeApDbXY7VMIR-6" vertex="1">
          <mxGeometry x="146" width="146" height="46" as="geometry">
            <mxRectangle width="146" height="46" as="alternateBounds" />
          </mxGeometry>
        </mxCell>
        <mxCell id="zqDXyUWVeApDbXY7VMIR-9" value="3499" style="connectable=0;recursiveResize=0;strokeColor=inherit;fillColor=none;align=center;whiteSpace=wrap;html=1;fontSize=17;" parent="zqDXyUWVeApDbXY7VMIR-6" vertex="1">
          <mxGeometry x="292" width="146" height="46" as="geometry">
            <mxRectangle width="146" height="46" as="alternateBounds" />
          </mxGeometry>
        </mxCell>
        <mxCell id="zqDXyUWVeApDbXY7VMIR-10" style="shape=tableRow;horizontal=0;startSize=0;swimlaneHead=0;swimlaneBody=0;top=0;left=0;bottom=0;right=0;dropTarget=0;collapsible=0;recursiveResize=0;expand=0;fontStyle=0;fillColor=none;strokeColor=inherit;fontSize=17;" parent="zqDXyUWVeApDbXY7VMIR-1" vertex="1">
          <mxGeometry y="93" width="438" height="47" as="geometry" />
        </mxCell>
        <mxCell id="zqDXyUWVeApDbXY7VMIR-11" value="2" style="connectable=0;recursiveResize=0;strokeColor=inherit;fillColor=none;align=center;whiteSpace=wrap;html=1;fontSize=17;" parent="zqDXyUWVeApDbXY7VMIR-10" vertex="1">
          <mxGeometry width="146" height="47" as="geometry">
            <mxRectangle width="146" height="47" as="alternateBounds" />
          </mxGeometry>
        </mxCell>
        <mxCell id="zqDXyUWVeApDbXY7VMIR-12" value="华为手机" style="connectable=0;recursiveResize=0;strokeColor=inherit;fillColor=none;align=center;whiteSpace=wrap;html=1;fontSize=17;" parent="zqDXyUWVeApDbXY7VMIR-10" vertex="1">
          <mxGeometry x="146" width="146" height="47" as="geometry">
            <mxRectangle width="146" height="47" as="alternateBounds" />
          </mxGeometry>
        </mxCell>
        <mxCell id="zqDXyUWVeApDbXY7VMIR-13" value="4999" style="connectable=0;recursiveResize=0;strokeColor=inherit;fillColor=none;align=center;whiteSpace=wrap;html=1;fontSize=17;" parent="zqDXyUWVeApDbXY7VMIR-10" vertex="1">
          <mxGeometry x="292" width="146" height="47" as="geometry">
            <mxRectangle width="146" height="47" as="alternateBounds" />
          </mxGeometry>
        </mxCell>
        <mxCell id="zqDXyUWVeApDbXY7VMIR-14" style="shape=tableRow;horizontal=0;startSize=0;swimlaneHead=0;swimlaneBody=0;top=0;left=0;bottom=0;right=0;dropTarget=0;collapsible=0;recursiveResize=0;expand=0;fontStyle=0;fillColor=none;strokeColor=inherit;fontSize=17;" parent="zqDXyUWVeApDbXY7VMIR-1" vertex="1">
          <mxGeometry y="140" width="438" height="47" as="geometry" />
        </mxCell>
        <mxCell id="zqDXyUWVeApDbXY7VMIR-15" value="3" style="connectable=0;recursiveResize=0;strokeColor=inherit;fillColor=none;align=center;whiteSpace=wrap;html=1;fontSize=17;" parent="zqDXyUWVeApDbXY7VMIR-14" vertex="1">
          <mxGeometry width="146" height="47" as="geometry">
            <mxRectangle width="146" height="47" as="alternateBounds" />
          </mxGeometry>
        </mxCell>
        <mxCell id="zqDXyUWVeApDbXY7VMIR-16" value="华为小米充电器" style="connectable=0;recursiveResize=0;strokeColor=inherit;fillColor=none;align=center;whiteSpace=wrap;html=1;fontSize=17;" parent="zqDXyUWVeApDbXY7VMIR-14" vertex="1">
          <mxGeometry x="146" width="146" height="47" as="geometry">
            <mxRectangle width="146" height="47" as="alternateBounds" />
          </mxGeometry>
        </mxCell>
        <mxCell id="zqDXyUWVeApDbXY7VMIR-17" value="49" style="connectable=0;recursiveResize=0;strokeColor=inherit;fillColor=none;align=center;whiteSpace=wrap;html=1;fontSize=17;" parent="zqDXyUWVeApDbXY7VMIR-14" vertex="1">
          <mxGeometry x="292" width="146" height="47" as="geometry">
            <mxRectangle width="146" height="47" as="alternateBounds" />
          </mxGeometry>
        </mxCell>
        <mxCell id="zqDXyUWVeApDbXY7VMIR-18" style="shape=tableRow;horizontal=0;startSize=0;swimlaneHead=0;swimlaneBody=0;top=0;left=0;bottom=0;right=0;dropTarget=0;collapsible=0;recursiveResize=0;expand=0;fontStyle=0;fillColor=none;strokeColor=inherit;fontSize=17;" parent="zqDXyUWVeApDbXY7VMIR-1" vertex="1">
          <mxGeometry y="187" width="438" height="47" as="geometry" />
        </mxCell>
        <mxCell id="zqDXyUWVeApDbXY7VMIR-19" value="4" style="connectable=0;recursiveResize=0;strokeColor=inherit;fillColor=none;align=center;whiteSpace=wrap;html=1;fontSize=17;" parent="zqDXyUWVeApDbXY7VMIR-18" vertex="1">
          <mxGeometry width="146" height="47" as="geometry">
            <mxRectangle width="146" height="47" as="alternateBounds" />
          </mxGeometry>
        </mxCell>
        <mxCell id="zqDXyUWVeApDbXY7VMIR-20" value="小米手环" style="connectable=0;recursiveResize=0;strokeColor=inherit;fillColor=none;align=center;whiteSpace=wrap;html=1;fontSize=17;" parent="zqDXyUWVeApDbXY7VMIR-18" vertex="1">
          <mxGeometry x="146" width="146" height="47" as="geometry">
            <mxRectangle width="146" height="47" as="alternateBounds" />
          </mxGeometry>
        </mxCell>
        <mxCell id="zqDXyUWVeApDbXY7VMIR-21" value="49" style="connectable=0;recursiveResize=0;strokeColor=inherit;fillColor=none;align=center;whiteSpace=wrap;html=1;fontSize=17;" parent="zqDXyUWVeApDbXY7VMIR-18" vertex="1">
          <mxGeometry x="292" width="146" height="47" as="geometry">
            <mxRectangle width="146" height="47" as="alternateBounds" />
          </mxGeometry>
        </mxCell>
        <mxCell id="zqDXyUWVeApDbXY7VMIR-22" style="shape=tableRow;horizontal=0;startSize=0;swimlaneHead=0;swimlaneBody=0;top=0;left=0;bottom=0;right=0;dropTarget=0;collapsible=0;recursiveResize=0;expand=0;fontStyle=0;fillColor=none;strokeColor=inherit;fontSize=17;" parent="zqDXyUWVeApDbXY7VMIR-1" vertex="1">
          <mxGeometry y="234" width="438" height="47" as="geometry" />
        </mxCell>
        <mxCell id="zqDXyUWVeApDbXY7VMIR-23" value="..." style="connectable=0;recursiveResize=0;strokeColor=inherit;fillColor=none;align=center;whiteSpace=wrap;html=1;fontSize=17;" parent="zqDXyUWVeApDbXY7VMIR-22" vertex="1">
          <mxGeometry width="146" height="47" as="geometry">
            <mxRectangle width="146" height="47" as="alternateBounds" />
          </mxGeometry>
        </mxCell>
        <mxCell id="zqDXyUWVeApDbXY7VMIR-24" value="..." style="connectable=0;recursiveResize=0;strokeColor=inherit;fillColor=none;align=center;whiteSpace=wrap;html=1;fontSize=17;" parent="zqDXyUWVeApDbXY7VMIR-22" vertex="1">
          <mxGeometry x="146" width="146" height="47" as="geometry">
            <mxRectangle width="146" height="47" as="alternateBounds" />
          </mxGeometry>
        </mxCell>
        <mxCell id="zqDXyUWVeApDbXY7VMIR-25" value="..." style="connectable=0;recursiveResize=0;strokeColor=inherit;fillColor=none;align=center;whiteSpace=wrap;html=1;fontSize=17;" parent="zqDXyUWVeApDbXY7VMIR-22" vertex="1">
          <mxGeometry x="292" width="146" height="47" as="geometry">
            <mxRectangle width="146" height="47" as="alternateBounds" />
          </mxGeometry>
        </mxCell>
        <mxCell id="zqDXyUWVeApDbXY7VMIR-28" style="edgeStyle=orthogonalEdgeStyle;rounded=0;orthogonalLoop=1;jettySize=auto;html=1;" parent="1" target="zqDXyUWVeApDbXY7VMIR-27" edge="1">
          <mxGeometry relative="1" as="geometry">
            <mxPoint x="779" y="90" as="sourcePoint" />
          </mxGeometry>
        </mxCell>
        <mxCell id="zqDXyUWVeApDbXY7VMIR-33" style="edgeStyle=orthogonalEdgeStyle;rounded=0;orthogonalLoop=1;jettySize=auto;html=1;entryX=0;entryY=0.5;entryDx=0;entryDy=0;" parent="1" source="zqDXyUWVeApDbXY7VMIR-27" target="zqDXyUWVeApDbXY7VMIR-31" edge="1">
          <mxGeometry relative="1" as="geometry" />
        </mxCell>
        <mxCell id="zqDXyUWVeApDbXY7VMIR-34" style="edgeStyle=orthogonalEdgeStyle;rounded=0;orthogonalLoop=1;jettySize=auto;html=1;exitX=0.5;exitY=1;exitDx=0;exitDy=0;entryX=0.5;entryY=0;entryDx=0;entryDy=0;" parent="1" source="zqDXyUWVeApDbXY7VMIR-27" target="zqDXyUWVeApDbXY7VMIR-30" edge="1">
          <mxGeometry relative="1" as="geometry" />
        </mxCell>
        <mxCell id="zqDXyUWVeApDbXY7VMIR-27" value="逐条数据扫描&lt;br&gt;判断是否包含&#39;手机&#39;" style="rhombus;whiteSpace=wrap;html=1;" parent="1" vertex="1">
          <mxGeometry x="673" y="172" width="262" height="96" as="geometry" />
        </mxCell>
        <mxCell id="zqDXyUWVeApDbXY7VMIR-30" value="存入结果集" style="whiteSpace=wrap;html=1;" parent="1" vertex="1">
          <mxGeometry x="744" y="335" width="120" height="60" as="geometry" />
        </mxCell>
        <mxCell id="zqDXyUWVeApDbXY7VMIR-31" value="丢弃" style="whiteSpace=wrap;html=1;" parent="1" vertex="1">
          <mxGeometry x="1008" y="190" width="120" height="60" as="geometry" />
        </mxCell>
        <mxCell id="zqDXyUWVeApDbXY7VMIR-35" value="是" style="text;html=1;align=center;verticalAlign=middle;resizable=0;points=[];autosize=1;strokeColor=none;fillColor=none;" parent="1" vertex="1">
          <mxGeometry x="805" y="291" width="30" height="26" as="geometry" />
        </mxCell>
        <mxCell id="zqDXyUWVeApDbXY7VMIR-36" value="否" style="text;html=1;align=center;verticalAlign=middle;resizable=0;points=[];autosize=1;strokeColor=none;fillColor=none;" parent="1" vertex="1">
          <mxGeometry x="953" y="193" width="30" height="26" as="geometry" />
        </mxCell>
        <mxCell id="zqDXyUWVeApDbXY7VMIR-41" value="" style="shape=trapezoid;perimeter=trapezoidPerimeter;whiteSpace=wrap;html=1;fixedSize=1;" parent="1" vertex="1">
          <mxGeometry x="689" y="425" width="230" height="106" as="geometry" />
        </mxCell>
        <mxCell id="zqDXyUWVeApDbXY7VMIR-42" value="" style="childLayout=tableLayout;recursiveResize=0;shadow=0;fillColor=none;" parent="1" vertex="1">
          <mxGeometry x="722" y="457" width="166" height="48" as="geometry" />
        </mxCell>
        <mxCell id="zqDXyUWVeApDbXY7VMIR-43" value="" style="shape=tableRow;horizontal=0;startSize=0;swimlaneHead=0;swimlaneBody=0;top=0;left=0;bottom=0;right=0;dropTarget=0;collapsible=0;recursiveResize=0;expand=0;fontStyle=0;fillColor=none;strokeColor=inherit;" parent="zqDXyUWVeApDbXY7VMIR-42" vertex="1">
          <mxGeometry width="166" height="24" as="geometry" />
        </mxCell>
        <mxCell id="zqDXyUWVeApDbXY7VMIR-44" value="2" style="connectable=0;recursiveResize=0;strokeColor=inherit;fillColor=none;align=center;whiteSpace=wrap;html=1;" parent="zqDXyUWVeApDbXY7VMIR-43" vertex="1">
          <mxGeometry width="56" height="24" as="geometry">
            <mxRectangle width="56" height="24" as="alternateBounds" />
          </mxGeometry>
        </mxCell>
        <mxCell id="zqDXyUWVeApDbXY7VMIR-45" value="华为手机" style="connectable=0;recursiveResize=0;strokeColor=inherit;fillColor=none;align=center;whiteSpace=wrap;html=1;" parent="zqDXyUWVeApDbXY7VMIR-43" vertex="1">
          <mxGeometry x="56" width="54" height="24" as="geometry">
            <mxRectangle width="54" height="24" as="alternateBounds" />
          </mxGeometry>
        </mxCell>
        <mxCell id="zqDXyUWVeApDbXY7VMIR-46" value="4999" style="connectable=0;recursiveResize=0;strokeColor=inherit;fillColor=none;align=center;whiteSpace=wrap;html=1;" parent="zqDXyUWVeApDbXY7VMIR-43" vertex="1">
          <mxGeometry x="110" width="56" height="24" as="geometry">
            <mxRectangle width="56" height="24" as="alternateBounds" />
          </mxGeometry>
        </mxCell>
        <mxCell id="zqDXyUWVeApDbXY7VMIR-47" style="shape=tableRow;horizontal=0;startSize=0;swimlaneHead=0;swimlaneBody=0;top=0;left=0;bottom=0;right=0;dropTarget=0;collapsible=0;recursiveResize=0;expand=0;fontStyle=0;fillColor=none;strokeColor=inherit;" parent="zqDXyUWVeApDbXY7VMIR-42" vertex="1">
          <mxGeometry y="24" width="166" height="24" as="geometry" />
        </mxCell>
        <mxCell id="zqDXyUWVeApDbXY7VMIR-48" value="1" style="connectable=0;recursiveResize=0;strokeColor=inherit;fillColor=none;align=center;whiteSpace=wrap;html=1;" parent="zqDXyUWVeApDbXY7VMIR-47" vertex="1">
          <mxGeometry width="56" height="24" as="geometry">
            <mxRectangle width="56" height="24" as="alternateBounds" />
          </mxGeometry>
        </mxCell>
        <mxCell id="zqDXyUWVeApDbXY7VMIR-49" value="小米手机" style="connectable=0;recursiveResize=0;strokeColor=inherit;fillColor=none;align=center;whiteSpace=wrap;html=1;" parent="zqDXyUWVeApDbXY7VMIR-47" vertex="1">
          <mxGeometry x="56" width="54" height="24" as="geometry">
            <mxRectangle width="54" height="24" as="alternateBounds" />
          </mxGeometry>
        </mxCell>
        <mxCell id="zqDXyUWVeApDbXY7VMIR-50" value="3499" style="connectable=0;recursiveResize=0;strokeColor=inherit;fillColor=none;align=center;whiteSpace=wrap;html=1;" parent="zqDXyUWVeApDbXY7VMIR-47" vertex="1">
          <mxGeometry x="110" width="56" height="24" as="geometry">
            <mxRectangle width="56" height="24" as="alternateBounds" />
          </mxGeometry>
        </mxCell>
        <mxCell id="zqDXyUWVeApDbXY7VMIR-55" value="搜索手机&lt;br&gt;select * from tb where title like &#39;%手机%&#39;" style="text;html=1;align=center;verticalAlign=middle;resizable=0;points=[];autosize=1;strokeColor=none;fillColor=none;" parent="1" vertex="1">
          <mxGeometry x="781" y="88" width="231" height="41" as="geometry" />
        </mxCell>
      </root>
    </mxGraphModel>
  </diagram>
  <diagram name="倒排索引" id="rdBwO97vkuyQZur_6CHN">
    <mxGraphModel dx="1485" dy="614" grid="0" gridSize="10" guides="1" tooltips="1" connect="1" arrows="1" fold="1" page="1" pageScale="1" pageWidth="1920" pageHeight="1200" math="0" shadow="0">
      <root>
        <mxCell id="fiQLP28M34QHwZ_QQJkk-0" />
        <mxCell id="fiQLP28M34QHwZ_QQJkk-1" parent="fiQLP28M34QHwZ_QQJkk-0" />
        <mxCell id="fiQLP28M34QHwZ_QQJkk-2" value="" style="childLayout=tableLayout;recursiveResize=0;shadow=0;fillColor=none;fontSize=17;" vertex="1" parent="fiQLP28M34QHwZ_QQJkk-1">
          <mxGeometry x="680" y="206" width="292" height="281" as="geometry" />
        </mxCell>
        <mxCell id="fiQLP28M34QHwZ_QQJkk-3" value="" style="shape=tableRow;horizontal=0;startSize=0;swimlaneHead=0;swimlaneBody=0;top=0;left=0;bottom=0;right=0;dropTarget=0;collapsible=0;recursiveResize=0;expand=0;fontStyle=0;fillColor=none;strokeColor=inherit;fontSize=17;" vertex="1" parent="fiQLP28M34QHwZ_QQJkk-2">
          <mxGeometry width="292" height="47" as="geometry" />
        </mxCell>
        <mxCell id="fiQLP28M34QHwZ_QQJkk-4" value="词条&lt;br&gt;(term)" style="connectable=0;recursiveResize=0;strokeColor=inherit;fillColor=#9999FF;align=center;whiteSpace=wrap;html=1;fontStyle=1;fontSize=17;" vertex="1" parent="fiQLP28M34QHwZ_QQJkk-3">
          <mxGeometry width="146" height="47" as="geometry">
            <mxRectangle width="146" height="47" as="alternateBounds" />
          </mxGeometry>
        </mxCell>
        <mxCell id="fiQLP28M34QHwZ_QQJkk-5" value="文档id" style="connectable=0;recursiveResize=0;strokeColor=inherit;fillColor=#9999FF;align=center;whiteSpace=wrap;html=1;fontStyle=1;fontSize=17;" vertex="1" parent="fiQLP28M34QHwZ_QQJkk-3">
          <mxGeometry x="146" width="146" height="47" as="geometry">
            <mxRectangle width="146" height="47" as="alternateBounds" />
          </mxGeometry>
        </mxCell>
        <mxCell id="fiQLP28M34QHwZ_QQJkk-7" style="shape=tableRow;horizontal=0;startSize=0;swimlaneHead=0;swimlaneBody=0;top=0;left=0;bottom=0;right=0;dropTarget=0;collapsible=0;recursiveResize=0;expand=0;fontStyle=0;fillColor=none;strokeColor=inherit;fontSize=17;" vertex="1" parent="fiQLP28M34QHwZ_QQJkk-2">
          <mxGeometry y="47" width="292" height="46" as="geometry" />
        </mxCell>
        <mxCell id="fiQLP28M34QHwZ_QQJkk-8" value="小米" style="connectable=0;recursiveResize=0;strokeColor=inherit;fillColor=none;align=center;whiteSpace=wrap;html=1;fontSize=17;" vertex="1" parent="fiQLP28M34QHwZ_QQJkk-7">
          <mxGeometry width="146" height="46" as="geometry">
            <mxRectangle width="146" height="46" as="alternateBounds" />
          </mxGeometry>
        </mxCell>
        <mxCell id="fiQLP28M34QHwZ_QQJkk-9" value="1,3,4" style="connectable=0;recursiveResize=0;strokeColor=inherit;fillColor=none;align=center;whiteSpace=wrap;html=1;fontSize=17;" vertex="1" parent="fiQLP28M34QHwZ_QQJkk-7">
          <mxGeometry x="146" width="146" height="46" as="geometry">
            <mxRectangle width="146" height="46" as="alternateBounds" />
          </mxGeometry>
        </mxCell>
        <mxCell id="fiQLP28M34QHwZ_QQJkk-11" style="shape=tableRow;horizontal=0;startSize=0;swimlaneHead=0;swimlaneBody=0;top=0;left=0;bottom=0;right=0;dropTarget=0;collapsible=0;recursiveResize=0;expand=0;fontStyle=0;fillColor=none;strokeColor=inherit;fontSize=17;" vertex="1" parent="fiQLP28M34QHwZ_QQJkk-2">
          <mxGeometry y="93" width="292" height="47" as="geometry" />
        </mxCell>
        <mxCell id="fiQLP28M34QHwZ_QQJkk-12" value="手机" style="connectable=0;recursiveResize=0;strokeColor=inherit;fillColor=none;align=center;whiteSpace=wrap;html=1;fontSize=17;" vertex="1" parent="fiQLP28M34QHwZ_QQJkk-11">
          <mxGeometry width="146" height="47" as="geometry">
            <mxRectangle width="146" height="47" as="alternateBounds" />
          </mxGeometry>
        </mxCell>
        <mxCell id="fiQLP28M34QHwZ_QQJkk-13" value="1,2" style="connectable=0;recursiveResize=0;strokeColor=inherit;fillColor=none;align=center;whiteSpace=wrap;html=1;fontSize=17;" vertex="1" parent="fiQLP28M34QHwZ_QQJkk-11">
          <mxGeometry x="146" width="146" height="47" as="geometry">
            <mxRectangle width="146" height="47" as="alternateBounds" />
          </mxGeometry>
        </mxCell>
        <mxCell id="fiQLP28M34QHwZ_QQJkk-15" style="shape=tableRow;horizontal=0;startSize=0;swimlaneHead=0;swimlaneBody=0;top=0;left=0;bottom=0;right=0;dropTarget=0;collapsible=0;recursiveResize=0;expand=0;fontStyle=0;fillColor=none;strokeColor=inherit;fontSize=17;" vertex="1" parent="fiQLP28M34QHwZ_QQJkk-2">
          <mxGeometry y="140" width="292" height="47" as="geometry" />
        </mxCell>
        <mxCell id="fiQLP28M34QHwZ_QQJkk-16" value="华为" style="connectable=0;recursiveResize=0;strokeColor=inherit;fillColor=none;align=center;whiteSpace=wrap;html=1;fontSize=17;" vertex="1" parent="fiQLP28M34QHwZ_QQJkk-15">
          <mxGeometry width="146" height="47" as="geometry">
            <mxRectangle width="146" height="47" as="alternateBounds" />
          </mxGeometry>
        </mxCell>
        <mxCell id="fiQLP28M34QHwZ_QQJkk-17" value="2,3" style="connectable=0;recursiveResize=0;strokeColor=inherit;fillColor=none;align=center;whiteSpace=wrap;html=1;fontSize=17;" vertex="1" parent="fiQLP28M34QHwZ_QQJkk-15">
          <mxGeometry x="146" width="146" height="47" as="geometry">
            <mxRectangle width="146" height="47" as="alternateBounds" />
          </mxGeometry>
        </mxCell>
        <mxCell id="fiQLP28M34QHwZ_QQJkk-19" style="shape=tableRow;horizontal=0;startSize=0;swimlaneHead=0;swimlaneBody=0;top=0;left=0;bottom=0;right=0;dropTarget=0;collapsible=0;recursiveResize=0;expand=0;fontStyle=0;fillColor=none;strokeColor=inherit;fontSize=17;" vertex="1" parent="fiQLP28M34QHwZ_QQJkk-2">
          <mxGeometry y="187" width="292" height="47" as="geometry" />
        </mxCell>
        <mxCell id="fiQLP28M34QHwZ_QQJkk-20" value="充电器" style="connectable=0;recursiveResize=0;strokeColor=inherit;fillColor=none;align=center;whiteSpace=wrap;html=1;fontSize=17;" vertex="1" parent="fiQLP28M34QHwZ_QQJkk-19">
          <mxGeometry width="146" height="47" as="geometry">
            <mxRectangle width="146" height="47" as="alternateBounds" />
          </mxGeometry>
        </mxCell>
        <mxCell id="fiQLP28M34QHwZ_QQJkk-21" value="3" style="connectable=0;recursiveResize=0;strokeColor=inherit;fillColor=none;align=center;whiteSpace=wrap;html=1;fontSize=17;" vertex="1" parent="fiQLP28M34QHwZ_QQJkk-19">
          <mxGeometry x="146" width="146" height="47" as="geometry">
            <mxRectangle width="146" height="47" as="alternateBounds" />
          </mxGeometry>
        </mxCell>
        <mxCell id="fiQLP28M34QHwZ_QQJkk-23" style="shape=tableRow;horizontal=0;startSize=0;swimlaneHead=0;swimlaneBody=0;top=0;left=0;bottom=0;right=0;dropTarget=0;collapsible=0;recursiveResize=0;expand=0;fontStyle=0;fillColor=none;strokeColor=inherit;fontSize=17;" vertex="1" parent="fiQLP28M34QHwZ_QQJkk-2">
          <mxGeometry y="234" width="292" height="47" as="geometry" />
        </mxCell>
        <mxCell id="fiQLP28M34QHwZ_QQJkk-24" value="手环" style="connectable=0;recursiveResize=0;strokeColor=inherit;fillColor=none;align=center;whiteSpace=wrap;html=1;fontSize=17;" vertex="1" parent="fiQLP28M34QHwZ_QQJkk-23">
          <mxGeometry width="146" height="47" as="geometry">
            <mxRectangle width="146" height="47" as="alternateBounds" />
          </mxGeometry>
        </mxCell>
        <mxCell id="fiQLP28M34QHwZ_QQJkk-25" value="4" style="connectable=0;recursiveResize=0;strokeColor=inherit;fillColor=none;align=center;whiteSpace=wrap;html=1;fontSize=17;" vertex="1" parent="fiQLP28M34QHwZ_QQJkk-23">
          <mxGeometry x="146" width="146" height="47" as="geometry">
            <mxRectangle width="146" height="47" as="alternateBounds" />
          </mxGeometry>
        </mxCell>
        <mxCell id="6k1PMKbe2bTTtMNvkbfV-29" style="edgeStyle=orthogonalEdgeStyle;rounded=0;orthogonalLoop=1;jettySize=auto;html=1;" edge="1" parent="fiQLP28M34QHwZ_QQJkk-1" target="fiQLP28M34QHwZ_QQJkk-31">
          <mxGeometry relative="1" as="geometry">
            <mxPoint x="1174" y="125.60002136230469" as="sourcePoint" />
          </mxGeometry>
        </mxCell>
        <mxCell id="6k1PMKbe2bTTtMNvkbfV-32" style="edgeStyle=orthogonalEdgeStyle;rounded=0;orthogonalLoop=1;jettySize=auto;html=1;" edge="1" parent="fiQLP28M34QHwZ_QQJkk-1" source="fiQLP28M34QHwZ_QQJkk-31">
          <mxGeometry relative="1" as="geometry">
            <mxPoint x="1174" y="301.6000061035156" as="targetPoint" />
          </mxGeometry>
        </mxCell>
        <mxCell id="fiQLP28M34QHwZ_QQJkk-31" value="存入结果集" style="whiteSpace=wrap;html=1;" vertex="1" parent="fiQLP28M34QHwZ_QQJkk-1">
          <mxGeometry x="1114" y="197" width="120" height="60" as="geometry" />
        </mxCell>
        <mxCell id="6k1PMKbe2bTTtMNvkbfV-33" style="edgeStyle=orthogonalEdgeStyle;rounded=0;orthogonalLoop=1;jettySize=auto;html=1;exitX=0.5;exitY=1;exitDx=0;exitDy=0;entryX=0.5;entryY=0;entryDx=0;entryDy=0;" edge="1" parent="fiQLP28M34QHwZ_QQJkk-1" source="fiQLP28M34QHwZ_QQJkk-32" target="6k1PMKbe2bTTtMNvkbfV-30">
          <mxGeometry relative="1" as="geometry" />
        </mxCell>
        <mxCell id="fiQLP28M34QHwZ_QQJkk-32" value="去词条列表查询&lt;br&gt;文档id" style="whiteSpace=wrap;html=1;" vertex="1" parent="fiQLP28M34QHwZ_QQJkk-1">
          <mxGeometry x="1114" y="302" width="120" height="60" as="geometry" />
        </mxCell>
        <mxCell id="fiQLP28M34QHwZ_QQJkk-33" value="搜索华为手机" style="text;html=1;align=center;verticalAlign=middle;resizable=0;points=[];autosize=1;strokeColor=none;fillColor=none;" vertex="1" parent="fiQLP28M34QHwZ_QQJkk-1">
          <mxGeometry x="1175" y="147" width="90" height="26" as="geometry" />
        </mxCell>
        <mxCell id="6k1PMKbe2bTTtMNvkbfV-0" value="" style="shape=flexArrow;endArrow=classic;html=1;rounded=0;endWidth=60;endSize=16.29;width=41;" edge="1" parent="fiQLP28M34QHwZ_QQJkk-1">
          <mxGeometry width="50" height="50" relative="1" as="geometry">
            <mxPoint x="540" y="346" as="sourcePoint" />
            <mxPoint x="656" y="346" as="targetPoint" />
          </mxGeometry>
        </mxCell>
        <mxCell id="6k1PMKbe2bTTtMNvkbfV-1" value="" style="childLayout=tableLayout;recursiveResize=0;shadow=0;fillColor=none;fontSize=17;" vertex="1" parent="fiQLP28M34QHwZ_QQJkk-1">
          <mxGeometry x="82" y="206" width="438" height="281" as="geometry" />
        </mxCell>
        <mxCell id="6k1PMKbe2bTTtMNvkbfV-2" value="" style="shape=tableRow;horizontal=0;startSize=0;swimlaneHead=0;swimlaneBody=0;top=0;left=0;bottom=0;right=0;dropTarget=0;collapsible=0;recursiveResize=0;expand=0;fontStyle=0;fillColor=none;strokeColor=inherit;fontSize=17;" vertex="1" parent="6k1PMKbe2bTTtMNvkbfV-1">
          <mxGeometry width="438" height="47" as="geometry" />
        </mxCell>
        <mxCell id="6k1PMKbe2bTTtMNvkbfV-3" value="id" style="connectable=0;recursiveResize=0;strokeColor=inherit;fillColor=#FF66B3;align=center;whiteSpace=wrap;html=1;fontStyle=1;fontSize=17;" vertex="1" parent="6k1PMKbe2bTTtMNvkbfV-2">
          <mxGeometry width="146" height="47" as="geometry">
            <mxRectangle width="146" height="47" as="alternateBounds" />
          </mxGeometry>
        </mxCell>
        <mxCell id="6k1PMKbe2bTTtMNvkbfV-4" value="title" style="connectable=0;recursiveResize=0;strokeColor=inherit;fillColor=#FF66B3;align=center;whiteSpace=wrap;html=1;fontStyle=1;fontSize=17;" vertex="1" parent="6k1PMKbe2bTTtMNvkbfV-2">
          <mxGeometry x="146" width="146" height="47" as="geometry">
            <mxRectangle width="146" height="47" as="alternateBounds" />
          </mxGeometry>
        </mxCell>
        <mxCell id="6k1PMKbe2bTTtMNvkbfV-5" value="price" style="connectable=0;recursiveResize=0;strokeColor=inherit;fillColor=#FF66B3;align=center;whiteSpace=wrap;html=1;fontStyle=1;fontSize=17;" vertex="1" parent="6k1PMKbe2bTTtMNvkbfV-2">
          <mxGeometry x="292" width="146" height="47" as="geometry">
            <mxRectangle width="146" height="47" as="alternateBounds" />
          </mxGeometry>
        </mxCell>
        <mxCell id="6k1PMKbe2bTTtMNvkbfV-6" style="shape=tableRow;horizontal=0;startSize=0;swimlaneHead=0;swimlaneBody=0;top=0;left=0;bottom=0;right=0;dropTarget=0;collapsible=0;recursiveResize=0;expand=0;fontStyle=0;fillColor=none;strokeColor=inherit;fontSize=17;" vertex="1" parent="6k1PMKbe2bTTtMNvkbfV-1">
          <mxGeometry y="47" width="438" height="46" as="geometry" />
        </mxCell>
        <mxCell id="6k1PMKbe2bTTtMNvkbfV-7" value="1" style="connectable=0;recursiveResize=0;strokeColor=inherit;fillColor=none;align=center;whiteSpace=wrap;html=1;fontSize=17;" vertex="1" parent="6k1PMKbe2bTTtMNvkbfV-6">
          <mxGeometry width="146" height="46" as="geometry">
            <mxRectangle width="146" height="46" as="alternateBounds" />
          </mxGeometry>
        </mxCell>
        <mxCell id="6k1PMKbe2bTTtMNvkbfV-8" value="小米手机" style="connectable=0;recursiveResize=0;strokeColor=inherit;fillColor=none;align=center;whiteSpace=wrap;html=1;fontSize=17;" vertex="1" parent="6k1PMKbe2bTTtMNvkbfV-6">
          <mxGeometry x="146" width="146" height="46" as="geometry">
            <mxRectangle width="146" height="46" as="alternateBounds" />
          </mxGeometry>
        </mxCell>
        <mxCell id="6k1PMKbe2bTTtMNvkbfV-9" value="3499" style="connectable=0;recursiveResize=0;strokeColor=inherit;fillColor=none;align=center;whiteSpace=wrap;html=1;fontSize=17;" vertex="1" parent="6k1PMKbe2bTTtMNvkbfV-6">
          <mxGeometry x="292" width="146" height="46" as="geometry">
            <mxRectangle width="146" height="46" as="alternateBounds" />
          </mxGeometry>
        </mxCell>
        <mxCell id="6k1PMKbe2bTTtMNvkbfV-10" style="shape=tableRow;horizontal=0;startSize=0;swimlaneHead=0;swimlaneBody=0;top=0;left=0;bottom=0;right=0;dropTarget=0;collapsible=0;recursiveResize=0;expand=0;fontStyle=0;fillColor=none;strokeColor=inherit;fontSize=17;" vertex="1" parent="6k1PMKbe2bTTtMNvkbfV-1">
          <mxGeometry y="93" width="438" height="47" as="geometry" />
        </mxCell>
        <mxCell id="6k1PMKbe2bTTtMNvkbfV-11" value="2" style="connectable=0;recursiveResize=0;strokeColor=inherit;fillColor=none;align=center;whiteSpace=wrap;html=1;fontSize=17;" vertex="1" parent="6k1PMKbe2bTTtMNvkbfV-10">
          <mxGeometry width="146" height="47" as="geometry">
            <mxRectangle width="146" height="47" as="alternateBounds" />
          </mxGeometry>
        </mxCell>
        <mxCell id="6k1PMKbe2bTTtMNvkbfV-12" value="华为手机" style="connectable=0;recursiveResize=0;strokeColor=inherit;fillColor=none;align=center;whiteSpace=wrap;html=1;fontSize=17;" vertex="1" parent="6k1PMKbe2bTTtMNvkbfV-10">
          <mxGeometry x="146" width="146" height="47" as="geometry">
            <mxRectangle width="146" height="47" as="alternateBounds" />
          </mxGeometry>
        </mxCell>
        <mxCell id="6k1PMKbe2bTTtMNvkbfV-13" value="4999" style="connectable=0;recursiveResize=0;strokeColor=inherit;fillColor=none;align=center;whiteSpace=wrap;html=1;fontSize=17;" vertex="1" parent="6k1PMKbe2bTTtMNvkbfV-10">
          <mxGeometry x="292" width="146" height="47" as="geometry">
            <mxRectangle width="146" height="47" as="alternateBounds" />
          </mxGeometry>
        </mxCell>
        <mxCell id="6k1PMKbe2bTTtMNvkbfV-14" style="shape=tableRow;horizontal=0;startSize=0;swimlaneHead=0;swimlaneBody=0;top=0;left=0;bottom=0;right=0;dropTarget=0;collapsible=0;recursiveResize=0;expand=0;fontStyle=0;fillColor=none;strokeColor=inherit;fontSize=17;" vertex="1" parent="6k1PMKbe2bTTtMNvkbfV-1">
          <mxGeometry y="140" width="438" height="47" as="geometry" />
        </mxCell>
        <mxCell id="6k1PMKbe2bTTtMNvkbfV-15" value="3" style="connectable=0;recursiveResize=0;strokeColor=inherit;fillColor=none;align=center;whiteSpace=wrap;html=1;fontSize=17;" vertex="1" parent="6k1PMKbe2bTTtMNvkbfV-14">
          <mxGeometry width="146" height="47" as="geometry">
            <mxRectangle width="146" height="47" as="alternateBounds" />
          </mxGeometry>
        </mxCell>
        <mxCell id="6k1PMKbe2bTTtMNvkbfV-16" value="华为小米充电器" style="connectable=0;recursiveResize=0;strokeColor=inherit;fillColor=none;align=center;whiteSpace=wrap;html=1;fontSize=17;" vertex="1" parent="6k1PMKbe2bTTtMNvkbfV-14">
          <mxGeometry x="146" width="146" height="47" as="geometry">
            <mxRectangle width="146" height="47" as="alternateBounds" />
          </mxGeometry>
        </mxCell>
        <mxCell id="6k1PMKbe2bTTtMNvkbfV-17" value="49" style="connectable=0;recursiveResize=0;strokeColor=inherit;fillColor=none;align=center;whiteSpace=wrap;html=1;fontSize=17;" vertex="1" parent="6k1PMKbe2bTTtMNvkbfV-14">
          <mxGeometry x="292" width="146" height="47" as="geometry">
            <mxRectangle width="146" height="47" as="alternateBounds" />
          </mxGeometry>
        </mxCell>
        <mxCell id="6k1PMKbe2bTTtMNvkbfV-18" style="shape=tableRow;horizontal=0;startSize=0;swimlaneHead=0;swimlaneBody=0;top=0;left=0;bottom=0;right=0;dropTarget=0;collapsible=0;recursiveResize=0;expand=0;fontStyle=0;fillColor=none;strokeColor=inherit;fontSize=17;" vertex="1" parent="6k1PMKbe2bTTtMNvkbfV-1">
          <mxGeometry y="187" width="438" height="47" as="geometry" />
        </mxCell>
        <mxCell id="6k1PMKbe2bTTtMNvkbfV-19" value="4" style="connectable=0;recursiveResize=0;strokeColor=inherit;fillColor=none;align=center;whiteSpace=wrap;html=1;fontSize=17;" vertex="1" parent="6k1PMKbe2bTTtMNvkbfV-18">
          <mxGeometry width="146" height="47" as="geometry">
            <mxRectangle width="146" height="47" as="alternateBounds" />
          </mxGeometry>
        </mxCell>
        <mxCell id="6k1PMKbe2bTTtMNvkbfV-20" value="小米手环" style="connectable=0;recursiveResize=0;strokeColor=inherit;fillColor=none;align=center;whiteSpace=wrap;html=1;fontSize=17;" vertex="1" parent="6k1PMKbe2bTTtMNvkbfV-18">
          <mxGeometry x="146" width="146" height="47" as="geometry">
            <mxRectangle width="146" height="47" as="alternateBounds" />
          </mxGeometry>
        </mxCell>
        <mxCell id="6k1PMKbe2bTTtMNvkbfV-21" value="49" style="connectable=0;recursiveResize=0;strokeColor=inherit;fillColor=none;align=center;whiteSpace=wrap;html=1;fontSize=17;" vertex="1" parent="6k1PMKbe2bTTtMNvkbfV-18">
          <mxGeometry x="292" width="146" height="47" as="geometry">
            <mxRectangle width="146" height="47" as="alternateBounds" />
          </mxGeometry>
        </mxCell>
        <mxCell id="6k1PMKbe2bTTtMNvkbfV-22" style="shape=tableRow;horizontal=0;startSize=0;swimlaneHead=0;swimlaneBody=0;top=0;left=0;bottom=0;right=0;dropTarget=0;collapsible=0;recursiveResize=0;expand=0;fontStyle=0;fillColor=none;strokeColor=inherit;fontSize=17;" vertex="1" parent="6k1PMKbe2bTTtMNvkbfV-1">
          <mxGeometry y="234" width="438" height="47" as="geometry" />
        </mxCell>
        <mxCell id="6k1PMKbe2bTTtMNvkbfV-23" value="..." style="connectable=0;recursiveResize=0;strokeColor=inherit;fillColor=none;align=center;whiteSpace=wrap;html=1;fontSize=17;" vertex="1" parent="6k1PMKbe2bTTtMNvkbfV-22">
          <mxGeometry width="146" height="47" as="geometry">
            <mxRectangle width="146" height="47" as="alternateBounds" />
          </mxGeometry>
        </mxCell>
        <mxCell id="6k1PMKbe2bTTtMNvkbfV-24" value="..." style="connectable=0;recursiveResize=0;strokeColor=inherit;fillColor=none;align=center;whiteSpace=wrap;html=1;fontSize=17;" vertex="1" parent="6k1PMKbe2bTTtMNvkbfV-22">
          <mxGeometry x="146" width="146" height="47" as="geometry">
            <mxRectangle width="146" height="47" as="alternateBounds" />
          </mxGeometry>
        </mxCell>
        <mxCell id="6k1PMKbe2bTTtMNvkbfV-25" value="..." style="connectable=0;recursiveResize=0;strokeColor=inherit;fillColor=none;align=center;whiteSpace=wrap;html=1;fontSize=17;" vertex="1" parent="6k1PMKbe2bTTtMNvkbfV-22">
          <mxGeometry x="292" width="146" height="47" as="geometry">
            <mxRectangle width="146" height="47" as="alternateBounds" />
          </mxGeometry>
        </mxCell>
        <mxCell id="6k1PMKbe2bTTtMNvkbfV-35" style="edgeStyle=orthogonalEdgeStyle;rounded=0;orthogonalLoop=1;jettySize=auto;html=1;entryX=0.5;entryY=0;entryDx=0;entryDy=0;" edge="1" parent="fiQLP28M34QHwZ_QQJkk-1" source="6k1PMKbe2bTTtMNvkbfV-30" target="6k1PMKbe2bTTtMNvkbfV-31">
          <mxGeometry relative="1" as="geometry" />
        </mxCell>
        <mxCell id="6k1PMKbe2bTTtMNvkbfV-30" value="根据文档id查询文档" style="whiteSpace=wrap;html=1;" vertex="1" parent="fiQLP28M34QHwZ_QQJkk-1">
          <mxGeometry x="1114" y="407" width="120" height="60" as="geometry" />
        </mxCell>
        <mxCell id="6k1PMKbe2bTTtMNvkbfV-31" value="存入结果集" style="whiteSpace=wrap;html=1;" vertex="1" parent="fiQLP28M34QHwZ_QQJkk-1">
          <mxGeometry x="1114" y="512" width="120" height="60" as="geometry" />
        </mxCell>
        <mxCell id="6k1PMKbe2bTTtMNvkbfV-36" value="得到 &#39;华为&#39;,&#39;手机&#39; 两个词条" style="text;html=1;align=center;verticalAlign=middle;resizable=0;points=[];autosize=1;strokeColor=none;fillColor=none;" vertex="1" parent="fiQLP28M34QHwZ_QQJkk-1">
          <mxGeometry x="1175" y="266" width="157" height="26" as="geometry" />
        </mxCell>
        <mxCell id="6k1PMKbe2bTTtMNvkbfV-37" value="得到每个词条所在文档id&lt;br&gt;华为：2,3&lt;br&gt;手机：1,2" style="text;html=1;align=center;verticalAlign=middle;resizable=0;points=[];autosize=1;strokeColor=none;fillColor=none;" vertex="1" parent="fiQLP28M34QHwZ_QQJkk-1">
          <mxGeometry x="1196" y="362" width="147" height="55" as="geometry" />
        </mxCell>
        <mxCell id="6k1PMKbe2bTTtMNvkbfV-38" value="得到id为1,2,3的文档" style="text;html=1;align=center;verticalAlign=middle;resizable=0;points=[];autosize=1;strokeColor=none;fillColor=none;" vertex="1" parent="fiQLP28M34QHwZ_QQJkk-1">
          <mxGeometry x="1175" y="473" width="126" height="26" as="geometry" />
        </mxCell>
        <mxCell id="6k1PMKbe2bTTtMNvkbfV-39" value="正向索引" style="text;html=1;align=center;verticalAlign=middle;resizable=0;points=[];autosize=1;strokeColor=none;fillColor=none;fontSize=17;" vertex="1" parent="fiQLP28M34QHwZ_QQJkk-1">
          <mxGeometry x="258" y="519" width="86" height="32" as="geometry" />
        </mxCell>
        <mxCell id="6k1PMKbe2bTTtMNvkbfV-40" value="倒排索引" style="text;html=1;align=center;verticalAlign=middle;resizable=0;points=[];autosize=1;strokeColor=none;fillColor=none;fontSize=17;" vertex="1" parent="fiQLP28M34QHwZ_QQJkk-1">
          <mxGeometry x="783" y="517" width="86" height="32" as="geometry" />
        </mxCell>
      </root>
    </mxGraphModel>
  </diagram>
  <diagram name="文档" id="adlo7gcn_PGwT5u2PuLG">
    <mxGraphModel dx="1262" dy="522" grid="0" gridSize="10" guides="1" tooltips="1" connect="1" arrows="1" fold="1" page="1" pageScale="1" pageWidth="1920" pageHeight="1200" math="0" shadow="0">
      <root>
        <mxCell id="iS4Tr5LypEtX4wtg8Cli-0" />
        <mxCell id="iS4Tr5LypEtX4wtg8Cli-1" parent="iS4Tr5LypEtX4wtg8Cli-0" />
        <mxCell id="iS4Tr5LypEtX4wtg8Cli-27" value="" style="shape=flexArrow;endArrow=classic;html=1;rounded=0;endWidth=60;endSize=16.29;width=41;" edge="1" parent="iS4Tr5LypEtX4wtg8Cli-1">
          <mxGeometry width="50" height="50" relative="1" as="geometry">
            <mxPoint x="540" y="346" as="sourcePoint" />
            <mxPoint x="656" y="346" as="targetPoint" />
          </mxGeometry>
        </mxCell>
        <mxCell id="iS4Tr5LypEtX4wtg8Cli-28" value="" style="childLayout=tableLayout;recursiveResize=0;shadow=0;fillColor=none;fontSize=17;" vertex="1" parent="iS4Tr5LypEtX4wtg8Cli-1">
          <mxGeometry x="82" y="206" width="438" height="281" as="geometry" />
        </mxCell>
        <mxCell id="iS4Tr5LypEtX4wtg8Cli-29" value="" style="shape=tableRow;horizontal=0;startSize=0;swimlaneHead=0;swimlaneBody=0;top=0;left=0;bottom=0;right=0;dropTarget=0;collapsible=0;recursiveResize=0;expand=0;fontStyle=0;fillColor=none;strokeColor=inherit;fontSize=17;" vertex="1" parent="iS4Tr5LypEtX4wtg8Cli-28">
          <mxGeometry width="438" height="47" as="geometry" />
        </mxCell>
        <mxCell id="iS4Tr5LypEtX4wtg8Cli-30" value="id" style="connectable=0;recursiveResize=0;strokeColor=inherit;fillColor=#FF66B3;align=center;whiteSpace=wrap;html=1;fontStyle=1;fontSize=17;" vertex="1" parent="iS4Tr5LypEtX4wtg8Cli-29">
          <mxGeometry width="146" height="47" as="geometry">
            <mxRectangle width="146" height="47" as="alternateBounds" />
          </mxGeometry>
        </mxCell>
        <mxCell id="iS4Tr5LypEtX4wtg8Cli-31" value="title" style="connectable=0;recursiveResize=0;strokeColor=inherit;fillColor=#FF66B3;align=center;whiteSpace=wrap;html=1;fontStyle=1;fontSize=17;" vertex="1" parent="iS4Tr5LypEtX4wtg8Cli-29">
          <mxGeometry x="146" width="146" height="47" as="geometry">
            <mxRectangle width="146" height="47" as="alternateBounds" />
          </mxGeometry>
        </mxCell>
        <mxCell id="iS4Tr5LypEtX4wtg8Cli-32" value="price" style="connectable=0;recursiveResize=0;strokeColor=inherit;fillColor=#FF66B3;align=center;whiteSpace=wrap;html=1;fontStyle=1;fontSize=17;" vertex="1" parent="iS4Tr5LypEtX4wtg8Cli-29">
          <mxGeometry x="292" width="146" height="47" as="geometry">
            <mxRectangle width="146" height="47" as="alternateBounds" />
          </mxGeometry>
        </mxCell>
        <mxCell id="iS4Tr5LypEtX4wtg8Cli-33" style="shape=tableRow;horizontal=0;startSize=0;swimlaneHead=0;swimlaneBody=0;top=0;left=0;bottom=0;right=0;dropTarget=0;collapsible=0;recursiveResize=0;expand=0;fontStyle=0;fillColor=none;strokeColor=inherit;fontSize=17;" vertex="1" parent="iS4Tr5LypEtX4wtg8Cli-28">
          <mxGeometry y="47" width="438" height="46" as="geometry" />
        </mxCell>
        <mxCell id="iS4Tr5LypEtX4wtg8Cli-34" value="1" style="connectable=0;recursiveResize=0;strokeColor=inherit;fillColor=none;align=center;whiteSpace=wrap;html=1;fontSize=17;" vertex="1" parent="iS4Tr5LypEtX4wtg8Cli-33">
          <mxGeometry width="146" height="46" as="geometry">
            <mxRectangle width="146" height="46" as="alternateBounds" />
          </mxGeometry>
        </mxCell>
        <mxCell id="iS4Tr5LypEtX4wtg8Cli-35" value="小米手机" style="connectable=0;recursiveResize=0;strokeColor=inherit;fillColor=none;align=center;whiteSpace=wrap;html=1;fontSize=17;" vertex="1" parent="iS4Tr5LypEtX4wtg8Cli-33">
          <mxGeometry x="146" width="146" height="46" as="geometry">
            <mxRectangle width="146" height="46" as="alternateBounds" />
          </mxGeometry>
        </mxCell>
        <mxCell id="iS4Tr5LypEtX4wtg8Cli-36" value="3499" style="connectable=0;recursiveResize=0;strokeColor=inherit;fillColor=none;align=center;whiteSpace=wrap;html=1;fontSize=17;" vertex="1" parent="iS4Tr5LypEtX4wtg8Cli-33">
          <mxGeometry x="292" width="146" height="46" as="geometry">
            <mxRectangle width="146" height="46" as="alternateBounds" />
          </mxGeometry>
        </mxCell>
        <mxCell id="iS4Tr5LypEtX4wtg8Cli-37" style="shape=tableRow;horizontal=0;startSize=0;swimlaneHead=0;swimlaneBody=0;top=0;left=0;bottom=0;right=0;dropTarget=0;collapsible=0;recursiveResize=0;expand=0;fontStyle=0;fillColor=none;strokeColor=inherit;fontSize=17;" vertex="1" parent="iS4Tr5LypEtX4wtg8Cli-28">
          <mxGeometry y="93" width="438" height="47" as="geometry" />
        </mxCell>
        <mxCell id="iS4Tr5LypEtX4wtg8Cli-38" value="2" style="connectable=0;recursiveResize=0;strokeColor=inherit;fillColor=none;align=center;whiteSpace=wrap;html=1;fontSize=17;" vertex="1" parent="iS4Tr5LypEtX4wtg8Cli-37">
          <mxGeometry width="146" height="47" as="geometry">
            <mxRectangle width="146" height="47" as="alternateBounds" />
          </mxGeometry>
        </mxCell>
        <mxCell id="iS4Tr5LypEtX4wtg8Cli-39" value="华为手机" style="connectable=0;recursiveResize=0;strokeColor=inherit;fillColor=none;align=center;whiteSpace=wrap;html=1;fontSize=17;" vertex="1" parent="iS4Tr5LypEtX4wtg8Cli-37">
          <mxGeometry x="146" width="146" height="47" as="geometry">
            <mxRectangle width="146" height="47" as="alternateBounds" />
          </mxGeometry>
        </mxCell>
        <mxCell id="iS4Tr5LypEtX4wtg8Cli-40" value="4999" style="connectable=0;recursiveResize=0;strokeColor=inherit;fillColor=none;align=center;whiteSpace=wrap;html=1;fontSize=17;" vertex="1" parent="iS4Tr5LypEtX4wtg8Cli-37">
          <mxGeometry x="292" width="146" height="47" as="geometry">
            <mxRectangle width="146" height="47" as="alternateBounds" />
          </mxGeometry>
        </mxCell>
        <mxCell id="iS4Tr5LypEtX4wtg8Cli-41" style="shape=tableRow;horizontal=0;startSize=0;swimlaneHead=0;swimlaneBody=0;top=0;left=0;bottom=0;right=0;dropTarget=0;collapsible=0;recursiveResize=0;expand=0;fontStyle=0;fillColor=none;strokeColor=inherit;fontSize=17;" vertex="1" parent="iS4Tr5LypEtX4wtg8Cli-28">
          <mxGeometry y="140" width="438" height="47" as="geometry" />
        </mxCell>
        <mxCell id="iS4Tr5LypEtX4wtg8Cli-42" value="3" style="connectable=0;recursiveResize=0;strokeColor=inherit;fillColor=none;align=center;whiteSpace=wrap;html=1;fontSize=17;" vertex="1" parent="iS4Tr5LypEtX4wtg8Cli-41">
          <mxGeometry width="146" height="47" as="geometry">
            <mxRectangle width="146" height="47" as="alternateBounds" />
          </mxGeometry>
        </mxCell>
        <mxCell id="iS4Tr5LypEtX4wtg8Cli-43" value="华为小米充电器" style="connectable=0;recursiveResize=0;strokeColor=inherit;fillColor=none;align=center;whiteSpace=wrap;html=1;fontSize=17;" vertex="1" parent="iS4Tr5LypEtX4wtg8Cli-41">
          <mxGeometry x="146" width="146" height="47" as="geometry">
            <mxRectangle width="146" height="47" as="alternateBounds" />
          </mxGeometry>
        </mxCell>
        <mxCell id="iS4Tr5LypEtX4wtg8Cli-44" value="49" style="connectable=0;recursiveResize=0;strokeColor=inherit;fillColor=none;align=center;whiteSpace=wrap;html=1;fontSize=17;" vertex="1" parent="iS4Tr5LypEtX4wtg8Cli-41">
          <mxGeometry x="292" width="146" height="47" as="geometry">
            <mxRectangle width="146" height="47" as="alternateBounds" />
          </mxGeometry>
        </mxCell>
        <mxCell id="iS4Tr5LypEtX4wtg8Cli-45" style="shape=tableRow;horizontal=0;startSize=0;swimlaneHead=0;swimlaneBody=0;top=0;left=0;bottom=0;right=0;dropTarget=0;collapsible=0;recursiveResize=0;expand=0;fontStyle=0;fillColor=none;strokeColor=inherit;fontSize=17;" vertex="1" parent="iS4Tr5LypEtX4wtg8Cli-28">
          <mxGeometry y="187" width="438" height="47" as="geometry" />
        </mxCell>
        <mxCell id="iS4Tr5LypEtX4wtg8Cli-46" value="4" style="connectable=0;recursiveResize=0;strokeColor=inherit;fillColor=none;align=center;whiteSpace=wrap;html=1;fontSize=17;" vertex="1" parent="iS4Tr5LypEtX4wtg8Cli-45">
          <mxGeometry width="146" height="47" as="geometry">
            <mxRectangle width="146" height="47" as="alternateBounds" />
          </mxGeometry>
        </mxCell>
        <mxCell id="iS4Tr5LypEtX4wtg8Cli-47" value="小米手环" style="connectable=0;recursiveResize=0;strokeColor=inherit;fillColor=none;align=center;whiteSpace=wrap;html=1;fontSize=17;" vertex="1" parent="iS4Tr5LypEtX4wtg8Cli-45">
          <mxGeometry x="146" width="146" height="47" as="geometry">
            <mxRectangle width="146" height="47" as="alternateBounds" />
          </mxGeometry>
        </mxCell>
        <mxCell id="iS4Tr5LypEtX4wtg8Cli-48" value="49" style="connectable=0;recursiveResize=0;strokeColor=inherit;fillColor=none;align=center;whiteSpace=wrap;html=1;fontSize=17;" vertex="1" parent="iS4Tr5LypEtX4wtg8Cli-45">
          <mxGeometry x="292" width="146" height="47" as="geometry">
            <mxRectangle width="146" height="47" as="alternateBounds" />
          </mxGeometry>
        </mxCell>
        <mxCell id="iS4Tr5LypEtX4wtg8Cli-49" style="shape=tableRow;horizontal=0;startSize=0;swimlaneHead=0;swimlaneBody=0;top=0;left=0;bottom=0;right=0;dropTarget=0;collapsible=0;recursiveResize=0;expand=0;fontStyle=0;fillColor=none;strokeColor=inherit;fontSize=17;" vertex="1" parent="iS4Tr5LypEtX4wtg8Cli-28">
          <mxGeometry y="234" width="438" height="47" as="geometry" />
        </mxCell>
        <mxCell id="iS4Tr5LypEtX4wtg8Cli-50" value="..." style="connectable=0;recursiveResize=0;strokeColor=inherit;fillColor=none;align=center;whiteSpace=wrap;html=1;fontSize=17;" vertex="1" parent="iS4Tr5LypEtX4wtg8Cli-49">
          <mxGeometry width="146" height="47" as="geometry">
            <mxRectangle width="146" height="47" as="alternateBounds" />
          </mxGeometry>
        </mxCell>
        <mxCell id="iS4Tr5LypEtX4wtg8Cli-51" value="..." style="connectable=0;recursiveResize=0;strokeColor=inherit;fillColor=none;align=center;whiteSpace=wrap;html=1;fontSize=17;" vertex="1" parent="iS4Tr5LypEtX4wtg8Cli-49">
          <mxGeometry x="146" width="146" height="47" as="geometry">
            <mxRectangle width="146" height="47" as="alternateBounds" />
          </mxGeometry>
        </mxCell>
        <mxCell id="iS4Tr5LypEtX4wtg8Cli-52" value="..." style="connectable=0;recursiveResize=0;strokeColor=inherit;fillColor=none;align=center;whiteSpace=wrap;html=1;fontSize=17;" vertex="1" parent="iS4Tr5LypEtX4wtg8Cli-49">
          <mxGeometry x="292" width="146" height="47" as="geometry">
            <mxRectangle width="146" height="47" as="alternateBounds" />
          </mxGeometry>
        </mxCell>
        <mxCell id="aTOLU2yRQhoyp_ELU_kM-0" value="&lt;div style=&quot;color: rgb(0, 0, 0); background-color: rgb(255, 255, 254); font-family: Consolas, &amp;quot;Courier New&amp;quot;, monospace; font-weight: normal; font-size: 12px; line-height: 16px;&quot;&gt;&lt;div&gt;&lt;span style=&quot;color: #000000;&quot;&gt;&amp;nbsp; &amp;nbsp; {&lt;/span&gt;&lt;/div&gt;&lt;div&gt;&lt;span style=&quot;color: #000000;&quot;&gt;&amp;nbsp; &amp;nbsp; &amp;nbsp; &amp;nbsp; &lt;/span&gt;&lt;span style=&quot;color: #a31515;&quot;&gt;&quot;id&quot;&lt;/span&gt;&lt;span style=&quot;color: #000000;&quot;&gt;: &lt;/span&gt;&lt;span style=&quot;color: #098658;&quot;&gt;1&lt;/span&gt;&lt;span style=&quot;color: #000000;&quot;&gt;,&lt;/span&gt;&lt;/div&gt;&lt;div&gt;&lt;span style=&quot;color: #000000;&quot;&gt;&amp;nbsp; &amp;nbsp; &amp;nbsp; &amp;nbsp; &lt;/span&gt;&lt;span style=&quot;color: #a31515;&quot;&gt;&quot;title&quot;&lt;/span&gt;&lt;span style=&quot;color: #000000;&quot;&gt;: &lt;/span&gt;&lt;span style=&quot;color: #0451a5;&quot;&gt;&quot;小米手机&quot;&lt;/span&gt;&lt;span style=&quot;color: #000000;&quot;&gt;,&lt;/span&gt;&lt;/div&gt;&lt;div&gt;&lt;span style=&quot;color: #000000;&quot;&gt;&amp;nbsp; &amp;nbsp; &amp;nbsp; &amp;nbsp; &lt;/span&gt;&lt;span style=&quot;color: #a31515;&quot;&gt;&quot;price&quot;&lt;/span&gt;&lt;span style=&quot;color: #000000;&quot;&gt;: &lt;/span&gt;&lt;span style=&quot;color: #098658;&quot;&gt;3499&lt;/span&gt;&lt;/div&gt;&lt;div&gt;&lt;span style=&quot;color: #000000;&quot;&gt;&amp;nbsp; &amp;nbsp; }&lt;/span&gt;&lt;/div&gt;&lt;div&gt;&lt;span style=&quot;color: #000000;&quot;&gt;&amp;nbsp; &amp;nbsp; {&lt;/span&gt;&lt;/div&gt;&lt;div&gt;&lt;span style=&quot;color: #000000;&quot;&gt;&amp;nbsp; &amp;nbsp; &amp;nbsp; &amp;nbsp; &lt;/span&gt;&lt;span style=&quot;color: #a31515;&quot;&gt;&quot;id&quot;&lt;/span&gt;&lt;span style=&quot;color: #000000;&quot;&gt;: &lt;/span&gt;&lt;span style=&quot;color: #098658;&quot;&gt;2&lt;/span&gt;&lt;span style=&quot;color: #000000;&quot;&gt;,&lt;/span&gt;&lt;/div&gt;&lt;div&gt;&lt;span style=&quot;color: #000000;&quot;&gt;&amp;nbsp; &amp;nbsp; &amp;nbsp; &amp;nbsp; &lt;/span&gt;&lt;span style=&quot;color: #a31515;&quot;&gt;&quot;title&quot;&lt;/span&gt;&lt;span style=&quot;color: #000000;&quot;&gt;: &lt;/span&gt;&lt;span style=&quot;color: #0451a5;&quot;&gt;&quot;华为手机&quot;&lt;/span&gt;&lt;span style=&quot;color: #000000;&quot;&gt;,&lt;/span&gt;&lt;/div&gt;&lt;div&gt;&lt;span style=&quot;color: #000000;&quot;&gt;&amp;nbsp; &amp;nbsp; &amp;nbsp; &amp;nbsp; &lt;/span&gt;&lt;span style=&quot;color: #a31515;&quot;&gt;&quot;price&quot;&lt;/span&gt;&lt;span style=&quot;color: #000000;&quot;&gt;: &lt;/span&gt;&lt;span style=&quot;color: #098658;&quot;&gt;4999&lt;/span&gt;&lt;/div&gt;&lt;div&gt;&lt;span style=&quot;color: #000000;&quot;&gt;&amp;nbsp; &amp;nbsp; }&lt;/span&gt;&lt;/div&gt;&lt;div&gt;&lt;span style=&quot;color: #000000;&quot;&gt;&amp;nbsp; &amp;nbsp; {&lt;/span&gt;&lt;/div&gt;&lt;div&gt;&lt;span style=&quot;color: #000000;&quot;&gt;&amp;nbsp; &amp;nbsp; &amp;nbsp; &amp;nbsp; &lt;/span&gt;&lt;span style=&quot;color: #a31515;&quot;&gt;&quot;id&quot;&lt;/span&gt;&lt;span style=&quot;color: #000000;&quot;&gt;: &lt;/span&gt;&lt;span style=&quot;color: #098658;&quot;&gt;3&lt;/span&gt;&lt;span style=&quot;color: #000000;&quot;&gt;,&lt;/span&gt;&lt;/div&gt;&lt;div&gt;&lt;span style=&quot;color: #000000;&quot;&gt;&amp;nbsp; &amp;nbsp; &amp;nbsp; &amp;nbsp; &lt;/span&gt;&lt;span style=&quot;color: #a31515;&quot;&gt;&quot;title&quot;&lt;/span&gt;&lt;span style=&quot;color: #000000;&quot;&gt;: &lt;/span&gt;&lt;span style=&quot;color: #0451a5;&quot;&gt;&quot;华为小米充电器&quot;&lt;/span&gt;&lt;span style=&quot;color: #000000;&quot;&gt;,&lt;/span&gt;&lt;/div&gt;&lt;div&gt;&lt;span style=&quot;color: #000000;&quot;&gt;&amp;nbsp; &amp;nbsp; &amp;nbsp; &amp;nbsp; &lt;/span&gt;&lt;span style=&quot;color: #a31515;&quot;&gt;&quot;price&quot;&lt;/span&gt;&lt;span style=&quot;color: #000000;&quot;&gt;: &lt;/span&gt;&lt;span style=&quot;color: #098658;&quot;&gt;49&lt;/span&gt;&lt;/div&gt;&lt;div&gt;&lt;span style=&quot;color: #000000;&quot;&gt;&amp;nbsp; &amp;nbsp; }&lt;/span&gt;&lt;/div&gt;&lt;div&gt;&lt;span style=&quot;color: #000000;&quot;&gt;&amp;nbsp; &amp;nbsp; {&lt;/span&gt;&lt;/div&gt;&lt;div&gt;&lt;span style=&quot;color: #000000;&quot;&gt;&amp;nbsp; &amp;nbsp; &amp;nbsp; &amp;nbsp; &lt;/span&gt;&lt;span style=&quot;color: #a31515;&quot;&gt;&quot;id&quot;&lt;/span&gt;&lt;span style=&quot;color: #000000;&quot;&gt;: &lt;/span&gt;&lt;span style=&quot;color: #098658;&quot;&gt;4&lt;/span&gt;&lt;span style=&quot;color: #000000;&quot;&gt;,&lt;/span&gt;&lt;/div&gt;&lt;div&gt;&lt;span style=&quot;color: #000000;&quot;&gt;&amp;nbsp; &amp;nbsp; &amp;nbsp; &amp;nbsp; &lt;/span&gt;&lt;span style=&quot;color: #a31515;&quot;&gt;&quot;title&quot;&lt;/span&gt;&lt;span style=&quot;color: #000000;&quot;&gt;: &lt;/span&gt;&lt;span style=&quot;color: #0451a5;&quot;&gt;&quot;小米手环&quot;&lt;/span&gt;&lt;span style=&quot;color: #000000;&quot;&gt;,&lt;/span&gt;&lt;/div&gt;&lt;div&gt;&lt;span style=&quot;color: #000000;&quot;&gt;&amp;nbsp; &amp;nbsp; &amp;nbsp; &amp;nbsp; &lt;/span&gt;&lt;span style=&quot;color: #a31515;&quot;&gt;&quot;price&quot;&lt;/span&gt;&lt;span style=&quot;color: #000000;&quot;&gt;: &lt;/span&gt;&lt;span style=&quot;color: #098658;&quot;&gt;299&lt;/span&gt;&lt;/div&gt;&lt;div&gt;&lt;span style=&quot;color: #000000;&quot;&gt;&amp;nbsp; &amp;nbsp; }&lt;/span&gt;&lt;/div&gt;&lt;/div&gt;" style="text;whiteSpace=wrap;html=1;" vertex="1" parent="iS4Tr5LypEtX4wtg8Cli-1">
          <mxGeometry x="703.999951171875" y="175.5" width="250" height="342" as="geometry" />
        </mxCell>
      </root>
    </mxGraphModel>
  </diagram>
  <diagram id="4YA-DfpcYkj-op3BA2-P" name="索引">
    <mxGraphModel dx="1235" dy="614" grid="0" gridSize="10" guides="1" tooltips="1" connect="1" arrows="1" fold="1" page="1" pageScale="1" pageWidth="1920" pageHeight="1200" math="0" shadow="0">
      <root>
        <mxCell id="0" />
        <mxCell id="1" parent="0" />
        <mxCell id="o1K1M6QCFSqnLGdZ_QiQ-6" value="" style="group" vertex="1" connectable="0" parent="1">
          <mxGeometry x="555.5" y="58.5" width="279" height="391" as="geometry" />
        </mxCell>
        <mxCell id="o1K1M6QCFSqnLGdZ_QiQ-7" value="" style="group" vertex="1" connectable="0" parent="o1K1M6QCFSqnLGdZ_QiQ-6">
          <mxGeometry width="279" height="391" as="geometry" />
        </mxCell>
        <mxCell id="o1K1M6QCFSqnLGdZ_QiQ-4" value="" style="rounded=1;whiteSpace=wrap;html=1;movable=1;resizable=1;rotatable=1;deletable=1;editable=1;locked=0;connectable=1;fillColor=#ffe6cc;strokeColor=#d79b00;" vertex="1" parent="o1K1M6QCFSqnLGdZ_QiQ-7">
          <mxGeometry width="279" height="391" as="geometry" />
        </mxCell>
        <mxCell id="o1K1M6QCFSqnLGdZ_QiQ-2" value="&lt;div style=&quot;font-family: Consolas, &amp;quot;Courier New&amp;quot;, monospace; font-weight: normal; font-size: 15px; line-height: 16px;&quot;&gt;&lt;div style=&quot;color: rgb(0, 0, 0);&quot;&gt;&lt;span style=&quot;color: rgb(0, 0, 0); background-color: rgb(255, 230, 204);&quot;&gt;&amp;nbsp; &amp;nbsp; {&lt;/span&gt;&lt;/div&gt;&lt;div style=&quot;color: rgb(0, 0, 0);&quot;&gt;&lt;span style=&quot;background-color: rgb(255, 230, 204);&quot;&gt;&lt;span style=&quot;color: #000000;&quot;&gt;&amp;nbsp; &amp;nbsp; &amp;nbsp; &amp;nbsp; &lt;/span&gt;&lt;span style=&quot;color: #a31515;&quot;&gt;&quot;id&quot;&lt;/span&gt;&lt;span style=&quot;color: #000000;&quot;&gt;: &lt;/span&gt;&lt;span style=&quot;color: #098658;&quot;&gt;101&lt;/span&gt;&lt;span style=&quot;color: #000000;&quot;&gt;,&lt;/span&gt;&lt;/span&gt;&lt;/div&gt;&lt;div style=&quot;color: rgb(0, 0, 0);&quot;&gt;&lt;span style=&quot;background-color: rgb(255, 230, 204);&quot;&gt;&lt;span style=&quot;color: #000000;&quot;&gt;&amp;nbsp; &amp;nbsp; &amp;nbsp; &amp;nbsp; &lt;/span&gt;&lt;span style=&quot;color: #a31515;&quot;&gt;&quot;name&quot;&lt;/span&gt;&lt;span style=&quot;color: #000000;&quot;&gt;: &lt;/span&gt;&lt;span style=&quot;color: #0451a5;&quot;&gt;&quot;张三&quot;&lt;/span&gt;&lt;span style=&quot;color: #000000;&quot;&gt;,&lt;/span&gt;&lt;/span&gt;&lt;/div&gt;&lt;div style=&quot;&quot;&gt;&lt;span style=&quot;background-color: rgb(255, 230, 204);&quot;&gt;&lt;span style=&quot;color: rgb(0, 0, 0);&quot;&gt;&amp;nbsp; &amp;nbsp; &amp;nbsp; &amp;nbsp; &lt;/span&gt;&lt;span style=&quot;color: rgb(163, 21, 21);&quot;&gt;&quot;age&quot;&lt;/span&gt;&lt;span style=&quot;color: rgb(0, 0, 0);&quot;&gt;: &lt;/span&gt;&lt;font style=&quot;font-size: 15px;&quot; color=&quot;#098658&quot;&gt;21&lt;/font&gt;&lt;/span&gt;&lt;/div&gt;&lt;div style=&quot;color: rgb(0, 0, 0);&quot;&gt;&lt;span style=&quot;color: rgb(0, 0, 0); background-color: rgb(255, 230, 204);&quot;&gt;&amp;nbsp; &amp;nbsp; }&lt;/span&gt;&lt;/div&gt;&lt;div style=&quot;color: rgb(0, 0, 0);&quot;&gt;&lt;span style=&quot;color: rgb(0, 0, 0); background-color: rgb(255, 230, 204);&quot;&gt;&amp;nbsp; &amp;nbsp; {&lt;/span&gt;&lt;/div&gt;&lt;div style=&quot;color: rgb(0, 0, 0);&quot;&gt;&lt;span style=&quot;background-color: rgb(255, 230, 204);&quot;&gt;&lt;span style=&quot;color: #000000;&quot;&gt;&amp;nbsp; &amp;nbsp; &amp;nbsp; &amp;nbsp; &lt;/span&gt;&lt;span style=&quot;color: #a31515;&quot;&gt;&quot;id&quot;&lt;/span&gt;&lt;span style=&quot;color: #000000;&quot;&gt;: &lt;/span&gt;&lt;span style=&quot;color: #098658;&quot;&gt;102&lt;/span&gt;&lt;span style=&quot;color: #000000;&quot;&gt;,&lt;/span&gt;&lt;/span&gt;&lt;/div&gt;&lt;div style=&quot;color: rgb(0, 0, 0);&quot;&gt;&lt;span style=&quot;background-color: rgb(255, 230, 204);&quot;&gt;&lt;span style=&quot;color: #000000;&quot;&gt;&amp;nbsp; &amp;nbsp; &amp;nbsp; &amp;nbsp; &lt;/span&gt;&lt;span style=&quot;color: #a31515;&quot;&gt;&quot;name&quot;&lt;/span&gt;&lt;span style=&quot;color: #000000;&quot;&gt;: &lt;/span&gt;&lt;span style=&quot;color: #0451a5;&quot;&gt;&quot;李四&quot;&lt;/span&gt;&lt;span style=&quot;color: #000000;&quot;&gt;,&lt;/span&gt;&lt;/span&gt;&lt;/div&gt;&lt;div style=&quot;&quot;&gt;&lt;span style=&quot;background-color: rgb(255, 230, 204);&quot;&gt;&lt;span style=&quot;color: rgb(0, 0, 0);&quot;&gt;&amp;nbsp; &amp;nbsp; &amp;nbsp; &amp;nbsp; &lt;/span&gt;&lt;span style=&quot;color: rgb(163, 21, 21);&quot;&gt;&quot;age&quot;&lt;/span&gt;&lt;span style=&quot;color: rgb(0, 0, 0);&quot;&gt;: &lt;/span&gt;&lt;font style=&quot;font-size: 15px;&quot; color=&quot;#098658&quot;&gt;24&lt;/font&gt;&lt;/span&gt;&lt;/div&gt;&lt;div style=&quot;color: rgb(0, 0, 0);&quot;&gt;&lt;span style=&quot;color: rgb(0, 0, 0); background-color: rgb(255, 230, 204);&quot;&gt;&amp;nbsp; &amp;nbsp; }&lt;/span&gt;&lt;/div&gt;&lt;div style=&quot;color: rgb(0, 0, 0);&quot;&gt;&lt;span style=&quot;color: rgb(0, 0, 0); background-color: rgb(255, 230, 204);&quot;&gt;&amp;nbsp; &amp;nbsp; {&lt;/span&gt;&lt;/div&gt;&lt;div style=&quot;color: rgb(0, 0, 0);&quot;&gt;&lt;span style=&quot;background-color: rgb(255, 230, 204);&quot;&gt;&lt;span style=&quot;color: #000000;&quot;&gt;&amp;nbsp; &amp;nbsp; &amp;nbsp; &amp;nbsp; &lt;/span&gt;&lt;span style=&quot;color: #a31515;&quot;&gt;&quot;id&quot;&lt;/span&gt;&lt;span style=&quot;color: #000000;&quot;&gt;: &lt;/span&gt;&lt;span style=&quot;color: #098658;&quot;&gt;103&lt;/span&gt;&lt;span style=&quot;color: #000000;&quot;&gt;,&lt;/span&gt;&lt;/span&gt;&lt;/div&gt;&lt;div style=&quot;color: rgb(0, 0, 0);&quot;&gt;&lt;span style=&quot;background-color: rgb(255, 230, 204);&quot;&gt;&lt;span style=&quot;color: #000000;&quot;&gt;&amp;nbsp; &amp;nbsp; &amp;nbsp; &amp;nbsp; &lt;/span&gt;&lt;span style=&quot;color: #a31515;&quot;&gt;&quot;name&quot;&lt;/span&gt;&lt;span style=&quot;color: #000000;&quot;&gt;: &lt;/span&gt;&lt;span style=&quot;color: #0451a5;&quot;&gt;&quot;王五&quot;&lt;/span&gt;&lt;span style=&quot;color: #000000;&quot;&gt;,&lt;/span&gt;&lt;/span&gt;&lt;/div&gt;&lt;div style=&quot;color: rgb(0, 0, 0);&quot;&gt;&lt;span style=&quot;background-color: rgb(255, 230, 204);&quot;&gt;&lt;span style=&quot;color: #000000;&quot;&gt;&amp;nbsp; &amp;nbsp; &amp;nbsp; &amp;nbsp; &lt;/span&gt;&lt;span style=&quot;color: #a31515;&quot;&gt;&quot;age&quot;&lt;/span&gt;&lt;span style=&quot;color: #000000;&quot;&gt;: &lt;/span&gt;&lt;span style=&quot;color: #098658;&quot;&gt;49&lt;/span&gt;&lt;/span&gt;&lt;/div&gt;&lt;div style=&quot;color: rgb(0, 0, 0);&quot;&gt;&lt;span style=&quot;color: rgb(0, 0, 0); background-color: rgb(255, 230, 204);&quot;&gt;&amp;nbsp; &amp;nbsp; }&lt;/span&gt;&lt;/div&gt;&lt;div style=&quot;color: rgb(0, 0, 0);&quot;&gt;&lt;span style=&quot;color: rgb(0, 0, 0); background-color: rgb(255, 230, 204);&quot;&gt;&amp;nbsp; &amp;nbsp; {&lt;/span&gt;&lt;/div&gt;&lt;div style=&quot;color: rgb(0, 0, 0);&quot;&gt;&lt;span style=&quot;background-color: rgb(255, 230, 204);&quot;&gt;&lt;span style=&quot;color: #000000;&quot;&gt;&amp;nbsp; &amp;nbsp; &amp;nbsp; &amp;nbsp; &lt;/span&gt;&lt;span style=&quot;color: #a31515;&quot;&gt;&quot;id&quot;&lt;/span&gt;&lt;span style=&quot;color: #000000;&quot;&gt;: &lt;/span&gt;&lt;span style=&quot;color: #098658;&quot;&gt;104&lt;/span&gt;&lt;span style=&quot;color: #000000;&quot;&gt;,&lt;/span&gt;&lt;/span&gt;&lt;/div&gt;&lt;div style=&quot;color: rgb(0, 0, 0);&quot;&gt;&lt;span style=&quot;background-color: rgb(255, 230, 204);&quot;&gt;&lt;span style=&quot;color: #000000;&quot;&gt;&amp;nbsp; &amp;nbsp; &amp;nbsp; &amp;nbsp; &lt;/span&gt;&lt;span style=&quot;color: #a31515;&quot;&gt;&quot;name&quot;&lt;/span&gt;&lt;span style=&quot;color: #000000;&quot;&gt;: &lt;/span&gt;&lt;span style=&quot;color: #0451a5;&quot;&gt;&quot;赵四&quot;&lt;/span&gt;&lt;span style=&quot;color: #000000;&quot;&gt;,&lt;/span&gt;&lt;/span&gt;&lt;/div&gt;&lt;div style=&quot;color: rgb(0, 0, 0);&quot;&gt;&lt;span style=&quot;background-color: rgb(255, 230, 204);&quot;&gt;&lt;span style=&quot;color: #000000;&quot;&gt;&amp;nbsp; &amp;nbsp; &amp;nbsp; &amp;nbsp; &lt;/span&gt;&lt;span style=&quot;color: #a31515;&quot;&gt;&quot;age&quot;&lt;/span&gt;&lt;span style=&quot;color: #000000;&quot;&gt;: &lt;/span&gt;&lt;span style=&quot;color: #098658;&quot;&gt;18&lt;/span&gt;&lt;/span&gt;&lt;/div&gt;&lt;div style=&quot;color: rgb(0, 0, 0);&quot;&gt;&lt;span style=&quot;color: rgb(0, 0, 0); background-color: rgb(255, 230, 204);&quot;&gt;&amp;nbsp; &amp;nbsp; }&lt;/span&gt;&lt;/div&gt;&lt;/div&gt;" style="text;whiteSpace=wrap;html=1;movable=1;resizable=1;rotatable=1;deletable=1;editable=1;locked=0;connectable=1;" vertex="1" parent="o1K1M6QCFSqnLGdZ_QiQ-7">
          <mxGeometry x="14.499951171874955" y="37.5" width="250" height="342" as="geometry" />
        </mxCell>
        <mxCell id="o1K1M6QCFSqnLGdZ_QiQ-5" value="&lt;b&gt;&lt;font color=&quot;#b3b3b3&quot; style=&quot;font-size: 20px;&quot;&gt;用户索引&lt;/font&gt;&lt;/b&gt;" style="text;html=1;strokeColor=none;fillColor=none;align=center;verticalAlign=middle;whiteSpace=wrap;rounded=0;movable=1;resizable=1;rotatable=1;deletable=1;editable=1;locked=0;connectable=1;" vertex="1" parent="o1K1M6QCFSqnLGdZ_QiQ-7">
          <mxGeometry x="87" y="7.5" width="105" height="30" as="geometry" />
        </mxCell>
        <mxCell id="o1K1M6QCFSqnLGdZ_QiQ-8" value="" style="group" vertex="1" connectable="0" parent="1">
          <mxGeometry x="954" y="58.5" width="279" height="428.5" as="geometry" />
        </mxCell>
        <mxCell id="o1K1M6QCFSqnLGdZ_QiQ-9" value="" style="group" vertex="1" connectable="0" parent="o1K1M6QCFSqnLGdZ_QiQ-8">
          <mxGeometry width="279" height="428.5" as="geometry" />
        </mxCell>
        <mxCell id="o1K1M6QCFSqnLGdZ_QiQ-10" value="" style="rounded=1;whiteSpace=wrap;html=1;movable=1;resizable=1;rotatable=1;deletable=1;editable=1;locked=0;connectable=1;fillColor=#FFCCE6;strokeColor=#FFCCFF;" vertex="1" parent="o1K1M6QCFSqnLGdZ_QiQ-9">
          <mxGeometry width="279" height="391" as="geometry" />
        </mxCell>
        <mxCell id="o1K1M6QCFSqnLGdZ_QiQ-11" value="&lt;div style=&quot;font-family: Consolas, &amp;quot;Courier New&amp;quot;, monospace; font-weight: normal; font-size: 12px; line-height: 16px;&quot;&gt;&lt;div style=&quot;color: rgb(0, 0, 0); font-size: 15px;&quot;&gt;&lt;div style=&quot;line-height: 16px;&quot;&gt;&lt;div style=&quot;&quot;&gt;&lt;span style=&quot;background-color: rgb(255, 204, 230);&quot;&gt;&amp;nbsp; &amp;nbsp; {&lt;/span&gt;&lt;/div&gt;&lt;div style=&quot;&quot;&gt;&lt;span style=&quot;background-color: rgb(255, 204, 230);&quot;&gt;&amp;nbsp; &amp;nbsp; &amp;nbsp; &amp;nbsp; &quot;id&quot;: &lt;span style=&quot;color: #098658;&quot;&gt;10&lt;/span&gt;,&lt;/span&gt;&lt;/div&gt;&lt;div style=&quot;&quot;&gt;&lt;span style=&quot;background-color: rgb(255, 204, 230);&quot;&gt;&amp;nbsp; &amp;nbsp; &amp;nbsp; &amp;nbsp; &lt;span style=&quot;color: #a31515;&quot;&gt;&quot;userId&quot;&lt;/span&gt;: &lt;span style=&quot;color: #098658;&quot;&gt;101&lt;/span&gt;,&lt;/span&gt;&lt;/div&gt;&lt;div style=&quot;&quot;&gt;&lt;span style=&quot;background-color: rgb(255, 204, 230);&quot;&gt;&amp;nbsp; &amp;nbsp; &amp;nbsp; &amp;nbsp; &lt;span style=&quot;color: #a31515;&quot;&gt;&quot;goodsId&quot;&lt;/span&gt;: &lt;span style=&quot;color: #098658;&quot;&gt;1&lt;/span&gt;,&lt;/span&gt;&lt;/div&gt;&lt;div style=&quot;&quot;&gt;&lt;span style=&quot;background-color: rgb(255, 204, 230);&quot;&gt;&amp;nbsp; &amp;nbsp; &amp;nbsp; &amp;nbsp; &lt;span style=&quot;color: #a31515;&quot;&gt;&quot;totalFee&quot;&lt;/span&gt;: &lt;span style=&quot;color: #098658;&quot;&gt;294&lt;/span&gt;&lt;/span&gt;&lt;/div&gt;&lt;div style=&quot;&quot;&gt;&lt;span style=&quot;background-color: rgb(255, 204, 230);&quot;&gt;&amp;nbsp; &amp;nbsp; }&lt;/span&gt;&lt;/div&gt;&lt;div style=&quot;&quot;&gt;&lt;span style=&quot;background-color: rgb(255, 204, 230);&quot;&gt;&amp;nbsp; &amp;nbsp; {&lt;/span&gt;&lt;/div&gt;&lt;div style=&quot;&quot;&gt;&lt;span style=&quot;background-color: rgb(255, 204, 230);&quot;&gt;&amp;nbsp; &amp;nbsp; &amp;nbsp; &amp;nbsp; &lt;span style=&quot;color: #a31515;&quot;&gt;&quot;id&quot;&lt;/span&gt;: &lt;span style=&quot;color: #098658;&quot;&gt;11&lt;/span&gt;,&lt;/span&gt;&lt;/div&gt;&lt;div style=&quot;&quot;&gt;&lt;span style=&quot;background-color: rgb(255, 204, 230);&quot;&gt;&amp;nbsp; &amp;nbsp; &amp;nbsp; &amp;nbsp; &lt;span style=&quot;color: #a31515;&quot;&gt;&quot;title&quot;&lt;/span&gt;: &lt;span style=&quot;color: #098658;&quot;&gt;102&lt;/span&gt;,&lt;/span&gt;&lt;/div&gt;&lt;div style=&quot;&quot;&gt;&lt;span style=&quot;background-color: rgb(255, 204, 230);&quot;&gt;&amp;nbsp; &amp;nbsp; &amp;nbsp; &amp;nbsp; &lt;span style=&quot;color: #a31515;&quot;&gt;&quot;goodsId&quot;&lt;/span&gt;: &lt;span style=&quot;color: #098658;&quot;&gt;2&lt;/span&gt;,&lt;/span&gt;&lt;/div&gt;&lt;div style=&quot;&quot;&gt;&lt;span style=&quot;background-color: rgb(255, 204, 230);&quot;&gt;&amp;nbsp; &amp;nbsp; &amp;nbsp; &amp;nbsp; &lt;span style=&quot;color: #a31515;&quot;&gt;&quot;totalFee&quot;&lt;/span&gt;: &lt;span style=&quot;color: #098658;&quot;&gt;328&lt;/span&gt;&lt;/span&gt;&lt;/div&gt;&lt;div style=&quot;&quot;&gt;&lt;span style=&quot;background-color: rgb(255, 204, 230);&quot;&gt;&amp;nbsp; &amp;nbsp; }&lt;/span&gt;&lt;/div&gt;&lt;/div&gt;&lt;/div&gt;&lt;/div&gt;" style="text;whiteSpace=wrap;html=1;movable=1;resizable=1;rotatable=1;deletable=1;editable=1;locked=0;connectable=1;" vertex="1" parent="o1K1M6QCFSqnLGdZ_QiQ-9">
          <mxGeometry x="26" y="82.25" width="231" height="226.5" as="geometry" />
        </mxCell>
        <mxCell id="o1K1M6QCFSqnLGdZ_QiQ-12" value="&lt;b&gt;&lt;font color=&quot;#b3b3b3&quot; style=&quot;font-size: 20px;&quot;&gt;订单索引&lt;/font&gt;&lt;/b&gt;" style="text;html=1;strokeColor=none;fillColor=none;align=center;verticalAlign=middle;whiteSpace=wrap;rounded=0;movable=1;resizable=1;rotatable=1;deletable=1;editable=1;locked=0;connectable=1;" vertex="1" parent="o1K1M6QCFSqnLGdZ_QiQ-9">
          <mxGeometry x="87" y="7.5" width="105" height="30" as="geometry" />
        </mxCell>
        <mxCell id="o1K1M6QCFSqnLGdZ_QiQ-13" value="" style="group" vertex="1" connectable="0" parent="1">
          <mxGeometry x="170" y="58.5" width="279" height="391" as="geometry" />
        </mxCell>
        <mxCell id="o1K1M6QCFSqnLGdZ_QiQ-14" value="" style="group" vertex="1" connectable="0" parent="o1K1M6QCFSqnLGdZ_QiQ-13">
          <mxGeometry width="279" height="391" as="geometry" />
        </mxCell>
        <mxCell id="o1K1M6QCFSqnLGdZ_QiQ-15" value="" style="rounded=1;whiteSpace=wrap;html=1;movable=1;resizable=1;rotatable=1;deletable=1;editable=1;locked=0;connectable=1;fillColor=#dae8fc;strokeColor=#6c8ebf;" vertex="1" parent="o1K1M6QCFSqnLGdZ_QiQ-14">
          <mxGeometry width="279" height="391" as="geometry" />
        </mxCell>
        <mxCell id="o1K1M6QCFSqnLGdZ_QiQ-16" value="&lt;div style=&quot;color: rgb(0, 0, 0); font-family: Consolas, &amp;quot;Courier New&amp;quot;, monospace; font-weight: normal; font-size: 15px; line-height: 16px;&quot;&gt;&lt;div style=&quot;&quot;&gt;&lt;span style=&quot;color: rgb(0, 0, 0); background-color: rgb(221, 234, 255);&quot;&gt;&amp;nbsp; &amp;nbsp; {&lt;/span&gt;&lt;/div&gt;&lt;div style=&quot;&quot;&gt;&lt;span style=&quot;background-color: rgb(221, 234, 255);&quot;&gt;&lt;span style=&quot;color: #000000;&quot;&gt;&amp;nbsp; &amp;nbsp; &amp;nbsp; &amp;nbsp; &lt;/span&gt;&lt;span style=&quot;color: #a31515;&quot;&gt;&quot;id&quot;&lt;/span&gt;&lt;span style=&quot;color: #000000;&quot;&gt;: &lt;/span&gt;&lt;span style=&quot;color: #098658;&quot;&gt;1&lt;/span&gt;&lt;span style=&quot;color: #000000;&quot;&gt;,&lt;/span&gt;&lt;/span&gt;&lt;/div&gt;&lt;div style=&quot;&quot;&gt;&lt;span style=&quot;background-color: rgb(221, 234, 255);&quot;&gt;&lt;span style=&quot;color: #000000;&quot;&gt;&amp;nbsp; &amp;nbsp; &amp;nbsp; &amp;nbsp; &lt;/span&gt;&lt;span style=&quot;color: #a31515;&quot;&gt;&quot;title&quot;&lt;/span&gt;&lt;span style=&quot;color: #000000;&quot;&gt;: &lt;/span&gt;&lt;span style=&quot;color: #0451a5;&quot;&gt;&quot;小米手机&quot;&lt;/span&gt;&lt;span style=&quot;color: #000000;&quot;&gt;,&lt;/span&gt;&lt;/span&gt;&lt;/div&gt;&lt;div style=&quot;&quot;&gt;&lt;span style=&quot;background-color: rgb(221, 234, 255);&quot;&gt;&lt;span style=&quot;color: #000000;&quot;&gt;&amp;nbsp; &amp;nbsp; &amp;nbsp; &amp;nbsp; &lt;/span&gt;&lt;span style=&quot;color: #a31515;&quot;&gt;&quot;price&quot;&lt;/span&gt;&lt;span style=&quot;color: #000000;&quot;&gt;: &lt;/span&gt;&lt;span style=&quot;color: #098658;&quot;&gt;3499&lt;/span&gt;&lt;/span&gt;&lt;/div&gt;&lt;div style=&quot;&quot;&gt;&lt;span style=&quot;color: rgb(0, 0, 0); background-color: rgb(221, 234, 255);&quot;&gt;&amp;nbsp; &amp;nbsp; }&lt;/span&gt;&lt;/div&gt;&lt;div style=&quot;&quot;&gt;&lt;span style=&quot;color: rgb(0, 0, 0); background-color: rgb(221, 234, 255);&quot;&gt;&amp;nbsp; &amp;nbsp; {&lt;/span&gt;&lt;/div&gt;&lt;div style=&quot;&quot;&gt;&lt;span style=&quot;background-color: rgb(221, 234, 255);&quot;&gt;&lt;span style=&quot;color: #000000;&quot;&gt;&amp;nbsp; &amp;nbsp; &amp;nbsp; &amp;nbsp; &lt;/span&gt;&lt;span style=&quot;color: #a31515;&quot;&gt;&quot;id&quot;&lt;/span&gt;&lt;span style=&quot;color: #000000;&quot;&gt;: &lt;/span&gt;&lt;span style=&quot;color: #098658;&quot;&gt;2&lt;/span&gt;&lt;span style=&quot;color: #000000;&quot;&gt;,&lt;/span&gt;&lt;/span&gt;&lt;/div&gt;&lt;div style=&quot;&quot;&gt;&lt;span style=&quot;background-color: rgb(221, 234, 255);&quot;&gt;&lt;span style=&quot;color: #000000;&quot;&gt;&amp;nbsp; &amp;nbsp; &amp;nbsp; &amp;nbsp; &lt;/span&gt;&lt;span style=&quot;color: #a31515;&quot;&gt;&quot;title&quot;&lt;/span&gt;&lt;span style=&quot;color: #000000;&quot;&gt;: &lt;/span&gt;&lt;span style=&quot;color: #0451a5;&quot;&gt;&quot;华为手机&quot;&lt;/span&gt;&lt;span style=&quot;color: #000000;&quot;&gt;,&lt;/span&gt;&lt;/span&gt;&lt;/div&gt;&lt;div style=&quot;&quot;&gt;&lt;span style=&quot;background-color: rgb(221, 234, 255);&quot;&gt;&lt;span style=&quot;color: #000000;&quot;&gt;&amp;nbsp; &amp;nbsp; &amp;nbsp; &amp;nbsp; &lt;/span&gt;&lt;span style=&quot;color: #a31515;&quot;&gt;&quot;price&quot;&lt;/span&gt;&lt;span style=&quot;color: #000000;&quot;&gt;: &lt;/span&gt;&lt;span style=&quot;color: #098658;&quot;&gt;4999&lt;/span&gt;&lt;/span&gt;&lt;/div&gt;&lt;div style=&quot;&quot;&gt;&lt;span style=&quot;color: rgb(0, 0, 0); background-color: rgb(221, 234, 255);&quot;&gt;&amp;nbsp; &amp;nbsp; }&lt;/span&gt;&lt;/div&gt;&lt;div style=&quot;&quot;&gt;&lt;span style=&quot;color: rgb(0, 0, 0); background-color: rgb(221, 234, 255);&quot;&gt;&amp;nbsp; &amp;nbsp; {&lt;/span&gt;&lt;/div&gt;&lt;div style=&quot;&quot;&gt;&lt;span style=&quot;background-color: rgb(221, 234, 255);&quot;&gt;&lt;span style=&quot;color: #000000;&quot;&gt;&amp;nbsp; &amp;nbsp; &amp;nbsp; &amp;nbsp; &lt;/span&gt;&lt;span style=&quot;color: #a31515;&quot;&gt;&quot;id&quot;&lt;/span&gt;&lt;span style=&quot;color: #000000;&quot;&gt;: &lt;/span&gt;&lt;span style=&quot;color: #098658;&quot;&gt;3&lt;/span&gt;&lt;span style=&quot;color: #000000;&quot;&gt;,&lt;/span&gt;&lt;/span&gt;&lt;/div&gt;&lt;div style=&quot;&quot;&gt;&lt;span style=&quot;background-color: rgb(221, 234, 255);&quot;&gt;&lt;span style=&quot;color: #000000;&quot;&gt;&amp;nbsp; &amp;nbsp; &amp;nbsp; &amp;nbsp; &lt;/span&gt;&lt;span style=&quot;color: #a31515;&quot;&gt;&quot;title&quot;&lt;/span&gt;&lt;span style=&quot;color: #000000;&quot;&gt;: &lt;/span&gt;&lt;span style=&quot;color: #0451a5;&quot;&gt;&quot;华为小米充电器&quot;&lt;/span&gt;&lt;span style=&quot;color: #000000;&quot;&gt;,&lt;/span&gt;&lt;/span&gt;&lt;/div&gt;&lt;div style=&quot;&quot;&gt;&lt;span style=&quot;background-color: rgb(221, 234, 255);&quot;&gt;&lt;span style=&quot;color: #000000;&quot;&gt;&amp;nbsp; &amp;nbsp; &amp;nbsp; &amp;nbsp; &lt;/span&gt;&lt;span style=&quot;color: #a31515;&quot;&gt;&quot;price&quot;&lt;/span&gt;&lt;span style=&quot;color: #000000;&quot;&gt;: &lt;/span&gt;&lt;span style=&quot;color: #098658;&quot;&gt;49&lt;/span&gt;&lt;/span&gt;&lt;/div&gt;&lt;div style=&quot;&quot;&gt;&lt;span style=&quot;color: rgb(0, 0, 0); background-color: rgb(221, 234, 255);&quot;&gt;&amp;nbsp; &amp;nbsp; }&lt;/span&gt;&lt;/div&gt;&lt;div style=&quot;&quot;&gt;&lt;span style=&quot;color: rgb(0, 0, 0); background-color: rgb(221, 234, 255);&quot;&gt;&amp;nbsp; &amp;nbsp; {&lt;/span&gt;&lt;/div&gt;&lt;div style=&quot;&quot;&gt;&lt;span style=&quot;background-color: rgb(221, 234, 255);&quot;&gt;&lt;span style=&quot;color: #000000;&quot;&gt;&amp;nbsp; &amp;nbsp; &amp;nbsp; &amp;nbsp; &lt;/span&gt;&lt;span style=&quot;color: #a31515;&quot;&gt;&quot;id&quot;&lt;/span&gt;&lt;span style=&quot;color: #000000;&quot;&gt;: &lt;/span&gt;&lt;span style=&quot;color: #098658;&quot;&gt;4&lt;/span&gt;&lt;span style=&quot;color: #000000;&quot;&gt;,&lt;/span&gt;&lt;/span&gt;&lt;/div&gt;&lt;div style=&quot;&quot;&gt;&lt;span style=&quot;background-color: rgb(221, 234, 255);&quot;&gt;&lt;span style=&quot;color: #000000;&quot;&gt;&amp;nbsp; &amp;nbsp; &amp;nbsp; &amp;nbsp; &lt;/span&gt;&lt;span style=&quot;color: #a31515;&quot;&gt;&quot;title&quot;&lt;/span&gt;&lt;span style=&quot;color: #000000;&quot;&gt;: &lt;/span&gt;&lt;span style=&quot;color: #0451a5;&quot;&gt;&quot;小米手环&quot;&lt;/span&gt;&lt;span style=&quot;color: #000000;&quot;&gt;,&lt;/span&gt;&lt;/span&gt;&lt;/div&gt;&lt;div style=&quot;&quot;&gt;&lt;span style=&quot;background-color: rgb(221, 234, 255);&quot;&gt;&lt;span style=&quot;color: #000000;&quot;&gt;&amp;nbsp; &amp;nbsp; &amp;nbsp; &amp;nbsp; &lt;/span&gt;&lt;span style=&quot;color: #a31515;&quot;&gt;&quot;price&quot;&lt;/span&gt;&lt;span style=&quot;color: #000000;&quot;&gt;: &lt;/span&gt;&lt;span style=&quot;color: #098658;&quot;&gt;299&lt;/span&gt;&lt;/span&gt;&lt;/div&gt;&lt;div style=&quot;&quot;&gt;&lt;span style=&quot;color: rgb(0, 0, 0); background-color: rgb(221, 234, 255);&quot;&gt;&amp;nbsp; &amp;nbsp; }&lt;/span&gt;&lt;/div&gt;&lt;/div&gt;" style="text;whiteSpace=wrap;html=1;movable=1;resizable=1;rotatable=1;deletable=1;editable=1;locked=0;connectable=1;" vertex="1" parent="o1K1M6QCFSqnLGdZ_QiQ-14">
          <mxGeometry y="37.5" width="274.5" height="342" as="geometry" />
        </mxCell>
        <mxCell id="o1K1M6QCFSqnLGdZ_QiQ-17" value="&lt;b&gt;&lt;font color=&quot;#b3b3b3&quot; style=&quot;font-size: 20px;&quot;&gt;商品索引&lt;/font&gt;&lt;/b&gt;" style="text;html=1;strokeColor=none;fillColor=none;align=center;verticalAlign=middle;whiteSpace=wrap;rounded=0;movable=1;resizable=1;rotatable=1;deletable=1;editable=1;locked=0;connectable=1;" vertex="1" parent="o1K1M6QCFSqnLGdZ_QiQ-14">
          <mxGeometry x="87" y="7.5" width="105" height="30" as="geometry" />
        </mxCell>
      </root>
    </mxGraphModel>
  </diagram>
  <diagram id="v1GaFF5Nw6lOH8fSfNow" name="第 5 页">
    <mxGraphModel dx="1500" dy="796" grid="0" gridSize="10" guides="1" tooltips="1" connect="1" arrows="1" fold="1" page="1" pageScale="1" pageWidth="1920" pageHeight="1200" math="0" shadow="0">
      <root>
        <mxCell id="0" />
        <mxCell id="1" parent="0" />
        <mxCell id="eb94AXTbarmzmmSSwvkA-4" value="" style="shape=image;verticalLabelPosition=bottom;labelBackgroundColor=default;verticalAlign=top;aspect=fixed;imageAspect=0;image=data:image/png,iVBORw0KGgoAAAANSUhEUgAAAvsAAAESCAYAAABjIhqZAAAgAElEQVR4AeydCWwUV77uI97VjK7m6V3NjOZp5o7uG91JNDcTvTgZ3SQzIDKJIVHMkgAJSSBEBEhCYiA22OyYHQNm383qgNnB7GY3YOP2ghvjlXbb2G28gRuveMXr9151d1VXV2/V2IAbPqSmzvI/2++c0/3VqVPHL4H/SIAESIAESIAESIAESIAEnksCLz2XrWKjSIAESIAESIAESIAESIAEQLHPQUACJEACJEACJEACJEACzykBiv3ntGPZLBIgARIgARIgARIgARKg2OcYIAESIAESIAESIAESIIHnlADF/nPasWwWCZAACZAACZAACZAACVDscwyQAAmQAAmQAAmQAAmQwHNKgGL/Oe1YNosESIAESIAESIAESIAEKPY5BkiABEiABEiABEiABEjgOSVAsf+cdiybRQIkQAIkQAIkQAIkQAIU+xwDJEACJEACJEACJEACJPCcEqDYf047ls0iARIgARIgARIgARIgAYXYf4RHV35G8bjR0L//MfSf/Iii9VfQ3GwBVXgI+b39kNNngN1H1/sHPCh8EkCNqD9yCDV6sRJPogzmSQIkQAIkQAIkQAIkQALPHwGZ2O9Ey7n50Pf5HIVrjqMmLhG1J3ejaNgg5C5KRLvQ9qb7aNSmoV74RK9BXu9vUBpt8Wtz0NL0JABl494gP9w9VfMkMmeeJEACJEACJEACJEACJPDcErCK/dYMlA0eCEPkXXTKm1t4BAV9J6KiVB4IwLTK/6RW8+VlUezLadBNAiRAAiRAAiRAAiRAAmoJWMW+fg/yes9FTYMsaUcHgHwYPx+E0njT2r410qXYb0VL0j4UfzsGet9hyBu7GMbkCtubiA4j6rYuQMGQT5HTZxD0Q39CSWQGWsUSbqxHjrMtQ+OPoUW045UESIAESIAESIAESIAESMAhAavYT1yLnMFbYdb6D1C7fCL0fQchN3gXSr/zQ1F0nW0GLsR+Z95e5PcdDsP6aNRqNKhaHwR9X38Y71hvGFqjQ5Dznj/KTiSgXnsTtVErkf/uUJRcsZRTY0B9QgrqEo6i6EM/FKy5ijqTPwV1mfcg3IbwHwmQAAmQAAmQAAmQAAmQgHMCVrEfvxK6z3fDtO0+aydy+36PsuibqI9eh/x3BbH/0DYXF2K/Yf0I6Cadsa7SoxpVE/2Quz5TysNkExiNNimkGS0ZKWgoVNxUgNt4JER0kAAJkAAJkAAJkAAJkIAHBByK/fYLC6Abe9iyVaYMD8Z6IvabUTPDD/qVWnQ0NUuf+pVfQDcjRlqRN63s+/6A0siLqE3KQlPpQ9ttPlIjKPYlFHSQAAmQAAmQAAmQAAmQgAcEHIr9tugQ6KR98UZUjPdE7DegOtjJ8ZzBF82n+ggVbDeiLiIMhWPGQP/eAOh6D4T+2y2oq1TWnmJfSYR+EiABEiABEiABEiABElBDwKHYbz8/H7pvj1pW9u+j4ls/FF9stM3P6TYey8r+/LNozM6x/RTWOF6973iE1jtXUTrcD3nhettyuI1HwYNeEiABEiABEiABEiABElBHwKHYR/Yu5L4/FRX6KrTmHEHh+1+jPEeRoVOxDwj78XNmX5O27ADtaDVko6FY3PffieZLESi/aJBl2om60I+hm69R3BDocP9jPxQeq5DZ0kkCJEACJEACJEACJEACJOCOgFXsJ69DzsfbYF6/r0Tt0u9MR1/qen+M/OUJspdtLVm6EPvm03hGoWj7BTxMvIGaAyuQ//5QFJ2vlurz6GAgcvoF4N6pRNNpPA9Ph8PQfyAMh8okG7OjBtWTByFn/DbUaITTeVJQl/NAcUOgSEIvCZAACZAACZAACZAACZAArGI/fx/u9A6RnbPfirayu2i+V+dYWLsQ+4Bwzv5eFI8zn7OfO3IGyo7lWPfrC+BbSlG7IQT5nwwzn7P/yQ8o2qhBi3TQvrV3OgwXUfrtSOj7mt8F0E23vuhrtaKLBEiABEiABEiABEiABEhATsAq9jv0KB82EAUR+Y7FvTwV3SRAAiRAAiRAAiRAAiRAAj2egFXsA2jTrEZe309hWHYY1de0qNemobFU8WJuj28SK0gCJEACJEACJEACJEACJCAQsBH7QAdatFEo/el75PYfhJw+A5C/M5+kSIAESIAESIAESIAESIAEvJCAQux7YQtYZRIgARIgARIgARIgARIgAYcEKPYdYmEgCZAACZAACZAACZAACXg/AYp97+9DtoAESIAESIAESIAESIAEHBKg2HeIhYEkQAIkQAIkQAIkQAIk4P0EKPa9vw/ZAhIgARIgARIgARIgARJwSIBi3yEWBpIACZAACZAACZAACZCA9xOg2Pf+PmQLSIAESIAESIAESIAESMAhAYp9h1gYSAIkQAIkQAIkQAIkQALeT4Bi3/v7kC0gARIgARIgARIgARIgAYcEKPYdYmEgCZAACZAACZAACZAACXg/AYp97+9DtoAESIAESIAESIAESIAEHBKg2HeIhYEkQAIkQAIkQAIkQAIk4P0EKPa9vw/ZAhIgARIgARIgARIgARJwSIBi3yEWBpIACZAACXhMoL0Vj1rbPU7GBCRAAiRAAk+OwBMW+53obG17crVnziTwLAi0ViDzchSuF8kKL9Lg8OVsVLTKwugkgSdEoL21E51PKO/HybbTmIT1k4bhLR8f9F2R9jhZMA0JkAAJkMATIvBExX7rhQXQ9x6G4guVKqrfgOpgP+jDbqqwVZo0QxdVCG3e01hRcl1WXXQ6AvvF2X02RbcoK+2hvxWJM2MxdbUalp5lrVsdb63vAA2WBOuh0b9IqtV1n8ppNuiPYvKAt/DKO59ju04Wo4vAkHd88NqAaTikb5BFPI7TiPojh1Cjb3aYuD5sGHTBF/E0RrvDCjyhQHVzpxPVWgN2+CdjxiANFvhn4Zy22YbF/f1a63iWzcWAScWofkJ1755s1Y3DmkuZmOYbj22XHnVPsV3OpQEXgv+B//p4Lo5oUpFd1tXx3+UKMQMSIAESIAEZgScr9mOWI9d3JEpj1PzEdkXs1+DosFh0XVDLyDh1ui6r7UEd9KlV0J/VYa5vIvaerTL5ix90OM1RXcSTFfsBE+4gI7UKOs09RM9NwuRBaUgoV1cz77dy3adi+zrLTmP8P95A/6nHkNvgYF21IQ9Hpw7EX/4xCSfLHMSLGbm9ZuPeID/cPVXj0PJ5Fftq5k5H4V2E9ddg1YZSpCUYcX1DKqb11+JSoZW3IPYDRuUgWZiH8o++GV295XbYId0WqG4c1l7NxpwBCdh9tae0xoAtn7yOYbsKu40EMyIBEiABEug+Ak9U7HtWzedD7EttNhiw2PcGzhmkkC46nrDYn1mGJrGGrbWIGhmL0D31YshzflUjspoQM7MP/vLpVuS5eujRmouNQ33w1qxraHxsai+m2JdwuZg7xRHJCBhfCKNk3IAL42OxKKJOCjGJfRsbKaqHO9SMw57YhDJEjHgdH2yQP+rqifVknUiABEjgxSRgFfsNsSh+bwDuRtuuJrZfXIic9xajVnoy24oWzR4Ujx0Dff/hyBu3CMaEcpv9o62nZiGnzwDpc2dbrgO6DWg8HAbDsM+gHzwRJcczUDXVw208Wj2m+MaqeGTfgaoblkf/A+IR8kMmzqXYPvpHRzMyd2Zi2ecaTO4Xh2lfaBFxoBqShFBdlqWpLgSLsG0mYGYJdEczETo0HtO/1GJ3VK1CHLaiMOo2wr7UYOqnWkScqsH1WcptPO7a1QzNtHhMnlQEo/hgobMRVwKuIzioFFWWxVBzfWRiHx3QLohF4FKjrF87UJFQgG0/JJm2T8z/MRPRSU2wfSOjEzWpd7H7p2TMGhSPOWPScOBULaShAyBjeRwC5pXDqpc7oJ0Xi8DlD8zgakqx3jcdJ/ZnIGRwEnacr4N+mxYzPknGjugG2XYNd20H3HL2pE9briHI5w38eKrWwVi2Dao+Pgmv+MzCFU8XXm+sR05vP2neyOeQbvwxaVXavLJ/EvUHFyJ/wDDohwWg9FCOjA2AhDXI6b0Y1beiUDTqc+g/+hqG+VFolAa0UGfXc7nlaBB0s67CNHQytkHf+0vczxDSdaIu9GMURln6rMOIuq0LUDDkU+T0GQT90J9QEpkh62NbPm59TudOJ9KXxiFgsXxcduLWYtux6l7sq5sXQjvdjWdA/TjUn8jG8mHxmP6FFruPyOa7ynGo3Oa0cOdDByjdz1O388JBrq6DGnFy4uvwWZDg2oyxJEACJEACz4SAVeyjATXTBiFn1hWZaHiE2nmfIGd6jBTWmbMH+X0+R+HGaDzUaFC1cSr0fX+AUbbHu9N4B/XaNNRrr6HsKz84EvsdKRuR23sE7m69gIeaeFQuXYKCER6K/Zp63E6uQFZyEbYOjsXyDeXIMvkrkJXVKImjtjsGLO2vwZrNlkf/m1Mxo78W5wusj/5rz2VgykdaHDhthO5mJdKO67Dkg3jsumaRpSrLknrRqWCxiNDRWmxfXoRUjRHX19/ENN8EHNRapfOjm3rM8U3Axp1lyEgw4kpYFsK+sRX7atrVWVqCNR/FY+tF8/7e2suZmPbhTVwptrbdXuwDaaGxCFhklPq9TV+AJf00WBdeivQEI+LDb2Fm/xRE54l3EUC7oRBhH8Rj+YoipCY8QMr+LCzsr8FW2d5idWJfg/U77yM1Ig3BQ5OxO9KI5LVaBAzKgc5SnJq2m9rlirMnfWqIwOBXh2BLntTDzh252/DRq8Oxw9NdDTUG1CekoC7hKIo+9EPBmquoM/lTUJd5zyy6AZjE/pcTULz4GGrjNahaHQh97xEoS5GezVjE/vcwLNqEqthkPDy1HYaP/JC3LkO6gXM7lxPXIuebgxBGTtvp2cj9eCTunhFudipROWEoylLMY6g1OgQ57/mj7EQC6rU3URu1EvnvDkXJFZs7C+e8lDFO504nUhfFIiDUuq4vJFWOVZPY/86A0qZ2PJJ92qxDFWrmhZrx7Mk43BFWjFsJD5CwIw2zTPPd8taFynEobXNKLcehsbFwJPbVzFO380LZHyr8MTN98PK0GGmMqkhCExIgARIggadEQCb2gbboEOh8l+Oh+N5XqxalHwxEUbR1NbNh3QjoJp2RrdpVo2qiH3LXZzqoshEV4x2L/Yb1I6CbcNKaT4ce5Z95KPalEl0//r6zOQEBU0phbUUL4ibHYvZm61MMk01wKawbV9rxILMC+rvWNWhzca7LkqrkVLBYxP6IPBjENyw76xE9JhYh4Yr6BJZACumoxfGRtmJfTbuE1cmyfVoEfqZD9oMq7Bseh+WRdZKIF+qrRuznqWBYuCMJAd8ZUC7dR3RCt1qDgBll0lMLdWI/BRfuAqgpw0bfdCQIHVdYiFDfNCRYgKhpu6ldbjir7tPbm/D+q6Ox977Uw84d9w/ii1f9sO62cxPXMSq28QzbhkZp/BTC+JUf8jbJCjSt7H8Po+yGtjliPHQjIiG+9ut2LhcfQYHvWtOcaNj4NUrmLbGUcRv3Bweg8p65Faa5HBgte8rTjJaMFDQUPjuxr3xJPsA3HodT5dTdzws141n1OBx5B3elm41HuBZg+/1jrpnK7xY048okx2JfzTxVPy/kvJTuDrQ2N6GxsQHVxRosGvwmRu4rURrRTwIkQAIk0AMI2Ih9VEajsM+nKEs2C9zO1C3Q95mGKukAmGbUzPCDfqXNrybqV34K3QxHqzrOxH4Hauf5IWdRogxBA6qDnoTYb8eNkFjMXFdps8p3e50GASH3pdV/YWV/sl8K9uwvw60bNSgpa5GJF1k1ofIH2Z3Yn24VwEA7UubGYnKYZVsEzCuYgctEv1B+KxJmyMW+unaZat7yEKfGxWHh6GQEjr6DQsX2Evdi31zWtLVVchDIWStn2IlbS2IRsES+xcLG3ORRJ/a1uFwKoOEewn0zkCzsAyotwnLfNGhMYl9d203tcslZrJ+KPs3ehPc8FPtrs8X8Pb2qEPtTzstu2B6hZqYfcpYkWQsyif2FqBFv3IXV+QuLoR8SbtlWpWIut2pQ0nc6qqsbUD1lPIznI3En6ALaG6+g6P1VqLOIV9PKvu8PKI28iNqkLDSVPpSeHlgr5IHL6dzxYGV/tB63dLUwSJ+HqJDvJxOq43JeqBnPHoxD2Q2vUHTGsjjTkzNJ/5vwqBiHJjtnYl/NPLXc3KuaF6bCnPynx1q/1/HKX33w8ht++HbLDevChJMUDCYBEiABEng2BGzFPipQ+aMfcteaNuaiYfNo6PxPSoIYsLxEu8r2HOX6VcOdHAXoTOy3o3auH3IWK8T+Yx+96epH0vxiq3KlT/AHyF9KbW9GVuRtbBifhBkfxSLANw4z/HORLd3oiB3kqizRBoBTweJoJV2xb10U++I+dlO2yhd0VbbLUqXyA+bjCJfvUyoeR/VRbo0wlzVjva3Y16/XyBg6FmIyIiZn94h9dW23v4lRchZrp6JPH0PsP9GVfZujN1tQM0sxnyx79msVN3Zii9XN5UIYR3yN8hw97g8LRW3NFRQN3YHGgv3IH3vY+r3QbkRdRBgKx4yB/r0B0PUeCP23W1BnN3espbt0OZ07jseYw208Kl/QdT4vHJdlW+/HHYeWd1dk2+TM+aoYhyZDZ2JfzTx1NN+dzQvb1tr6mnBPn4mMjHTciNmF8e+9j2kx0nNIW1P6SIAESIAEnikBhdgHWg4EQDdsJxphgPFLPxgOlskqqGI1UGYNOBP7z2Blf0mpbJXPsuJX1OJ4j2lHO+oKyhH5VSzm77Bu/jE3TeUPslPBoubH1iw0VK3sq2lXdTm2fXIda6bdQtAnmdAqTkJ1KIptXtBVs2LoeCW0s70DrbI/AJQVdh0Bc61PVMSnGlPCKix4hRd0Va7su2m7w3bJXwaWxqqKPs3bDr9XP8N2NacrFezEwFeHIjxfKsBDh4qV/S6LfTVzWXhiMBAlp8/irmn7jx7lQ0NQc3EV9As1jlfvOx6h9c5VlA73Q1643sN2W8ydzp3uekHXUo7LeaFmPFtW9tWMQ0cr+4uNiu8fFePQVHVnYl/NPFXz/eN5twl79v8y3dHTXc/zYgoSIAESIIHuJWAn9nH3MAp6/4AHmmMw9PbHA/lfCRV2VmwYab9nf5IfcjdkOaiZM7EPmPYLd9ue/VpEDY/F+pOyPQuy2gj7aifPLze9aGgO7kStoQaGEuuyZ2lMPk7F1NsImMyw6whcovxBdl2WVKxTwaLux9a091bFnn137QJakBaagMDxBpS11OPc+DjMDjXanJBjJ4rFozcjrW8w5G8xv/dgPf+jBXFTYjFni3U1T9zjfF/as9+B7FXm1X/xGMrSPSkIGF2AUtGmow6nRsdiqViW6TQed2IfUNOndu0SThlyKPZV9GnDWfz417cwLUbc8S71tJ2j8fJM/PW1QETbP0Sxs3UcoMP9j/1QeMxyA6Qwsj9n/3FW9tXN5cYto2GYtRh5s6+hA/WonjwapQuCUbBbfPu4E82XIlB+UX4XZD6tRzffyQ2Boj12Xhdzp2iX8ujNRlx8rKM33c8LNeNZ9Th0sGdfPnfMDFSMQ5OhM7EPqJmn6ueFXc84CXiEM4Gv468h153EM5gESIAESOBZErAX+yiEcaQfCsb9BN3IvdLLfGIlO/WRyO/zBQo3n8VDTQKqN0+Dvs8PMOaKL7J2oPWOcBKP9TSe3AXRFn8ami3asCNlg/k0nm3iaTwLkD/8cffst0AzLQ5TJuZBmyiczlOBLH2ztGpmPjEjEeERZchIroD2sA6hfvHYeskq9o1HbyJw4E0ciX4AXWolMqJzsXJQHFZFiTJVJOCmLBV/VEvNj+0jrR6zfROwSTiNJ9GIq2GZCP1KvmcfUNOuxhQ9QnyTcTzL/DZnS9YdLPRNxIEUsb8sNx8O/qiWRvZHtdryDAjtp8H6raVITzRCszUNM/vZnsbTVlCI5f2F03iKkZpoPY1n22XrTVhHURFWfBCPsNUluJVgxLWVWgTLTwdSKfbVtF0NZ3Ovuu5Ts00lDn/3JnwmnIJjCS6OjwpE/fgOXv3+mBs70d7RtQbVkwchZ/w21GiE03lSUJfzQLoR7S6x734uA21n5kA/4HPk7zA/phBu0nMHj0CJ7FzRRwcDkdMvAPdOJZpO43l4OhyG/gNhOCR/KuionbZh0mkzLv4gnXBCzvL+GqzeZB6H8ZtSMb2/FhcN4t0joOaPaqmZF2rGs+pxOEaLncJpPInW03gO3RTfsBY5uBqHnajJF/9ImPk0njmhpdIfDSuzfK+qmafq54VYL3dXIyJHvY731zo6pMFdWsaTAAmQAAk8aQIOxD7QuG2c6azvO9scnTPYipaESBSP/Qb6fsORN1Z5zn4zaqY7PitcODe8NF5sUh0aD4bBMORT6Af+iOJDN1H52Hv2gVZDGfb4JyC4v/nc/YA592Qr+ZazsH9MwowB8ZgtnP9+UnbOtVCllkakbslA6PB48zn7w1MQHm6E0aqJxYq7LEt5Frb4roD8r/uq+7FtheHobYR9rkHw0BTsiKrCtZm2Yl8649tZu5pqcGRkLOasqLD+wSy0ISssAQEjc5FnOalRqI9Yz0A/DRZP0eN6jrLhHahMMmC7cM7+QA3m/+D4nP1qbSEiJiZj5sB4zP7G/px94XSgaq0BO4U6D9JgwYRsXEx9ZH3ZVKXYd9t2h6cMOVvZdzd+zF3fnLEBfq/1xjc7slBn1ZbSuEBnHTJ2fI+/vTYEqzOsNzhWA/WuDsNFlH47Evq+5rmkk22R6C6xbzpn3+VcFs61DIe+tx+KL5kHS+vx6dD1HgfjHVlbWkpRuyEE+Z8MM5+z/8kPKNqoQYtyCMmSOHKqmTtCv1cmG7BDGD/COBT+3kOy7d97EMS+NJ77xUnugEnFMO1gUzkvzGPV3Xh2/91imu9zSqGPysLSofGY9rkWPx+x/fsTIg/n32PtSJ7j+G+KCG2N1Ig5uJ+n6r5/xPzUXAuw+ePX8WmEcIQW/5EACZAACfQ0Ag7Ffk+rJOtDAj2DQDuKz83HgDffRJ+RCxAt3+JWdB6zR/bDf705BLPPlzg5yalntIK1eLoETOJ61j3ZDffTLf/Jl1aNI9+/AZ9vf0aGsQ5NrconFk++BiyBBEiABEjAOQGKfedsGEMCDgk0l6Xg0LrFOKSTReuiMH9dFJLL3O/pl6Wi8wUgYL+S/vw1+pHuIL7v/zfTUZx9V9ie1vb8tZYtIgESIAHvIkCx7139xdqSAAl4GYEXQeybuqS1DvcMeujKHvvNdC/rWVaXBEiABLyDAMW+d/QTa0kCJEACJEACJEACJEACHhOg2PcYGROQAAmQAAmQAAmQAAmQgHcQoNj3jn5iLUmABEiABEiABEiABEjAYwIU+x4jYwISIAESIAESIAESIAES8A4CFPve0U+sJQmQAAmQAAmQAAmQAAl4TIBi32NkTEACJEACJEACJEACJEAC3kGAYt87+om1JAESIAESIAESIAESIAGPCVDse4yMCUiABEiABEiABEiABEjAOwhQ7HtHP7GWJEACJEACJEACJEACJOAxAYp9j5ExAQmQAAmQAAmQAAmQAAl4BwGKfe/oJ9aSBEiABEiABEiABEiABDwmQLHvMTImIAESIAESIAESIAESIAHvIECx7x39xFqSAAmQAAmQAAmQAAmQgMcEKPY9RsYEJEACJEACJEACJEACJOAdBLxQ7DciYft8BPycgWY7xq7i7Iy7FDAheK7L9O7ilYk9tVemf9H97vi5i3/R+bH9JEACJEACJEACzycB7xP79Vqsm7oQuzJa7HvEVVzLfcRGrMSEoBD4R2bZp/UwxJ14dBevLM5Te2V67/XXIDv2Gm6UOOhPDxrlip8Q5+rjQTE0JQESIAESIAESIAGvIuB1Yr9GswsTZh9FpgNt6CyuozYXR9YswoR5O7AqrOtiXxSW4tVRjyvjlGJTSKMMk/sd5fl8hhXi0LwQrEusd9o8ORfRrTQWwh39cxYu2LqKc5QXw0iABEiABEiABEjA2wh4mdivQcyGuQg+nIs2O9LO4zIOzMfk1WeQUd0K7Z7uE/tCFeSC0ZlbWVW5nRgnD5O7xfjn9+pe7CvbLvIRro4+or2jOFdhYjpeSYAESIAESIAESOB5IeBdYr8iHkuDluFgXrs9fxdxd9NTcc/0JKCjy2JfEIvKf2KYeBXi5W65vRguXN19pHS3ozAxaB/i78Rjc9hSBM5ZgaWR8TA0ShYA2lGpi8HWNasQNHMRZq7eh+icWtiSaoLh2mEsXbgEgfM2YbumAFe3hSDwcK6UUfr+efCPSEerFNKKGxEhmLhfJ4WoKqujBhnRe7F44WJMCp6HKQu3YHtMAR6KueScQEBQiEMG/us0qBLtHFxFhvIoR2FCvKNwtWHy/OkmARIgARIgARIgAW8k4FVi/97lTfBfEI38DnvUruKs1l0T+45EojVvW2HpzFZNuJ2NSeyvQ9jeU4jNyEFa4lmsmBOCWccMkihvK43BouBQrDiRjNSsLMSe2IagqRsRXWqF1ZxzAtODwrDhrBZp2ZmIObAfS5Z5LvbVlFWbvAc/Td+IvZpsZOtzkXr9KBZMXYTttyx3KPX3kH1bj8zb17F5dgiWRKUj0+TXI9NQBfkuLTkPudsZe2W4kEbNR56ObhIgARIgARIgARJ4Hgh4kdgvx5mwEMw5XYROO/Ku4uTGXRP7Qk6ORKNYglyIyt2O4p3lJeYvpjFdLWI/usza8pLz6+C/PAalFsO8E8vhvzkJtVLCOlzdFILpJwxSSO5xs420ut5Rgqglnot9NWWZbMJvwLoTvwXGAj30920eRwBQt41H5ClehUY5c0sNduCQp3EQzSASIAESIAESIAESeK4IeI3Y7yy5hJCg1ThVYhW8Yk+4ihNtzNfuEfvyPOXi0ZlbtBfixY8YJl7lacUw6WoS+3uRIlvubtDuR+DCaJg34LQgaWcIph7NxaOWFumTfXQp/HfesqySm3fskH4AACAASURBVNtuux2nCRqPt/GoKQsQVvYnzViPiMta3NQVoriiwcF7FkIL1Yl9wdIRIzFMvErMFA4hXrQRr6KJ0i+G80oCJEACJEACJEAC3k7AS8R+JwpOr4R/WAzK7Ii7ilMaP1uxL9ZGFJfC1dlHtDVdLXv2tdaN9DbRQLNJtDvKy3+bFk0ma0di35zOsz37asoCIOzZv3AYa1auQtD0ufAPmougNaeRZX30YGmDZ2JfZCcCEP3iVQwXrnIeYrhop7yK8bySAAmQAAmQAAmQwPNEwDvEfkchDi0IQWiM0Z69qzg762cr9l0JTDHOrspCgFuxb1ltj7wBQ2GR7ae8HuZd+47Evv3KvnBykf+uNNme+RYk7wrBTwdyLFVTU5aiFR0teFiajoglIZgTXaKIVCf2RT7iVZGJtGqvDBf9QjoxregW/aINryRAAiRAAiRAAiTwvBHwCrHfnnsaU4O24HKFPX5XcfbW7sV+vf4SNqzfjVO5DfbJZVtJRMHo0Ehmp4wXBaaY3tVVSutW7APCHvlJP6fjkZSoA7X3CpFvtLZD3Gvvas++6V2AZZcg7ZbqLMWJpSFYdPG+lLP7sjpRevMCjmvvyd6v6IRwIzEhMsty8yFmV4QjC0KwOt5uyV80MF1FboJH7haNHIWJtvI40a28ivnwSgIkQAIkQAIkQALPEwEvEPvtyDoUigkbElBtR95VnNW4tlQ49UX45ODYhhD4b7po8Reh0ubA/jak/Gw+DtJ/d4bDPeaiSLTm7rn4lKcV3Y7yFePcr+wDphNypoZho3DSzu0c3LhyFAunL8LmlDopm0d662k86ZbTeEKX276g21F+HcumLkLo4USkZmUi5tAmBE4Lx2Wj9VQfNWUZr4Vj4sxwHEy8jezcXKQlnsHyWfMQdq1Sqo/ZUY/48Hn4aV00bmRb+qmoxuaGQMlG6RfycRQmL0iIl9s4c8vT0E0CJEACJEACJEAC3k6g54v9lhxEzJqLtRppPdrK3FWc1QrC2fGi2JNf/YN24rpVC5tSGJMiMWNWGMJvOD7pXS4SxSI8DVNrL+avRuxLZ9+vNp+zP335LuyNL4J1XV/IrREFVw8hdOFiBM7biG1x+bi63VbsC/lU669gq5DPrFCErD2Ic7nK8/otZ/q7KqutAtoTe7Bwgfmc/ckL1mPjySwYbW6uzC1svadFxJowBAZbbrR2pkpPKByxkrjIHI7shDDxIzM1OZX2zuyU6egnARIgARIgARIgAW8i0OPFfnPGYQRO/RkJ1jMcJb6u4iSjJ+AQhaH8KhbjKEyIE8Ll/+R2ztxy+yfjtn9B98mU8+RylbNTU4por8aWNiRAAiRAAiRAAiTg7QR6uNh/hJSfF2LSjlTFCrWA3VWct3fL06q/94v9p0WK5ZAACZAACZAACZCANxLo4WLfG5F6U50p9r2pt1hXEiABEiABEiABEvCUAMW+p8RoTwIkQAIkQAIkQAIkQAJeQoBi30s6itUkARIgARIgARIgARIgAU8JUOx7Soz2JEACJEACJEACJEACJOAlBCj2vaSjWE0SIAESIAESIAESIAES8JQAxb6nxGhPAiRAAiRAAiRAAiRAAl5CgGLfSzqK1SQBEiABEiABEiABEiABTwlQ7HtKjPYkQAIkQAIkQAIkQAIk4CUEKPa9pKNYTRIgARIgARIgARIgARLwlADFvqfEaE8CJEACJEACJEACJEACXkKAYt9LOorVJAESIAESIAESIAESIAFPCVDse0qM9iRAAiRAAiRAAiRAAiTgJQQo9r2ko1hNEiABEiABEiABEiABEvCUAMW+p8RoTwIkQAIkQAIkQAIkQAJeQoBi30s6itUkARIgARIgARIgARIgAU8JUOx7Soz2JEACJPCiEWitQOblKFwvetyGd6K1tR2dj5uc6VwTKNLg8OVsVLS6NvMktr21s/v6q8vjx5OaO7B9AnwclMIgEuixBHq02K+LTkdgvzi7z6boli4CbUXizFhMXV3ZxXzsk+vXa6T6BvjGYdrIVERG1aDhufiVa4YuqhDavHb7hjMEQDOunC9GlIF8lMOBc1lJ5Fn71c/lBv1RTB7wFl5553Ns18nqfesA/sMnACFpljClX2Z6P3odfufjj5HRNbLQrjgbsW/SWPx2SWZXMnGY9tzcb9HLxx+Trlt/Z4SwX85NdWj/xAOVXJV+oQK6CAx5xwevDZiGQ/qGLlep5lImpvnGY9ulRyrycv172uXx01SMiKBg/MJnLHrN0trXR8lD6X8CfOwrwRAS6NkEerTYb3tQB31qFfRndZjrm4i9Z6tM/uIHHV2k6vrLqSuZC2I/YMIdZAj1vlkB7b4szO9/HeuON3Yl2x6StgZHh8Wi6zdbPaQ53V6NWszw12DIFatI6PYivDRDzuWe1nHq5nJn2WmM/8cb6D/1GHKVKxZZR/CKz2QszLK0TemXNdl4MRx//nsgvr9YKwvtivPJiv1/eWMcfr8gHeJMfqZiX8lV6RcxNuTh6NSB+Ms/JuFkWddWl2qvZmPOgATsvioSEAtxdHX+e9rV8dP+IBNzvvLHv/gux8BPnYh9JQ+lX6xyN/IRs+SVBLyFQI8W+xJEgwGLfW/gnEEK6aLD+ZdTFzOGSezPLEOTlFEH9OsTETC6AKVSmLc61AkEb21d1+tNse+WIeeyW0RPx0DNXG5CzMw++MunW5HnaHuI/jhe95mGZXpLjZX+J9qQJyv2/zJyAf7UdxeuWtr9TMW+kqvSL+fcmouNQ33w1qxreHrLS85+T7s+fi7O/x6/G7kPF+634MR0J2JfyUPpf+Z85BWgmwSeDQGvF/u61fEImFkC3dFMhA6Nx/QvtdgdVav4omtFYdRthH2pwdRPtYg4VYPrs5TbeDpQdcOAHf7JmDEgHiE/ZOJcSjOsGzKaoZkWj8mTimAUHyx0NuJKwHUEB5WiyrKQYi/2gYZzGQjodxsZYjq4K0sYDK0wHL2NsC80mDpMqHM14hRbjzKWxyFgXjmsv8Md0M6LReDyB7LRpKKsjmZk7szEss81mNwvDtO+0CLiQDXqxFy0ekzxjZW2J8m3VgVMKka1aKfmmpaLX4zSIVJXgi+n38Cvx2vx7qYSpNo8ee5ASXoRvg7R4g/jkvDyHB1WZDxCm03+rdCe1ePdgGT8xv8Wxl6uwY4wDX6z01qbc+EJeGmtEdYH0R2IWqvBL8Ll27dUlNXRjAuHbuPvPyXhl18n4HcBaRh7qgYS5Yw8/M9RGrz0dYL9Z36pRzd5nS3N6Ghy8GmxjkQbDE489WHDoAs+ifqDC5E/YBj0wwJQeihHNp6FhK1oSdqH4m/HQO87DHljF8OYXCHt0205GgTdrKswDduMbdD3/hL3M4R0nagL/RiFURIBJ7VwEOxC7HMu97C53HINQT5v4MdTTlbjC07jLZ+ZWHnH0s9KP4AHx1bgf7wxTvq8vsl+xebKEn/0mnQJV/eux9vv+eP3fgswfl8+bDf8NODmvq34p99E/NZ3Hr49koNdAcptPG0o0ZzE6K+m4d//7o9XRmzAyoQq2fdGFXZP+BG/Gn0OBeJ3cacRW8Z+j1+Pv4ISy3e4IOz/uPQYpvlOxJQk87eOndjvfIiEvTsxYEggfvvOBLzy6QrMjC6G9DVWdQ2DfVZifsQavNInGKNPFSJ2/Xz8+7vTMfpYqaxO7uoMQMlV6VdMs+rjk/CKzyw8zgNG5Xa7hTsfKnIXvGp+TwF0w/hJj9Eg17Ry1u5c7Ct5KP2KFrjm04aMrV/hb6/3xmdbs2S/rYpM6CUBLyPwfIj90VpsX16EVI0R19ffxDTfBBzUWqXho5t6zPFNwMadZchIMOJKWBbCvrEV+213DFjaX4M1m0uRlmDE9c2pmNFfi/MF1sehnaUlWPNRPLZeNMvH2suZmPbhTVwptto4Evslu28g4NM8FFgGh5qyHmn1mO2bgM0RZchINNd5+WjbOqsR+2rKqj2XgSkfaXHgtBG6m5VIO67Dkg/iseua5Taiph63kyuQlVyErYNjsXxDObJM/gpkZTVKj7pVjX2T2E+F75Y72JVSiegrBnzwgwZ/iayR8mkpvIu3v07Gh5FlOHOzAhGRGfj96FtYWWTl3JCRhz+NSsGwo/dxNvUBwrfp0DvYc7GvpixjbDZ+NeYWAmMqcCWzGmcu6PG3b5IwJsnC52EDYtKqcCmtBF9+r0Hv3UZcMvmrcCm3SfaUxx2hZtRM90NOnwF2H930GLPodpeFJd4k9r+cgOLFx1Abr0HVqkDoe49AWYr1mVNn3l7k9x0Ow/po1Go0qFofBH1ffxjvWG4sEtci55uDppulttOzkfvxSNw9Iwi/SlROGIqyFGt/qKwW4E7scy5bUNrfuD/1uWyIwOBXh2BLnpPeLT6Hvj4hWFdoiVf6Bb1nLETcjduIu5GEoGFj4VTsD5mLUXPP42SsFruWLcLvfAIxJalZKrgheQ/+7BOIIRvjcDYuBeHzN6HvEFux36I/gXfenISPVl7BmTgtIlaG4g9/C8GqXOuNckfxJXz4lj9GnDHfShjPbsDv/nsRthSK6h8QhP2vF6Uhblkg/iM0yyTMlWLfeGoN/lfvhQg+cgOXE9JxbN82vP3fQZh507LtxST2J2HwpgSc3LIcv35/Or7fnoJDoSHo1XsnrliqpKbOUHJV+iVKFkfuNnz06nDsEPtFGe/CL223Sy3HobGxcCT21fyemorohvFjraoLsa/kofRbMzG7XPJpRtz89/HKX33wj4UJsoUiZSb0k4B3EXg+xP6IPEjvRHbWI3pMLELCretCdzYnICCwxLpS1FGL4yNthbPJZkoprGtYLYibHIvZm635CCuaZfu0CPxMh+wHVdg3PA7LI+tsVktNYn9aKWqb2vGoqQWV6XexcUgs5m2ukezUlJUn1HlKKaR1FQd1ViP21ZRlsgkuRb00dtvxILMC+rvWZwbmKDWP/qVMHDssYn9FsTU6OyoVL029C/Hdv8TIFLy0pAxGyaQFOxZr8KdIa18kRN6wtemow9xAz8W+mrJMNkvvwfo8oB0GfRWulyr5dHUbTwfa7uagMdvB56617RIWFw6T2B+2DY2izukshHGkH/I23ZZSNawfAd2kM7LVq2pUTfRD7nrLS4/FR1Dgu9Y0Lho2fo2SeUss6W/j/uAAVN6TslLvcCf2OZctLO3F/lOfy7c34f1XR2PvffXd69yyEltGuxD7Aw5AK43VEiwfOhavrLHeZSSuDESvcZcgVaW9APMG2op9k813MbLvjRrs+G4s/nOluM9IqF07dLsW4Jf9diDGmIWAD8ahz7a7sjlgFvv/Ou8WWm9E4o/v74Gm3Rwmf0G3takB1Q2taG9rQWPTIzQ0VWDrd2PxfzdanlyYxP5srBG8NbH4xGcF9gpT2LTqHAbxq0xdnZ1TdRhz/yC+eNUP66xT3aGZ68BmXJnkWOybxqGb31NT3t06flyIfdcNsY91x6e9AcbSB2gQx6N9DgwhAa8j8HyI/ellsm077UiZG4vJYeIWg06kLopF4DLRL/RRKxJmyMV+O26ExGLmuko8Mol0Qai34/Y6DQJC7ksrzqbebXmIU+PisHB0MgJH30Gh4v0lQezbbHPxjcOcoEIUShso1ZRlqbPNdhxlnQH3Yl9NWYCwsj/ZLwV79pfh1o0alJS1yB4zy8d0d4n92zgm41YTr8NvfipAgqmodhxercEfI6rQ8Khd+sRE3MBLq42Wfu7EyQ3K7Tit2OvxNh41ZQHCyv6/jkvF+FP3cSq9FpnGVtsxISHqqtiXMuqywyT2p5yXbjCBR6iZ6YecJUmWvJtRM8MP+pVam21D9Su/gG6G5SlCqwYlfaejuroB1VPGw3g+EneCLqC98QqK3l+FOutiqPr6uhP7nMsWlkqx/wzmcvYmvPe0xP7EWOtiDFpwZMpYCILb/K8DJ2eMxS9D5KfhNGDvRLnYf4TDk8fiP5ZmoMEkvgUB/ggxS39Cr8ka2e+D8LjBgMWffovXP5mOXw45hJvWfX6m4qRV/LbbmPzPAMy82W5a7ZeLfVTnYEXADPz2zbHSFiVhu5J0OpBJ7M/DBuGo0noNhvusxiFhNaXoLPr4LMeeKqEoD+psIaHqYhGza7NVWTsxcib21fyeWrLs1vHT/WK/a3ycYGMwCfRQAs+H2Fe8EGu7b92xcLY9etP8gpFcpIvuAJu8zb1YfkBrEvTL90k7NKXuNa3s/1QAva4W+SeyMK1fKq6VS9GmGw2hbDF/+dValpo6qxH7KtvV3oysyNvYMD4JMz6KhXBk6Az/XGRbl7ItDegusa/DCZnYl9MB2rAvzMn+97D7licdnThhJ/bN6Tzbs6+mLGExsBkXj+kxeJYWfxijwUujEvD7kHzE2C22d13sd++e/Ysysd+Cmll+yFmcaMHdgOpgJ1uGgsV0hTCO+BrlOXrcHxaK2porKBq6A40F+5E/9rCTGx7b3rTzuRP7NvNNKXjVzAuVY95SMc5lpxMR6Fax5mZlf9J161NMtCIqaKzsqEuz0LMR21C+oGv2y98PEN29bPI2d3xexHyTSO+9y/7YBEnsox0xiyfhzytycHbed7L6NCF69kT0+mg9NsXqoc3MhzbzNkK/kd18qBL7ntXZbi45C3C3cu0snU24G7GvWIiy/T21ZNSt46f7xX7XnnzYwKKHBHo8gRdH7KtZ2V9SCoOu1vZT1GK7V7q6HNs+uY41024h6JNMaK3vg5o622bPfkcdTn0diwVbrVt4hMfIpqcILstyLGpsn0YAWWHXETBX/uTB/FRjSliFZeCpKUsxRjvaUVdQjsivYjF/h3VTk9nqaYh9y2r7pnvQ3nlo+yltsYhXdSv7F7cl4qU1Rtme+XYcWaPBr7aJdzFqyrLn86DIiB8ma/DXQ9IrzBajror9bt6zL4l2oXpKsW9Z2Z9/1n7bUGGN5SVd4WnAQJScPou7IyLRDD3Kh4ag5uIq6BdqpBd5FYRce7tD7HMuu/6OEnugq3M5bzv8Xv0M2+3fqRVL8ODaFbHvwcr+zKsW8S0IcMvH8FB20yu8cpKEr94dj4/8l+Lf3l2PY+LXgaU1VrEPtCT8jN9/sA/LlkyQif3bmNJ7LPrvs240BBoQOcFTsW9Z2VdTZw9Io2AnBr46FOH5niRS2roR+y7noCWvbh0/3Sj2u4WPkhf9JNCzCbwAYh8w7X93s8dQ2Ic4eX657IWcTtQaamAoka98tSAtNAGB4w0oa6nHufFxmB1qtJ7AANgdvVl9Og2Bg7KQat0QDzVliftzXe3ZL92TYj7SU3xPUri5GB2LpZHWwtSUVRqTj1Mx9TbiLTPsOgKXGG1vdFCLqOGxWH9S8dzbkzFuOY3H+co+IOyR/9d1cq6dMJbUIuWedY+83V57B3v2Te8CBBciS+TTWY9FQRq8fdz6REZNWbc1BizUNNiwuLA1Ef+y6YGtiMBDzJ6kwUBVf4jGEbRu3rPvUuwDwp79nNnXZO1qR6shGw3F0qhD45bRMMxajDyTXT2qJ49G6YJgFOx+jLf/hCZ3SexzLrv7jurWudxwFj/+9S1Mi7G+KOto1KoL64rYBxJU7tn/VXCS7Pu4Hcb8XKTctX4fAvU4MysQv/zyJHSPSrDyi2/xp1lamxPF5GIfLRmY1GcyfL8Okon9PMzyHYt3f5a9tPLoNib381TsA8Keffd1VkdYtGq8PBN/fS0Q0davOTHKdK1O3ITvvpqIDcnKxRy5mTOxr24OmnLq1vHTfWLfHR85BbpJ4Hkh0KPFvnQygIs/qmU+rs/2XHvbbTyAeLLNJuE0nkQjroZlIvQr+Z59wHzSRSLChdNvkiugPaxDqF88tl6yiv3GFD1CfJNxPMv85k5L1h0s9E3EgRSrCLVZ2RdGSVMFIofEYsUh6zevmrLEOoun8VwVThAaY1vnjqIirPggHmGrS3ArwYhrK7UIVpwOpKYs49GbCBx4E0eiH0CXWomM6FysHBSHVVHSiwaW8d4CzbQ4TJmYB22icDpPBbL0zTKxqGJaqBD7phNyRqfgM+GknbRKREXr8dbYJHwp+4uWDRl3pNN4zplO48lBn6m2L+i2l5bgn98koe/OUpy++QBbt9/Cv41JxxbZH5xRU1bB2XT84tt0TLtSgStZ1Th7JR/vf5eAfmetJ9uYW96CyOUJ+NW8AkSlCqfzVOFSwSPFDYEKRt1gYj56U9yOI2SoXNkHzKfxjELR9gt4mHgDNQdWIP/9oSg6b31c1XZmDvQDPkf+DvMyYcO6EcgdPAIlHp7rx7lsPVnLe+ZyJQ5/9yZ8JpyC+KzQs6HZgfu5wkk81tN4/jwrxuK/jRzLMDMfvelqGw/QkLQb/+kTiKGb4nD2unAazzq8PUgmroURLpzG87fJGL4lDmc1aYiK3Ia33/4RI2R/tbc2IQIv+0zDvHTz93pT+kG87jMZgQnW72cbsY9WXJg3Ab94c5xM7D9CzOJA9PrnUsw7kYoLMbFYNHEF/j5MVh9V23jU1dkz5hWI+vEdvPr9MSd91oKzU143nTbz8pSLNi8mCwdQ1OSb/3Cl3nIaz5zQUvMftkytQpll26L42+Tq99Rc566OH8Coz8Cl+HRcik/DwrFj0eu7KIv/DmzW4VRDcscHQP4ODHz1dYw/brdPU3UpNCSBnkagR4t95Zm/4v52+V9wVSP2pTPrP9cgeGgKdkRV4ZrizHqIZ9//mGQ6Z3/2mDQcOCk7r7+pBkdGxmLOigrZtpA2ZIUlIGBkLvIsus9O7KMTxT/fQMBwPXKl+wbL2ffOyjKNklYYjmQjTKjzMC12HatGnN3fBuhEtdaAnUI+gzRYMCEbF1OV4lJFWS2NSN2SgdDh8eZz9oenIDzcCKP1HkYat62GMuzxT0Bwf/N7BwFz7smehkhmzh0qxL7QFyXpd/H1HC1+Py4Jf5qaicBLD2Uv8AnZt0IbrUffn5Lwa/9b+OZ8DXastBX7wo9XaUYRRgv5fJeM1+blYE2W8rx+FWW1NuLE3my8Ncl8zv5vJ6Xis30PYLCe7iq191HJfYwPScG/fW1572BVuWylUTJ74g41Yl9g2JK0F8XjzOfs546cgbJjirP408Kh7+2H4kvmAd56fDp0vcfBKJ6trrIlnMveOZebMzbA77Xe+GZHFurEJ2Qq+1x4AfVQoO0LrOI+euHqH2vOSI3YF7bJaPeG458fTsBv3p+Dr/dlYeskmbg2ZSWcWX8Co0dOxR/+7o//HBqGyUdk5/U36TFt4Fj8eUG69W+IoAkX5wei18BIJFi+w23FPtB8fQd+6yN/hwDAwwKEz1mEV/v+gP89YDEmnbyD3YGy+qgU+8I7Si7rrJq18Ocv6pCx43v87bUhWJ3h/Olr8fFA9H3rA0w8oXxfoR3Jcxy/Tyb89kZqxMpY/gaMy99Ts23Xxo/5FCT5mBHdvaSXnMU6qbiq5NMSMwv/9epgbJIf4qQie5qQQE8m0KPFfk8G9/TrZn7xcOpqxQbTp1+RHlqi/Qu6PbSirNYLT8Cb5nL7/z/mfT4GvPkm+oxcgGjhdBn+63kEis5j9sh++K83h2D2+RInp6k9i2r3kPHjAZ8724bj5TfmINbBYs6zIMgySaA7CFDsdwfFp5KHNwmEpwJEUQjFvgIIvT2WgPfN5eayFBxatxiHxD+G0WPZvqAV00Vh/rooJJd1x/sV3c/wmY8f1XzacHHam3h59EHZ32vofh7MkQSeNgGK/adN/LHL8z6B8NhNfayEFPuPhY2JngEBzuVnAJ1FkoAKAgaED30d/1yVocKWJiTgPQQo9r2nr1hTEiABEiABEiABEiABEvCIAMW+R7hoTAIkQAIkQAIkQAIkQALeQ4Bi33v6ijUlARIgARIgARIgARIgAY8IUOx7hIvGJEACJEACJEACJEACJOA9BCj2vaevWFMSIAESIAESIAESIAES8IgAxb5HuGhMAiRAAiRAAiRAAiRAAt5DgGLfe/qKNSUBEiABEiABEiABEiABjwhQ7HuEi8YkQAIkQAIkQAIkQAIk4D0EKPa9p69YUxIgARIgARIgARIgARLwiADFvke4aEwCJEACJEACJEACJEAC3kOAYt97+oo1JQESIAESIAESIAESIAGPCFDse4SLxiRAAiRAAiRAAiRAAiTgPQQo9r2nr1hTEiABEiABEiABEiABEvCIAMW+R7hoTAIkQAIkQAIkQAIkQALeQ8ALxX4jErbPR8DPGWi24+wqzs642wImBM+V8pK7pUAHDrV2DpL2yCBP2+PM3ll4j2w0K0UCJEACJEACJEACPZyA94n9ei3WTV2IXRkt9midxrXiQeYlbFm9CkGzQhGyZh/O3K5Gm30ObkMciVFlmNKvzFSId/VR2tv7C3FoXgjWJdbLotpgTL+AjSuWI3D6IsxcvR/Ruhq0yyyAdlTlxGDrGpHDfkTn2Nqk758H/6BF2JPdKqUUwibu10l+Zw537ZanE23Fqxjnzi/a8UoCJEACJEACJEACJOCegNeJ/RrNLkyYfRSZDrS+s7iW/GjMCVqK1SdvIDUzC1eOhmNy8DqcLLIKWveorBZyQSp3Wy2cuwR7Z2mchdvnZi/22wovICR4CcKOJeNWViZiDm5EwNQNOFvaISXvuB+L0KmLERaVhNSsLMRGhWPK1M04f99qIwh7oR5TDuoh0nmSYl+onLzdztxSI+ggARIgARIgARIgARJQTcDLxH4NYjbMRfDhXAer8s7i2nAzch4CI9LRKGGpxqV1IZhy9I4U4olDKUgFv7OPPF9lOmdx8nDHbnuxf+dkGPzXxaNSTNB5D6eWhyAkulQMQdHZNfBfeQ3lUsgDnFsZgnlnrTaCsJ+5egumzTmG25ZHH0qx76ytrsLFIpU28nDBLTISr2I8ryRAAiRAAiRAAiRAAp4T8C6xXxGPpUHLcDDPdnOKqdlO45qQn3wN1/PlW16AzIML4L/9Jpo8ZyalEIWrFCATq/IwKdUtMgAAIABJREFUZ24xvefC1l7s66OWwn+rFg1SYZ1obW5AQ4vIqhO39s6Df2QmOmU2NyNDMGFvthQmCPvgo5dxYF4o9unNaZViX0ruor3u2iTGyxk4c8vLo5sESIAESIAESIAESEA9Aa8S+/cub4L/gmjkW3edSC11FScZSY4KnFsVguknDFKIpw65WJWnFcPlYUq3KGrl4Y7C5PG2bnux35RxBFOC12B3UhFqWqxy3pquA9o9IfCPzLIGAUiNDIH/ngxpb78g7AMP5SAnajmmHs0zhT9JsW9TGQceNTwdJGMQCZAACZAACZAACZAAAC8S++U4ExaCOaeLpFVoaw+6irNaia66jMOYGrwe0bL97GKcp1dRpDu6yvOSx8vDlW51dvZiH511yDyxBVOCQ+A/Iwxhey4gsbhBxkq92J+0X4f23FMInnsS+g7AldgX6i/UWf5P6ZfHifZiO5VxSr+7vJT29JMACZAACZAACZAACVgJeI3Y7yy5hJCg1ThVYr9q7SrO2lSzq82YhHVz5mFx9F04eMdXae7QLxegcrdgrPQrMxDi3X2Uaez9DsS+yagTjcZ8JF2JxtaVSzFh+nqcNIitVC/2TSfvtN/B3pBlOHSn44mJfaHKanjZt58hJEACJEACJEACJEACagh4idjvRMHplfAPi0GZXatcxSmM63Oxd+k8TN2eggcOtgIprJ165QJV7hYSKP3KTJTx7vzK9Ga/M7Evs+6oxrXwhZi0I9Wyj99DsY92ZB8OxfRjBqQdmO/26E2xHeJVVhMbpxgvXoVIwe3qY5MBPSRAAiRAAiRAAiRAAqoJeIfY7yjEoQUhCI0x2jfMVZzcuvU+LmxchIA1l2Cw/2tcckuXbrlIFQw9FamO0ssLVMbDmIVTp7UoFBfoTcYF2D8nBJtTxNeLG1CUmY7schsjVMfvgP+SiygypRFe0J3r8AXdiYoXdMUz9VtzjmPKgmicOrzYrdgXWcjb4spt104nxmrtnCRnMAmQAAmQAAmQAAm80AS8Quy3557G1KAtuFxh31eu4iTrzodI3bsSExcfRXqt/TYgyQ5Avf4SNqzfjVO51nNt5PFK8enOL08ruAV7dx+bNMZYLApagSiDeKoOgEoNlgUtxZEC0fIhrm4MwdRDetnWpFbojobBf1Miai1md6NXm47etN4yVTg8elMU+2jLxZ7ZYVi+doVbsS9yEK9izZxdu9vOWTkMJwESIAESIAESIIEXmYAXiP12ZB0KxYQNCai26ylXcaJxJ0pjwhEQFIbt1/XIyb1j/RQ8UBy92YaUn0NMYtx/d4bdWf6OBKoyTOkXayFelfHu/EANYoXtOEv345z2NjJuaRC5ejEmrroC+fvFNdq9mBIchvXRKUjNzkbCuUjMDF6CcO1DsWi037uGJeIf3srORtyxbZgydRPO37PuabJ9GbcNGQcWm3hINwBSblaH+zZYbUWXMo0YrryqtVOmo58ESIAESIAESIAESMAbTuNpyUHErLlYq7GKVqnjXMVJRq24EWEW8IJwlH/8F5yF8vBNY1IkZswKQ/iNKikH0eFIeMrzc+QW04pXZR7u/EK6zoZiXD20AwsWLEbgvDUIi7wGfY1spd+UeROKb0Rj48qVCJq5GDPDInAgqVT2h8QEo3ZU3o5B+GrBJhSzV+/DmdvVNjc1tmIfaMmOQmBQiMOVfbG9YtvkV1dxgp3YbtHO1VWeL90kQAIkQAIkQAIkQALqCfT4lf3mjMMInPozEmz/Jpapha7i1CPomqUoWtXm4krUinFq83pWdp7U05mtEK7mn1o7NXnRhgRIgARIgARIgAReNAI9XOw/QsrP8hNl5N3jKk5uRzcJkAAJkAAJkAAJkAAJvJgEerjYfzE7ha0mARIgARIgARIgARIgge4gQLHfHRSZBwmQAAmQAAmQAAmQAAn0QAIU+z2wU1glEiABEiABEiABEiABEugOAhT73UGReZAACZAACZAACZAACZBADyRAsd8DO4VVIgESIAESIAESIAESIIHuIECx3x0UmQcJkAAJkAAJkAAJkAAJ9EACFPs9sFNYJRIgARIgARIgARIgARLoDgIU+91BkXmQAAmQAAmQAAmQAAmQQA8kQLHfAzuFVSIBEiABEiABEiABEiCB7iBAsd8dFJnHMyXQ3gE0tnTiYfPz86l/1Inmts5nypWFkwAJkAAJkAAJeD8Bin3v78MXugVNrUB1YyeqntNPbXMnhJsZ/iMBEiABEiABEiCBxyFAsf841JimRxB41IbnVuTLb14Ewc9/JEACJEACJEACJPA4BCj2H4ca0/QIAjVNz++KvlzsC27hxob/SIAESIAESIAESMBTAhT7nhKjfY8g0N7x4gh9QezXt/QI7KwECZAACZAACZCAlxGg2PeyDmN1zQRa218ssV/3qBt7vr0Nza18EaAbiTIrEiCBbibQ3tqClvZuzpTZkcALSoBi/wXteK9qdmsFMi9H4XqRtdZtHS/Gfn1xO49w0lBX/3Uas7A0cDb+/a1xeHl1riW7NkStS8S/ripHTVcL6FHpe1q7nkx9/scb4yTqcrcU6MThia2TLKRgtXkJdp58zAU8GW5S5W0cT7Msm4K74PHGOqtrbvLqyej1pj98Jh7EuTKqfnXUaOXVBIo0OHw5GxWt3d8Kiv3uZ6oyx2ZcOV+MKAO/xFwBa9AfxeQBb+GVdz7Hdp3VkmIfwK0D+A+fAISkWbgo/VZcAJpwcoY/fjlsO/Zo9Egva5JiG1L0+LfRWdj/UAqyd+gL8MdRNzBHb4lS+u1TPPOQntauJ1EfudCWu93BV9o6E+Hu8hHilXk5S6PWTpnnk+DmrI5PsyxndfA0vOfVuRWF16IwcsRU/KH3JLz+1QaEaSpgtxOxqRgRQcH4hc9Y9JqltWt2XZkBiZpY/PTZd/jVxFhU2Fl4+h3oKAOVYY0ViBwai4XbayH/xS4/pEXgUB2ypa/TTjzMLEJkwA3MHhSPkHHpOHqxHs0qi/HcrBm6qEJo8+S18jwXdSlclFVUiKW+sQjsF2f3CfBNwUXZQp26sp6lVS1mTtBgyBX5iG1HToIBX8zW4vfjEvF/Zt5GWEYLbJ+Pd8Bw8y5Gz72JP36bhP+YkY3lCpvL25Pw0qhEBKSLi3edOB+eiF+FV5rHlS4CQ97xwWsDpuGQvqFbIVDsdytOTzKrxQx/5YDyJP3zb9tZdhrj//EG+k89htwGcXKY202xDyDrCF7xmYyFWZaxoPTbDJFSrPh0LN79+Z5NqMnTUokfvtPg4xj5l5vC7I4BL49KwYI7lnClX2HeI7w9rV1PoD6igHYm1sVwZX+I6ZThcr8jGzE/NVd5XoJbzM9dWrmtKY8nwE1ZN8n/NMuSCu2io4fVufHWfrzm8xMGrbmKM7FabAtdiN+9MQuh2dblyvYHmZjzlT/+xXc5Bn7qWOyLVPJ3L0CvT6KQLQbIr8rvPKVfbttFd/mhmwgclIXUektGj6qw79M4rI5qlHLuLCvBWr/rCF1ahJsJD5C8OwMh/RKwN9Hadsm4Wxw1ODosFpuiXXx3d0s5QiYuympqgiG1Cnrhcz4H832TsO+8xZ9aiwrpZqjbKvPkMmosx6ejkjBVNuDuJerwx2+0+OpYOc7eNCJsRQpeGncbR2ULZJWperz8jRYjo8w2a9Zq0etbHY6L4wUt2LZIg15fa/DuGXHMPEL4Ag3eOSET9g15ODp1IP7yj0k4WWare7rSaIr9rtDrUlqKfdf4mhAzsw/+8ulW5Dn4nqTYB6A/jtd9pmGZtNqu8NsArsCmr8fCZ7PBJtTs6UDMjmT0WliKUgexpqDCu/i/o7RYWmgxUPqdpXum4T2tXd1bH1E8C4jlbiVyeZwjoa20d5WfPC8xXXeH2ZffvdzEeju+Ps2yHNfA89CeVOdWnJr5HX4dlIhaqSEV2DR6LH6/1KqeLs7/Hr8buQ8X7rfgxHTXYj9hZSB6/XgVVVJ+ModH34GydI/jtKzuhx0wC7Oqk2mY/JkeObJl+/KDWgSMvINCacm3DamL4hG4sBwOfsYepxaKNC4EuMKy616VZZlW+b1tNV9Gx1CIV0elI/yBGNaINbM0ePtoPaRD8SpK4TsqCdNuizZNWDdHgzcO1Vn7uaYMfqMSMSVTtKnBNP8kvDf3Jv51s/ikqwbBP2gwOlHxZKY1FxuH+uCtWdcg3haIuTzutWeL/bRc/GKUDpG6Enw5/QZ+PV6LdzeVIFV2EwR0oCS9CF+HaPGHcUl4eY4OKzIeWTvFRKYV2rN6vBuQjN/438LYyzXYEabBb3ZWS9zOhSfgpbVGWN+D7EDUWg1+EV4p2agqq6MZFw7dxt9/SsIvv07A7wLSMPZUDaRxk5GH/zlKg5e+TrD/zHchtmS1kJwdzcjcmYlln2swuV8cpn2hRcSBatRJBoKjAxUJBdj2QxJmDNJg/o+ZiE5qsuGTsTwOAfPkX0Yd0M6LReByqdZAcg4CfTOhSS/C1nEaBH+ciLAlRSiU7lqFsjpRk3oXu39KxqxB8ZgzJg0HTtXCprvQgaobBuzwT8aMAfEI+SET51KabR6Nmqrfcg1BPm/gx1PWnwx5s9yJ/cq6GiRFH8Tq1eEIP6nFrfutNmfyF+ckIHJnOJZvOowjN8pR3tBhiq9sKEH0jiOIKTH7hT3zlUVa7Pg5ATkNHTDHH0fc3RJcOrQTi3fcwF1LWjHPpesjcTDJCKMlXNx3L8Yv27AXh7UVNvHG0jLkVlnLFNOIV4d79gtO4y2fmVgprrYr/XJgaMbBwLH4zeIMm1DR05qdjz+OSscWoxiiuJYW4b9H3cSKYku40g/gyhJ/9Jp0CVf3rsfb7/nj934LMH5fvu27AJ0PkbB3JwYMCcRv35mAVz5dgZnRxdYxUnUNg31WYn7EGrzSJxijTxUidv18/Pu70zH6WKls3LahRHMSo7+ahn//uz9eGbEBKxOqZPHmenZHu8w5dSA9YjH++M5P+HB3oeLxrYKVC2/31ccq8B2JbbEKjuLkYXK3qzSu4tTmodZOKEtp253cxLY4u3ZLWe7GuanwBqQe2Ib3B0zEb/45CyN/TseWSWPxh2WSggDgbeO8ASknz2DPLdmSJ4BLC8aj10/Xpd+m9BgNck2rve1uxH4T9v9ke6Ng02/K7zyl38a46x7T6v4wPXIaahA1Ig5rj9suWevXaRAwvcxGoDUaKpGW1iDbxuT+N1m3Oh4BM0ugO5qJ0KHxmP6lFrujaq35avWY4mzbzKRiWJWN+9/b7ivLwteZ2G8yImJgLDactqosIUXDhQwE+mUj3YJSrI/+xP/fBjMsHtO/0GL3EVnbTcW4b9fj9nZTYg56jdHjknjD1l6BMaMSMPGWbJW9swN19a1oFNX/w3sYLN/mKhReew+D5GEN5Rg6KhWhUXr8Yupd5Ag2dffxySgtFhfY17b6+CS84jMLNruJJLM2ZGz9Cn97vTc+25plvcGQ4u0dXiD2U+G75Q52pVQi+ooBH/ygwV8ia6SJ01J4F29/nYwPI8tw5mYFIiIz8PvRt7CyyNoxDRl5+NOoFAw7eh9nUx8gfJsOvYM9F/tqyjLGZuNXY24hMKYCVzKrceaCHn/7Jgljkiz39Q8bEJNWhUtpJfjyew167zbikslfhUu5TbD96rDvMHlI7bkMTPlIiwOnjdDdrETacR2WfBCPXdesawht+gIs6afBuvBSpCcYER9+CzP7pyA6TxzJgHqxfwOrlupx/XoF0qPvYM0nsZi3qUYSWO2GQoR9EI/lK4qQmvAAKfuzsLC/BlsvWSd32x0DlvbXYM3mUqQlGHF9cypm9NfifIG1v0xtNERg8KtDsCVP3mKr25XYr2yoQfQsP/z30OkI3boboUFf4u1PNkJTbRbTdy4tQf+/D8H3S7dh3ZqF+Py99/DFtmyT4K9suIEZbw3GinSr8K5M3Yh/9g3DNZPYF+I/wvAxYzEqZD3C9t00if07MUvx4TvmPFctm4GPe/fByJ/zJUGfH7MMH/X5DBPCdmLD+oUY/u4/MeZAMSpMeeZg2Yev4/UZsdJNhyjyxatDsV98Dn19QrBOXG1X+q24TK7oOePQa6bWsVDtqMWMSRr0OeVkHeF+CfqMuoV1ZZZMlX5R7A+Zi1Fzz+NkrBa7li3C73wCMSXJuvRlPLUG/6v3QgQfuYHLCek4tm8b3v7vIMy8aXkMbRL7kzB4UwJOblmOX78/Hd9vT8Gh0BD06r0TVywLIC36E3jnzUn4aOUVnInTImJlKP7wtxCsylWskHRDu8wtbkfsskD8i884/DnstqovVwV+s7eb6iOIYaUgFstzFu4o3pGtozBHabsSJpTh6OM0z27iJubv8toNZbkd54LISd6DP/tMhN+qq4iOS0H4/NV4089W7HvtOLcBXI61X47Fn1eKjyDlke7E/j2s/nws+kSIXzzytAD+X3tnAhTFmfd/ytpKKrVbb2p3631rd9/a3dqX1AZTwZhSE7XMoSblEXc1q2bXYHnF+wAv4oX3EfGKNyrGA40n8QpqVIwgPVwjx4DgCDKADMJwK4Ncw3z//+6ZPqanZ2guZciPqql++rmfz9NNf5+nf8/T8v958nNZ9DafcrP70di2IBkLx+jxUHy0cVnbhGqh2+e4mmcyl88ELQ5tzkcSY8LdXfcQOFCD01q7uqysRkZ8KdLj83FgRBQ27y5GOndeivT0GkEfqXnetldZAltXYh9NSAtmEBBQIJkAakD8imgs2mgS6szXJzT4MZI1JdCEpmAZ13bxf7uadgn1aaFDfzEZXkvyIUgP61ME+TP43y0F0FaKuskhW70Bf/ZLw3Hp3GS2Af/np8N3/MgrJxdv+t3H6ezHeG98Ji6w106OAX/3S8f3jjOitqwfHsQQnzEI5Z/vDgXWInr1x3ijew/0XauRTFI7RHI48QixL8wmArgfngSvxXng12rGhiXCa0MhxAnJeoSuZ/DXMHFvEU1YgmOcpmdYGdBysa+mLC7OpicQ3wdYYNCX465RFOC2Hmi7GU/2Pg38FxkhTq5bUJJWCn2eWFYWG2eBUfJKtR7R86OwfJ/IpyVi/5rECsR4PBH+Ew3g/w3nhsbBf6oBxYJutyJzOwP/JeJMB1fnZurD8cnYi499JuBEkcP1Kpy4F/sMFvb8BOsTLfbZ+grERPwMbXETyqqSETTwIwRcrxRm+ov1YfhXz0kIzWFn7tWI/Z74MuyJkL6sKgUrBznmWcAcwrSAM9CyYr4qFasGD8NKxiykMekOYlivZbhSwZZZB13kBYSnVgnhvMjnj4piX6DhymFFfW0dzM+fo6xAh8WjpmLIKfFOkafSntLCKzAPSo9keVylc25mf9gpaPn/ydYCbB41GW/sEP5touG5GRXmBlga61HznK1bKQ5MnYy399gvLE7sL8cO9rQyCv/ssQUn2EuVm7ELBn9bx7Kv9qdGSu77SoROnYy/KQiKtrZLaGtTHUqKnsLs4v+9EK8ZR1vrw4tx/igvzpU/H08azrvZo6sfn4498vE70s9VOW3lJq1zc+62ltXsdQ6AM08Zfw38yzJYDFg93FHse/J1zjMujQzBn99Zga0PlW6c5sT+c1xZOgf/M+8m0krMMLP/M2oblScs+AI7+MjN7g+Mxs6L4iQGX6Qasa/mmczl858sCPt3WKsRMSkKQSHic9tWpnvTGjXP2/Yqi2cAl2IfaLynx9KB93Cn2B7bXIyDn8YgjOEfGgBXn3HZyBMulzrc8XfULGraJdSnRQ4rroXE4le7xMEHm9yU9Ah9vmItMuLgu/EhdiY7TsxWRd+H17RsxEjKMjMZ8PoqC3fseoh7YzAjG4ylHDMn22bza2IfwGvmI8RK0gnOotP4wmcodkpf9AmBACxmmIwlMIvopKFObg8Q+xn4QbL2pDImE7+blwMN1xQLzm5n8L9HymGuswi/yCMJ8Npusr/ysuLSbrk5TgNOtNiMR01ZADuz/9qUJEy/XITLqVVIMzUII1ZH+m0X++zM/vyhiTj+fSGSEypRUFgvzLLbyrIgISgKgd86Wjs++JaBf1CRUC/1Yj8NWslMhvlmOhaPzbKPgK1I3hAF/w0mCFrfscHs1cnVZ+nOMtQ9twi/DPbVp6Q+XLL7e/FRq8V+Fc7Mew99/r0Wey4kQPu4RhDRZfdDMaTPBtySmNiUmUtxeKIvZlwwqxT7wxGcLJn5V8iTF+nssSzjMIb2mo1tEZG4cJX/HcTEXiOxVSfmI00jd7dO7Odhw4jJnEDr1mcRPg/JkLzedeocWA25jnb5zlHc+nBif06UZNamHucWTMZrq5LFdBUPsMV/CX7f01YvXmD+foPdsJET+6uwm929oZrBmB7bcYYdzeZfRf8em3Gcu5TrcHb+ZPx5k8728OcGDXWI3DQP3eYz4qtue6ltbZdY+fZxtVd95MKbP5cfpbXmw3g/+Tnrr+TX0vhKebjzk4fJz9ny24sb3xZ3xzaX1dx1jiZcWiK3VTfjxByp2Pfs65zlW58biZEDpqLv7iyn+9LGvzmxz5pDpGPZ2JnCYLTbiHAIZtDuOrFDwqwoOJbI7Tiz9oD4Vpsvqnmxr+6ZzOXjYA5kQeLKKMwPlpjWcoW6E/vqnrftUxZPgP1fze7M48Jmv6kS58dEYdt52xvk2jv3sWBEJtIlGo+rj2SCkM1Z9000/NeZ7IM8de2S1KgFzlrsXcXg7bOOxtBsBo3PzIi8k4+AjVq85peAGVqx0qnn7sFLZoadzk5MBxUgz176A/aNwRrWVLsW+1YxGBPVAM5vnRGKc5p2sf+tuNSlBe1wjuoBYj8TF0WmshY04mSwC/v34CLYrAatuOgk9m3pWmazr6YsVs/W4sYPeoxYpsUfJzHw8tPgD0GPECkfkKPtYp8tKz0sA7unx2HJkCj4D4zGklkPcV94rdCA2KVRWLLLUezrdzHwXyq+amyJ2E9y2RdWJK2Lgv9G1zPHgK0+ittzSerDdXIbxD4nsEtzcCF0G+ZOGoM+PftiSEA4tFVNKIvdhj6f7kacg9ivxzl/X4w9Wqgs9u/twQcOZjwyMx/NVvT+ZBdiJXlKxXoZG95rNL5avhqLHH4bcLJDxX4djPpH0KZlISbyR4wZHIAZt53/iYk3lRmbFzPofuqpmwGbGFvustns37Xfd2xoA8IXTsarK5PsUZ8jYvkcdBuyC3uj9NCmsXXLwMaJk9EysV+Dk3MdBwusOGR/3eZKy+dr2LZ28bm037F96iMXxPw5f2TrK3Xz9Zf6Sd1K4bwff2Tjq/3xafhjc2VJw6VuPj3QPtzE/Ny52lKWiuscSiLXdl2LNvsefp1XpmH+P7/Cn/2jkOty9lGJg7RfGqDZugi/+eIYTjH2/xn6MnGNjzTqi3BXFiFkOIPQ4DQsHpoCjWw/0ObFvrpnsnM+CuvouPa6E/vqnrftU5YEvjuxD8BwIA7+M/JQAgu3ePnr4FKHSUrn+thNjdeZ7Gv71LVLUqMWOCsRMJXB2GjROsIpsbUOhzdq8MoOk/06bMKFXRr8JqRM8sbJiit7NXhtP9822xuD3xywxbnzXTz+dqISPx2IxeuHypWft83N7DtVzL2Hh4t9+2z73ifQZj91/Bnr7ReGupn9Gwdj4bXDJLG1s+DcDga/PsgrZzVlyWA3WVCSb8KM+Qy6n5GLrHYQ+9Limix4llOMsC+jsDqUNxxTN4uQHnwX/ivFmX52Bp6dRVgQLPlPZl+g607sK83sWy1NaGiw2i9m+4h8gxGGzCrHX75sz9qsQxjqMxqHJGZD0ua6M+PhxH51I2cPz7pNRgZLhvRFwDUzyvLOYqzvXHxfJM6ol5kf4JuhfbA4shFl5hSs+qAvFt58LrwNKLq6DN3dif3cMxjz9mycfCLJs7IMqWmFyGfNeNhw3wUIL5OEmy1C/aQDA1fu1s3sS4kBrM3+K8tc2Ozboz68nAyvuTlIEF6hOubh7qx5sZ+BBf0mY/BJ6YDQjLDZLRX79hnPpT/bBwzsoMH+Mzx1XuwNoC3tctfm1oa1R32kgliNW1pXNr40jTxMei51K6VpqR9ftqsjW55Snqx/e3CTtsedu/VlqbjO+TUuc6IlJpY223ZR7HvwdV7/GLu+moXXvwzHPSV7ZAF8c2K/ENvGTMYAVzb7Qj4vwtGEnJB4BEzPRXHjM1yZGIVVuysc1u8oLdA1G0qRdI9foKvumewseFsj9tU9b9unLAn/ZsS+NduAtQO1uJlVgmPDGJxKdHzYcPVRmtlfL5vZV6MjJNWSO0syC/HNT5LNU9gI5YX4RLrFdH0NfmZKkcpLKnsmzHGb9Yjt0q7B9mWy7TNh83tf2FLT9sag7yVbiqJbafDamIdvNjIYcMXFOrmcwxjuMwohj+Q1b925h4t9gLWRf20nP8JiIVhhKqhC4hNxZOZka69gs8+tBViUi3TeBsVajXULGfS5IP6nUlNWBmPAWsYsGeGBG739ai87jpX+PcXyuQyGSxavSkN5d0XsXkz9cg52x8uuNgDGyEe4HFntMCpMC76LgA38TQE82m+z2Rf3RqhH9IIorNgvvmrgbO8n5MDIt73pGS5PiMKmMHE1AL8bj2uxD/A2+0V8PmjC/W22twj85cza2s1fXSxZUGJFlaEShgLZKwPzVczs3huBkc52kSwbd2K/LP8SJvb5D7YkPoXJbIEx5ypm9++FOT+yZjrlOD13AAYtvYG0CgvYXXtiDs5AryE7EFPJ2s9X4MSMXnhn4n5cf1CGnLRbWD7uQ/di31yGU3P74ePAa9CxeVaacHXDKHT/zwmkcwtw2fABGLIyEulsGc/MSD6zEB98GoxbnM3+M9w9/i123C4WBhhy0d92sV+P8wsm4zer+S9w8VeY7Ggy4gO/BARmCJ0oi+D6tHmxn4VlA2V7/ddlYP6glop9gLVl/vWiOMkMnwWmRw+RmCe5ZqVVbUO7hGxYm/3ip6hxfDYJwS1ytEN9pILYlZutkzQBS94sAAAgAElEQVRMWseW+kvTSt2u8pHGYd1q47mN2w7c5PVyed7qslRc56wd8KXt+M27K/D1bSNMlRVIvngU7w2QmvF46HVurcSPKxbh1WGHcK2kuf8jzYn9pzgyXXktjst+66gAkxG7hjA4zti0xbPINCz6JAnRvP05AOetN22z1+zWm/zGLWqeyeoFeBXCx0Rh1yWJfa2k/Wqet+1VllBsM2KffUN37asoBC9IQeBIPfSiVOOy4OqjYLMv1Sxq2sXXx5WGyryQxE1sJUou0bzrOrwyIxt3ebFWasQgvzjMSZb806+rwpL5DAZd5bdTqcb6BQx6/yBqRavJiIHjE7GS/1A9KjF/GoNJcfZ89Dn487RUfLxYg6mywQ5f75pbS9H9rQBEiNnyQa06erzY53bImZCI0exOOyllCI/Qo/fkOPz7rigezbpsYTeea9xuPA/Qf7HjAl2LsQAfTozDgMNGXLlXggOHkvH6pFTsl3zUQE1ZOVdT8cpXqQi8XYrb6RW4evsRPp6qkVwYfD/VI2yzBr9elYPwJHZ3nnLczKmTDQjqcXWBL7fi2nvBDYcZBDYX0/l7CBh+D+ciSpCZVAZdxENs/Swa2yQf+WjMMmDjIAa7DhiRGmsCcyAFSwc57sbTlJ+PLZ/EIHh7AZI1JtzZqsWiT+/h9mPJXdDszD7QmJOLzYPZ3XgeIylW3I3n4C3xH5FtFX0sQo4UQhdfCu3ZTGwcGoMDN8X+shEqw9mpPdFj9mXFLye6FftmM5hjyzH60w/Qq/8AdPcdiDEbIpFZbZtZLzUmY9fcf8C3Z3/07tUbvceuw+kMyeLZtB8w49Pe8Pbpg/5j1+Dcjztlu/E4mvGwwpzNc+ecf6BHz/7o9W5P9Bq9Duf09YJ4LzWmYM+8kXjn3QHo06cnug+chk2RxSjhBgM52DPmfQzYkNCy3Xj4S0nVsRwhkyaj+26FPb4c0ts+8vGn0HJhTYdDsJuT5sV+HSLXB6Dbh5uw6mISfoqMwro5W/D+5y0X+9wuJe/Ox5j90bjKpCA87CD69JmJ/0SIg1jHqra+XbZ8LIgOns/txvNGcKbTvehYlpqzttZHFM9yEd3cOVs7Pg5/lNZYyU8aLnerja82nrR+8rKAtnODKRJDekzGR8clKs25ILS+LBXXOVtegxHHFizGa+wXZHtMwV/nRmD1LEex73nXuRUZx9biv3rMx5TTOkQnZIi/ZN60FjDpdbgZk4qbMSlYO3kyuk0Nt59nQz7v8/PG2ejmHyPZiEKxs5r3NJ3FOB9fjD7ams+5WpC5PRYB03JRxOs+i21SbPm2MuF/pdVYgB1D7mLTZvtHtcJ0WMV+VIvfjY+dqFLxTFYvwOvBBEZjwZwsaGPZ3XlKka6vFSYb1Txv26ssoQOaFfuAif3y8KBoLP22XKZ57At0J2lxmN2NJ1bcjefMPV6BA2raZauPaw1Vn/kIf/OLw8DjT/CTrhzhl/XoOTkeY+6I/GB9hjULGLy28AG+ZcpwPb4QS9Yl4FcLsnBHEOHsdy4S4DUnHZtjynBdU4AZS2Lx38FPIGwKyW3DqcUG3lLBXIzP/TT41fh72Mwb9QsAWUcpwme+B59pPyjqHy7qo1AM9/HF9AuunnkOGcLjxb5t7/s8jF/BfsY4Dn9dnIaAm08liwTZBjdAG6HHgHlx+O2sZEy8XonQrY5in30jYNTlYwKbz9R4vLXqAXaky/frZ/f0b6ashhpcPHEfvefa9tn//dwkjD5ZAgM/rJfwrysowvSgRLw+3r7uYFuxZKbSFvHxhQAM6P0J5lxU+NxRfQ2S9uuwcUyMbZ/9MYkICTHB5DBSbkJZnAGH2H32hzNYPcN5n3227RVaAw7PtO3Fv2b2fdxIkg08VIh9Wz65ODInHkuHx2D5RDf77LNlDYvBcnYv/kvyPXRtba/V7cbQt/phYmg6nknGHWyoO7HPz4qXmRuQ/9iE3MpGQXTzYezRVFaKh0W1iuY0ZeZ6GEuVw6R5yN1snnqjWdhyUx5eUl4OfV4lntgHHnx42bMGl2nYOG2f2Tci+PPJ+PCY4lIgyVUJPIlMQ7dpejiNvxxiOZ80L/YBPM1ByIp18BkwA/8zbD3mXsrGsYCWi33b/uMXMWHcYvzx/Vn426hgzD8n29NfVsXWtsuWTRNSvluHP/WZi0FHDMLDVFZEi07bVh9RsMsLbU5US8Olbj4fJT8+TOmoNj4bryU/pbJYv7ZyQ2IY/tBjDgKlU3ouCmt1Wc1d50J5jagsNOK+oRI11mocl4l9z7vObet0lPq52yenoLW3+9rKrxSvhW7CInwBELKOrEK3zy+2epcwIaeEb9DLpz/WJ8geJkIE1w6rMR9bBjM4FuPwcMWzm2lYOFiLSOHxbEVVar7wrZmgKak4f6Maju+nm38mqxfgQIOhEMdnabBocBQnoP1XPJG8ObfvR+/medt+Zdn5qRD7eMSa8jA4l+LcF1x9VhihD0/HplExCByrxdFzLr7X46ZdfG+61lAW6O8+woivE/H7rxLgG5SBtbFmp0Hl86JSrNqaDJ8ZsfjvuUkYFlKAqFJ+xGcvxVyF3btT8LevYvE/AckYHVaMdGEwACDLgL/5pcP+PTZ2g32sCWDXdN7HOf4FAV9h6zPoQqfh3bdGYrtOnCjlg/ljfeQyvOkzAntVbp/XucU+36p2Pzov0G33IijDdiBg+f/bKK/GsJ490X/cGkRIJmTUiH1eSHeFY9vF/lMcnzUFv5sRgSSTGTUNsn9W0t56WoSRE2IxTdhDUxrowe7O1q421kcusqUCy1UvydNI46lJL43Pu93lycdhj2rjNRu3jdyKzm1Gtx7bcFq0bZRW09HdxrIcM2vuzGaf/m6I4lRfc4nF8BdaZ7HY9nZZGupQZTJg75zZ6DbhOgraWIDpzDR4+8zBJTX93sayKLl7AhUXkhEw+iGyxcl6IQEn9pc9kayfFIK6viP/OpaPG4Q3e47E8usFgumXUsOzD46B9zsrEKUwkawUn8S+EhXy61QEagsTcWbnepzhP66gcma/K4h8vg3P6pxnQFraSbUPbmL0sKmc6PLeLhgTKmTTgNNbNfivnSanWQ6FyB7k1dna1dnq4yld2TZuMcHz0G3kBeFbLe5b3bay3OcNVObpbWYu8ak4u3cL/txjEYJSHGePm8vDObxj6+xcXsf4xG+fz/2venXgN9ih41d9tb6shE0fwfuzEPFjSa3PilK2icBzRM6OQtC+SsU3pM5vGtpUmGclzgzH6p3hiC90fBfk3IhG3AjsCe8JpyXfmnGOJfUhsS+lQW6PIWC1AhU1VkXzHF4gd6VjTX3bxT7XuQ1mGA150BXK3x16TNdTRYlAGwjYFnz+dlWK21mzNhTQoqS8oO32znT85Z/fYOGlx06mnC3KsAtFflaYh5QsEyraOvbhmFTg9BRf+K6I7hT93oW6qeVNMeYjeGAsLgi7oThm8YsW+44o3JwZEDLKFx9u07mJ4xj0CxX7jhDozDMJVNf9csQ+a7ZEf0SACBABIkAEiAARaCkBEvstJUbxOw2BJitQ+bzrC/7n7TKz1Wm6jSpCBIgAESACRIAIvEACJPZfIGwqqv0JsIK/q87wswOZOpWLb9qfLOVIBIgAESACRIAIdAUCJPa7Qi9SG7gPi7GmLl3lZ2nivzpMnUsEiAARIAJEgAgQgdYTILHfenaUkggQASJABIgAESACRIAIdGoCJPY7dfdQ5YgAESACRIAIEAEiQASIQOsJkNhvPTtKSQSIABEgAkSACBABIkAEOjUBEvudunuockSACBABIkAEiAARIAJEoPUESOy3nh2lJAJEgAgQASJABIgAESACnZoAif1O3T1UOSJABIgAESACRIAIEAEi0HoCJPZbz45SEgEiQASIABEgAkSACBCBTk2AxH6n7h6qHBEgAkSACBABIkAEiAARaD0BEvutZ0cpiQARIAJEgAgQASJABIhApyZAYr9Tdw9VjggQASJABIgAESACRIAItJ6AB4r9GmgOrYb/UR1qndrtLswpcrt5zF60slV5uUqn5K/kxxfqLoyPIz+2Jo08DzonAkSACBABIkAEiAAR6NwEPE/sV2uxc/FafKerdybrIiz1+1Vgxa38F3JPIQ/nXJ185EK5uXM+A3k81l/uJz/n08rjsvFc/aRpXLml5UjdruKTPxEgAkSACBABIkAEiIDnEfA4sV/JfIfZy88jTUGnuwp79iQHDx5mC7/Y87sw9+s9uGZsalWPycWx/JzNVMnPnb+airRnnvK85Odq6kNxiAARIAJEgAgQASJABDo3AQ8T+5WI3L0Si84+RKMTV3dhYuTa3JvYuCQYh1MqYRW9Vbvkolh+3lxG0vis29VPTT5q0rqK486/ubIpnAgQASJABIgAESACRMAzCHiW2C+NwaaF3+B0lsWZrrswe2xL6T3sXbUO224/QYNzDqp83IlkpTBVmbp5E6AmPVtuS/9ak6alZVB8IkAEiAARIAJEgAgQgZdLwKPE/pNbezFrTQQeKVjfuAuzIX6KqH2rMGtZCE7FZOKJ8+reVvVEe4lmd/mwYfyPrSTvdneUNoaNJ/9T6ydPR+dEgAgQASJABIgAESACnkPAg8R+MX4MDsKKK/kK5jfuwvjOeIbUiPM4cvQI1qxYCf/g68hWsPvnY6s5KglmV+mkwpyNIz135Zbn1ZLymksrz0t+Lk9P50SACBABIkAEiAARIAKeR8BjxL614CaCFm7H5QJnS3t3YUpdYilLwM6lK7GDqVIKVu3nSqS7E86uwlz5SysjjcO6Xf2kaXi3q7RsuDSMj09HIkAEiAARIAJEgAgQAc8n4CFi34qcK1sxKzgShU7M3YU5RbZ7mHE3JAgLw7NdRWjWnxfI/FGaQMmPD1cK4/34Ix9XfpSGS93SeK78+Th8uPzIh9ORCBABIkAEiAARIAJEoOsQ8Ayx35SLM2uCsDHS5EzeXRgX+xlykrRIK5La7NQj7nAQ/E/rnfNT4cMLZTaq1K10Ls9OHl+eRimcz0Maxrpd/fj48qM8PR8u9ef96EgEiAARIAJEgAgQASLg+QQ8QuxbHl7B4oX7cavUGbi7MFvsctzYEYSlPxgg7OHTVIDwDUHYcMt58FCtv4ndu47h8kOzc2EK4p6NxItl/qiY0O4pjyM/l+Ynz4ePyx55t6s4zfnL08vP5enpnAgQASJABIgAESACRMDzCHiA2Lcg/cxGzN6tQYUTX3dhYuRS5jv4B27HoVspSE1LxfWwnZi3JBRRZXL7/0YkHg3ihPSsYzqnvfzdCWJ3YWJNxIEB6+cqjTt/Pow9uvrJy+PTyP2l53x9lOLK49E5ESACRIAIEAEiQASIgGcQ6Pxiv/4BjixbiW+Zp85E3YVJYzdVI+tOOLZ8sxkByzZj9Z5wRBqqFXb1AUxxYViyLBghCeXSHFy6ecHNRpC6lRLwQpo/KsVx5ydNJ3VL07jyl8Zh3WrjydPROREgAkSACBABIkAEiIDnEOj0Yr9WdxYBi49CU+0M1V2Yc+z282GFMv9TypUPkwpqqZtNI43jyq2UN+/nLj8+jtJRWpZSOPkRASJABIgAESACRIAIdB0CnVzs1yHx6FrMDU2CswW9u7Cu00HUEiJABIgAESACRIAIEAEi0FoCnVzst7ZZlI4IEAEiQASIABEgAkSACBABEvt0DRABIkAEiAARIAJEgAgQgS5KgMR+F+1YahYRIAJEgAgQASJABIgAESCxT9cAESACRIAIEAEiQASIABHoogRI7HfRjqVmEQEiQASIABEgAkSACBABEvt0DRABIkAEiAARIAJEgAgQgS5KgMR+F+1YahYRIAJEgAgQASJABIgAESCxT9cAESACRIAIEAEiQASIABHoogRI7HfRjqVmEQEiQASIABEgAkSACBABEvt0DRABIkAEiAARIAJEgAgQgS5KgMR+F+1YahYRIAJEgAgQASJABIgAESCxT9cAESACRIAIEAEiQASIABHoogRI7HfRjqVmEQEiQASIABEgAkSACBABEvt0DRABIkAEiAARIAJEgAgQgS5KgMR+F+1YahYRIAJEgAgQASJABIgAEfiFiX0rGhoaYfWwfrc0WD2uzhzihlKk3QrH3XwPA07VJQIyAh57D8ra0aVP8xmcvXUfpQ1dupXUOCJABIhAiwl4tNhP3/UZ3ujeQ/i9uSzKLQDTjwHo6dMXs38scRuv7YFFYE58h4jM523OqvJmGgIHxuDgzbo252XLoAGxS6OweHtZO+WnnI1Zfx7zh/XGG++NxaFM5Thdz7cWt68/RrjB0qFN0+9iEDAomvv5D4xG4LgkhIVXwuxpo1hFSrXIDM+FNssVQysqtAaEzorHks8YrJmVjmvaWriKrViE4NlcWbaI7X8PChXoEMfP38XBa7yG+70yNRF9NmXjrNGRUNblFCEOH5c7rjbCaK9VwslE5TgLcpEmq7n+YjIX1/fcM1kIcOtQHLp9a4L437AJ4TsZ/DqkTOy3OhP+4xeLAJ1TcpuH8TF6+zHK9fFLwg620plHMPK9HnhrWCDO6M0uMiJvIkAEiMAvj4BHi/3q/FTExScgLl6DHeN90ZzYL7m+FP3fHYRF1ztW6AIp2DjAF1PCy9t8RVX9fB8rhmlw7Of6Nudly6Djxb618Aqm930Hgxf/gIddQ4GqZF+FJbMYjLzdXn2lXCwr9v1nZ0OXVA79vVJoT6Zj9eC72HmhRjmBR/lW4vznUdgbocywKTcPwYMZbNttRIrGhLu7kxA4WIubua0Z6bgvi8fW/vcgn3NHHOvx3UYGf91TiOj0StyKN2J+UBy8ZmfhjgTpzYOx+NWmPESlV3Lx2LjcL78eTVy1LDizjcEfdxodw9l4ObVwmHqwPsPq+Rr8ZXY8Xg+V/8+rw4G1DHxOP5U01owtSxi8d1EiyB/no6dfCvYUSaJJneYaMPY63g5Pg9d4HYJ1fN2r8aTRHtmchfOLh+PvfefiUmFrrglpoeQmAkSACHQNAh4t9sUuqEdEQPNiX4zf0a72E/vtX9OOFvvPEbm0P/7+rwPI+sW9Tn+BYn9pocNMqX5XLPwn5Aizsu1/3byoHN0L8MdH4uE/PRcmoTpm/DQ9CuuOOM8oC1FcOtyX5TJZpw54iuVzGYyIFJW9NT8P7/glIOghX3GbAO9xvpr3UDiasWkRg4FXxfl4hUicV33GI/xlwn0sP54Er63FkEh4AJVYPJPBv6QjjaYyzJjEYGKs+LahQavHqxP0iOBFu6vCAOReTYVXgAGuXgKg4SH2jOqB3svuoCsMf92goCAiQASIgCoCnVzsN6I4/igWffkPvN+7L/qPmIpVZ9JR5dQ092K/LHymYOrDmv0M3pXhlAPQgELmIPy/GI7e7/bFB2MWYj9jgvTZw6ztC+9Zp8Ecn4/h/fqi16BxWByWBmHOilmPt3x8HcrizYy8x53AE4VSXXk9i0gVTDVYk421h4VShCSZ22Pgv7QAmefTsHFUDL7+txbHwqtkD7gG5IZnIPjfDBb/S4sjlytxd5ncjKcJ5Ql204hhMQiakYZriVLTiFowgTGYPzcfJtu0H2CtwW3/u1i00Ihy6QRa/R0s7PEOZl527iWu4ikP8YpfJsIyC/DvrxPw2+lafLC3AEkOCqEJBan5GB+kxR+nxMF7RSa26Ooc+oLtL+1VPT7wj8fvZiVj8q1KhAYz+N3hCoHPtRANvL41SWYhmxD+LYNXQqRvdlSU1VSLn85k4P15cXh1vAb/7Z+CyZcrIRiD6bLwG1cmBhKzCKFibXRwM/sOYh8wX9PBf1AGdHz/oLk+ZSvRAMP5DAR/wWDx5+y1UYFomYmXbnM0/FcVQxy3NUG7KgoBm4XWA2rKaqpF2uE0fDOWwfxB0Qj8QosjpyogSHStHgsGRjlc84Kp0tzHsPWqFambouG/3iRZw2JF8vooBGwS/fj7Qn/xPjZ/HoOvv9Di2DnJfaGqLEDNPci2vVSTg4Mz4jizotUz0xAR99zhWuXr4/Y+bY6P2mvmuQlj/eKwQGpnU2bEYL9ErMnmM6lE4EwGX9wVe5UPEY6NpZgygcFXCcIFJQQ5Oiy4FhKPV7cUI+2GDl4rCpArjVBdhJF+8VgiNeUrMeJjPy02GMSIhohUeC3KhdJ/ZjGWzRV1JB5ewUUKzwExZsWFuXijxzIov2RrhO7Al3jXtx9GH0iXXNtienIRASJABLoSgU4t9hseHsYo3/cxcmUYrt+JwpXQxRj8dj/MuiLO69k6w73Ybyh+YDf3uY41//BVFPsN+gP47K0PMC74PG7eicTp4Eno/fYYhOjF2SdO7A8fi7nLwvDTz7dxeoMfevoMxGqNff6o4iFi7sYg+u5xzHrPFyM3XUM0dx6D6BQjaltw5TSWPIOeNdNIKsaZyVGuxf4ELQ5tzkcSY8LdXfcQOFCD01pxiFJ3T48VAzXYc7gQOo0Jt4PTETzRUew3ZhuwaTCDHfvsphH7krBksBbXc0QVbzUWYMeQGBy4YXuBX3UrDYGf3sPtx2IcrnmGIxjhMxL7s1w0lhP7SRi4PxvfJZYh4rYBn8xg8PewSvBzkfW5eegzPh6fhhXix3ulOBKmwx8mJGNrvliWWZeFv/ol4vPzRbiaVIKQg5not6jlYl9NWaao+/j1pGQERJbidloFfvxJj3cnxmFSnF0sPTUjMqUcN1MK8O9pDPodM+Emd16Omw+fS2bgXTBpobeS2C84lgD/f2Uhx56Xmj6t0+qxfKAG+44UQhdruzY2T3C8NtSIfTVlVV3TYcEQLU5dMSHzXhlSLmRiwycx+O6OnWFlNTLiS5Een48DI6KweXcx0rnzUqSn19ivDSuS1kXBf6Pj/Z+yMQr+60yC/TcnridoERr8GMmaEmhCU7CMuy/s97KqsgA192CjPgcbBjHYGWJEqsaEmJBkLB2ciIgsUSTz9XF3nzbLR+01kpcHX78U7C2WJHhowF/8dDhaafczF2OUXwIC0yww14m/mgbx/kJRAfr7abGOv6Ak2Tk4zSaMm6zBl0wDajSZ8JprgFYa4ZEBb/jp4GDdc/8R/tsvHackA3xuncE2+VsBaUa8ux5HNzH4cxjfGN5fdnx4EEN8xiDUYeTBx6lF9OqPuUmZvms1kskAPpyORIAIEIGuRaBTi33dzmHwHnUIBuEZ1Ahm7YfwnnlRnE3n+sO92Be7rAjHximLfW3wQHhPPivO1qIU30/yRb/gJCE5J/YHb0Mqr6Wt2dgzwhcfbE0V4tgc7WnGU4vbc92I/f9kQVgPaq1GxKQoBIWID8LsfRr4BxRA8GmqwoVxjoKOi7PAKJkpq0f0/Cgs3yekAmBF4UktAkZn4n5JOU6OicbmsGeCwBIAZOzFxz4TcMKV7a1d7G95LKTA/fAkeC3OAz/5FxuWCK8NhRJTjXqErmfwV8kDXhOW4Bin6RlWBrRc7Kspi4uz6QnE9wEWGPTluGuUz4y+QDOeQCOqnltQ97weZal52DMyCqv2VQr9oaZPs9hrY4FRvJcUrg01Yl9NWVycRUaIhiMWlKSVQp8nZ+jOtKYFYn9cNvIEvV2HO/7y65m9/tyVJV6fgOt7kGcovsdyvnc4sa/mPlXFR1ovZ3d9oh6/mqDHVf5/FICndzPgNTULwvYFObl4U+FN1DsSsx6rLguv++lwwCQOBriBQb3jzmCm2+l4ZXImLrHzHbps/Nd4Pa4L/68BM5MJrykPESnxK7mdDq9ZjxAvVN+2zsD7pEhRCHJyPEXQPAZD7ZMOTsG8R9FpfOEzFDtdvSqwmGEylsAszuXwKelIBIgAEehyBDqx2G/CjUBfeAdGSl7Zu+LfVrH/HJfn+eK99RrU1DwXfjHrP4L3vAhhZpYT+zMuiOIItbji7wuf5cJj1F7BFyj2vy6UmO1YkLgyCvODeRMLmzgK+IY/Z6vXAM0Sqdi3ICEoCkt3lqGOE4+sgLQgYycD/6AiYbada1j9U1yeEo21E+IRMCEbufxUvLRb7u/FR82K/Qz8IElbGZOJ383LgYbLx4Kz2xn875Fyh1nHyCMJ8NpusrfViku75eY4DTjRYjMeNWUB7Mz+a1OSMP1yES6nViHN1ODIRWj/ixP7vIkLe2R35FmxMBe5goGymj61XxsO5jjyawNoXuyrKQtgZ67nD03E8e8LkZxQiYLCegdTFwGhWwHeArG/RHpfALpvornZf0H/cwW2Vezb2h74reOi1AffOt47nNh3e5+2hI9ISsn16McUJ3MY3fl7DuY1z2MfoNu0Bzia/RRayU9fKdJ5clOnuPNNt50myRvKWuxdxeC3e0tsdvqGXPj4pSFMYnGY8UMSvJY/hsRiB9pTWnitlw7mbesM/iFZZ6DUNs7PvmuPf6pk9KAU2S72v72vFEh+RIAIEIFfFoFOLPYtuL7QF95fR6rokbaK/Wr8MMuFrf2sS8JspM1mXzwHXJX7AsW+g+223J5aWdA5br1pW7ArFY+8298hb1s3FJ/ScnbVm09K3sFLe0iV2M/ERYnYlyYHGnEy2MUWe8FF9oGWFRedxL4tXcts9tWUBcBSixs/6DFimRZ/nMTAy0+DPwQ9QqT0xQfXiBcn9v3n5UCfWYVHF9MROCgJd6RmG1DTp2quDTViX01ZNobpYRnYPT0OS4ZEcQOUJbMe4r74usR+GbgT4C0Q+7Jrlxu0SEx9bIW5K0t6Vbqa2be1fckuR7EvN7PixL5DfeT3aUv4SOvl7I4MjZMtkrXi8h4NXt1XKgyuuG0yVxbA3ecvuLdZix8hQjIYYAcGKSbJK4OCfPTyi8MMbSMaLVY0moz4yC8J2/i9O2FFxD4NXtlTIrGLt+DcDga/k9r12NcZLJSuM3Bums2H27UnGbuaWwDV3My+q/zJnwgQASLQBQl0YrGvPLNvbWxAfYNFNtvvSnTLe8yVGY99Zj8wHDpdmuPPUC6YRnis2Fczs7/BCENmleNP2IbPzobiq2YAAA3YSURBVLGiGAf/eRc7ApOx8J9p0IprYUXQWYcw1Gc0Dkmn8sRQwL5A17XYt8+2733iMOvIzUAa6+19oW5m/8bBWHjtkO7vbRMavz7IK0w1ZUkrz65FtaAk34QZ8xl0PyMsL7VHeoFinxePTc9weXwU1hwQTXgA+2y72z5VFvuOb32A9OC78F8pfcNje3u0ILjU3mY1ZTkzfJZTjLAvo7A6VG664U6At2CBrtLM/nqTfVtJvj7uyuLjsEdXYr8FM/t8f3HZKoh9aXFNFrjmI40od9fj0HoG/+dgDmNG8NcM3he2ubTiekgsXpGIf3ku7ID7+y0MXttXKhHp8lhWJH6vdZ7994vH14LpTC32rWLguOuPGRsXMhgk3eWHW2eQiv2OSzHkBXLnjff0eHX8A/wot/6Sx845jOE+oxDySB5A50SACBCBXx6BTiz2Ad5mX1wn2oC7qwfAe9YlcRcPrs8suBH4Dv7+daTsYS7vUFdiH2Bt9rvPv+5gElOSnYKUPFGMqBf7Omz+yBcTTrt/elXE7sXUL+dgd7xYhrzGroUGoGbGkLMpVmGzP391sWShmhVVhkoYCqTT7/VI2ahBwHQDCuurcW16NJZvNMm22QNgvoqZ3XsjMNLFcuRmxT7Aziq+tlOatxWmgiokPhGf8E629go2+9xagEW5SOff+FursW4hgz4XxLcSasrKYAxYy5gdrq2fDsTiV3tLhIGgrd9s5gjD2+0DaM5XA+sjnzmuuJKCgM/SkSQaxIO1kW+uT3lbe8HqQsFm33g80balJ8+QHVxMiMKmMLEwNWUZIx/hcmS1wyA9LfguAjbIBXgVwsdEYdclh53cBRD538m33qzBDdnWm9x9oWCzv2K//FWM+7KEQl2KfeDRftm6B9QjekEUpGWpuU/V8wFc/9+wDTY/uyXet/V5eejDLrR9xHdgLfavlgtwsaU2VzXWL5AOEOThABorETCLgc9hE9Jyq+2/J5jwFbulJm8OVIPtyxhIP7TVVPgY/fy0+EaycJZbZzBRj+sq7Oe5bTcX5iJdoUpSr5pbS9H9rQBEiLe6NJjcRIAIEIFfFIFOLfYb9KH459vsbjwncD0qCj+GLsLgt/tjToSziM475oe/95+NkMhY+847ScjlVIwFJj374S32Z9uNp//X5+znCciyz05zu/G8/Qmm77mIyJi7iDi2AsPfeR+zrvAzmIB6sV+O89N7ovu4bYiIYnfniUF0erFMGNbj6gKb6ZD3ghuyGTQrKh+xO/GIu/Gs2Gi0n5ej0K5Z1IgIfseVvexuPLEm/Bycho1fSm32AdtuKrEIYXdliS+F9mwmNg6NwYGbomioSdQjaGA8LqTbnsj16dlYOzAWpxJFAW67c8pwdmpP9Jh9GSI5yT2lQuxzO+RMSMRodqedlDKER+jRe3Ic/n1XrI9Zly3sxnON243nAfovdlygazEW4MOJcRhw2Igr90pw4FAyXp+Uiv2Sj+2oKSvnaipe+SoVgbdLcTu9AldvP8LHUzWOs5NcE+sRtlmDX6/KQXgSuztPOW7m1Mn6HYDpLMb5+GL0UXeGFBJmMqdc7ON5KcJGRmHLGVHZqOlT/trgd+P5md2paZLjtdGUn48tn8QgeHsBkjUm3NmqxSLZLkxqyjKdv4eA4fdwLqIEmUll0EU8xNbPorEtXFhoYG9lPZjAaCyYkwVtLLs7TynS9bXCQMtiyMXmwQy27zUiNdaEmL1J+HqwFjfEVfy2QfAkLQ6zu/HEirvxnLknV5PuylJ3DzZmGbBxEINdB2z1YQ6kYOkghd14mpnZbwkfl/83zMX4l58Gn1+sRHRaOS5HGvDPeRq8GVImuRcrsXAGgwEnSpw+lqXnR30NJZg4XuN2202zVo/fjU/BXoeF+LZZ+yE/8QP9JkSGJsBr7n1si6/A7UQjZi2JxZ92mCBNxq0zmPMAB/kdrPhjdq3T2hhu282txbLJHtkNglKEz3wPPtN+kLRbFudRKIb7+GL6BfkAUBaPTokAESACXYBApxb77OvkJ5rDWDBuBN7r1Rf9PnO1zz77pv0Rzi/3wwe9e3Jbqnn7fIzgZLaHnuPSXGV7fHYP/CU/873I7rN/AP5jh3H77PcbMQ2rTkv20EdLxD5Qn30JgV8Mgu9bdkE/N0Ly1sBW5uMLARjQ+xPMuSgYudorY0H8CuU9x1l7+jDGFk2N2Bf2Uh/LYNGoRISGl+OObC91YZ/0mXFYMiwGyyel4NQlyb7kzytxblwUVmwpFRYrs32THqyB/7iHyJJ9d6dWtxtD3+qHiaHpeMZPKPKYVYh9tj4FqXkYv0KLP0yJw18XpyHg5lNxRyEurwZoI/QYMC8Ov52VjInXKxG61VHsszsIGXX5mMDmMzUeb616gB3p8v36VZTVUIOLJ+6j91zbPvu/n5uE0SdLYJCYL/PNqysowvSgRLw+3r7uQGk7wYRv0MunP9YnyOHwubg/Ool9WPH4aAL8x+jxUBgP2ffZd9WndoaGc/cRzF4bn2vx3Q8ViHb6BoMVFVoDDrP5fMZgzez7uJEkH8CoKKu+Bkn7ddg4Jsa2z/6YRISEmGCSjxXZJeSGQhyfpcGiwbZ7wH/FE8lbpyaUxRsQytZnOANuX/t4hX3tVxihD0/HplExCByrxdFzVc5vodyWpe4eZK/VsjgDDrH77LP1meFqn33Hj6A5faugBXxc/t8w5KK7sMtOLP60UIcZVypQKL1OnxbhH0IcjWiG46fFRt70rvAx3ve7B+mOWY5XZAPObo/Fb7YWw3G1gs2M6O2zonlbU1UltuxMwZvT4/CHgGSMPWnCA9n4jltnMF5SF7v7tf2lsoGybdtN6a5cjvViNw17Bl3oNLz71khs1ym/HWLT1Ecuw5s+I7BX75QDeRABIkAEuhyBTi72uxzvX0iDLHh8bTWG9eyJ/uPWIKJ1E9gtZOW8QLeFGbyw6KYz0+DtMweX+JnUF1ZycwXZFpwu3s6vaWgufucM5wbBy55IBqads55Uq3YmkH8dy8cNwps9R2L59QJhQbJSKdkHx8D7nRWIkg6ElCKSHxEgAkSgCxAgsd8FOrGzNqG2MBFndq7HGX4D/Q6tqOeI/YRNH8H7sxC4+u5Yh2Jym3kXEvsOZjNuG02BXYVAZjhW7wxHfCFvRuSqYY24EdgT3hNOS77l4Sou+RMBIkAEPJ8AiX3P70NqAUfAU8R+BU5P8YXvimi3M48vp1NJ7L8c7lTqiyVgQMgoX3y4Tfdii6XSiAARIAIviQCJ/ZcEnoolAkSACBABIkAEiAARIAIdTYDEfkcTpvyJABEgAkSACBABIkAEiMBLIkBi/yWBp2KJABEgAkSACBABIkAEiEBHEyCx39GEKX8iQASIABEgAkSACBABIvCSCJDYf0ngqVgiQASIABEgAkSACBABItDRBEjsdzRhyp8IEAEiQASIABEgAkSACLwkAiT2XxJ4KpYIEAEiQASIABEgAkSACHQ0ARL7HU2Y8icCRIAIEAEiQASIABEgAi+JAIn9lwSeiiUCRIAIEAEiQASIABEgAh1NgMR+RxOm/IkAESACRIAIEAEiQASIwEsiQGL/JYGnYokAESACRIAIEAEiQASIQEcTILHf0YQpfyJABIgAESACRIAIEAEi8JIIkNh/SeCpWCJABIgAESACRIAIEAEi0NEEHMS+paEW9ZaOLpLyJwJEgAgQASJABIgAESACROBFEHAQ+0lbBsP7rb74ZMZ23DaS6n8RHUBlEAEiQASIABEgAkSACBCBjiLgIParCzOhZS5g+cie6D7jAso7qlTKlwgQASJABIgAESACRIAIEIEOJ+Ag9vnSco/8B97D9kHPe9CRCBABIkAEiAARIAJEgAgQAY8joCj2tcEfw3tqOCo9rjlUYSJABIgAESACRIAIEAEiQAR4Agpi34wLs33Ra308H4eORIAIEAEiQASIABEgAkSACHggAQWxn4uQUb4YGWrwwOZQlYkAESACRIAIEAEiQASIABHgCSiIfTNuBPbHu7NP4YHpKcw1z1FT24AmPgUdiQARIAJEgAgQASJABIgAEfAIAgpiH0BlHDaNeh9vdO/B/byH7sUDj2gOVZIIEAEiQASIABEgAkSACBABnoCC2K+HNngoun++AReZe0jVpUGnL0INn4KORIAIEAEiQASIABEgAkSACHgEAQWxb+Bs9kcdJpt9j+hBqiQRIAJEgAgQASJABIgAEXBBQEHsV+D0FF/0C05ykYS8iQARIAJEgAgQASJABIgAEfAEAgpiH2DW9oP37Cswe0ILqI5EgAgQASJABIgAESACRIAIKBJQFPuGw1/A+x8HkK2YhDyJABEgAkSACBABIkAEiAAR8AQCDmLf0vAcz0wZODKjH7zHhaHQE1pAdSQCRIAIEAEiQASIABEgAkRAkYCD2E/aMpjbavPND77CgdRqxQTkSQSIABEgAkSACBABIkAEiIBnEHAQ+9WFeqQ/NKKywTMqT7UkAkSACBABIkAEiAARIAJEwDUBB7HvOhqFEAEiQASIABEgAkSACBABIuBpBEjse1qPUX2JABEgAkSACBABIkAEiIBKAiT2VYKiaESACBABIkAEiAARIAJEwNMIkNj3tB6j+hIBIkAEiAARIAJEgAgQAZUESOyrBEXRiAARIAJEgAgQASJABIiApxEgse9pPUb1JQJEgAgQASJABIgAESACKgmQ2FcJiqIRASJABIgAESACRIAIEAFPI/D/AFw+RlgyW6twAAAAAElFTkSuQmCC;" vertex="1" parent="1">
          <mxGeometry x="101.99571428571426" y="161.9956968470983" width="763" height="274" as="geometry" />
        </mxCell>
        <mxCell id="eb94AXTbarmzmmSSwvkA-5" value="" style="shape=image;verticalLabelPosition=bottom;labelBackgroundColor=default;verticalAlign=top;aspect=fixed;imageAspect=0;image=data:image/png,iVBORw0KGgoAAAANSUhEUgAAAQwAAAB7CAYAAACB3L5eAAASpUlEQVR4Ae2dv24ctxbGVd+H8FMYcO0nUJ0HMHBhCG4MdwG2UGPDhdQFCGCsi6iwIaSKncLANklxLTuGUiSVo0KygLyAIEANLw7Jw//kkKuZ0czuVwi7muWQh4ff+fGQMzu7c3V9I/AHH0AD0ECNBnZqCqEMxAQNQAOkAQADGRYyTGigWgMABsRSLRZkGcgyAAwAA8CABqo1AGBALNViQYaBDAPAADAADGigWgMABsRSLRZkGMgwAAwAA8CABqo1AGBALNViQYaBDGM7gHHxXuw+2xOLL/GAr17viZ1ne2L314teA0fW++K9ONt2IBV83w6gC7F8sSd2Xn/udayKdnz5Uew82xfLi1g7xfM2dNy3Ahhnv+6LnUzwAhjDBkLJ9+0BNz4wpD7GBNTEQRMD47cfxP/+89/o79NPiRn4n1/EJ6/sD+Jr1OEL8dd3fn1uXZc/LaK2/PZTdbaI/LNYDJBBdIl9uAxD9YeyojBjGq7NFn+7Zfv2/cjAKGZH2pY70FaX9ob8PAOMhfjrH2fgGSLf/SIuNRA40P/8zZb7uk9gcM/9JP4koDjnUWfoXPc820FV3gWK/cy203TsjlLK4YJXA+PFvtgNsqbh2pyK78cFhsyOnv0oVsEkqI7vi+UXtdTteznbpO/AtqHPrQOGDnKa+VWg5wJbZxMaEAoqLkC6hJert+u83Od5gcngeqb2L1KzNTneptN2Vs/tdygR2fqoXLwMsrOS/DxYG5s6ghTYP65tef1eLF/4a+sUMMJ+eut/OYNSHdw/VZ85JwDSlYSv08fATl+sed/75XJjp44bW5yx8vpAAaMzAeVTsi8OctUm95P7kCtHbauyEQzIB+wX3W5UZuQgbvHnbctWA+NKZxkEjBII3M/Ue4ZMWRiqIz0Do5hSansKZUyguoGtg8ZdDihR++KTx1hYUkAc6HbDTtWfCHq3PQ4GE5y2Hnm+OX4jwjbpc9dOE1h8jqybMhWyQQU4vZcBGWRmsa3WjqQIC35Nlo+CTAPH82EMIWWXvzxT4+H71cCO+85j4v3vaDTof9Jm3UcAw1tWKCe6IJBLj2CZYRwqwcJZhQKA2pOo2YvoFxhSTJ7gHEGwQAvCTokxmnky56eCN5754gC4unYDxX3PtruBSu8tqMI2zZhwX681VPgcbbuasXVb/JkHRtVmFBiFoKryvWNXZGuy7tBfGbt0dmAzkfA89mX+VfoyBxO2G8C4ESqT4IDXDtXZBe8tdAPDzyo40+DNzPT+BbXVJzByYgpEkgl4ErAChg1IJWq/3nSZcLbPCzYZ5BzIMg0PZsogGKh9DuRkXSxu/erZ6/Vd28iAdYGRDF67FPCyGNmO76MIBoFNqc/TfQn86NoY1Omd7/UzGP/gPGlLbXldjv2f6semHcssSfyrGv5G5o3oBkYAHDMoTsax/ylxLb1HYEgxhcGeEEtBHF5wmT74wZAuEwJDnWPX2LyG1q8cpKYNhlXq/hBdF89+0n7VTy9IZF25drVfvL7ngaH6GNjs7ClEwKj1vdPfMLDivtDYpYARAlWNsTzfy5bS5cJ26X/Z38SYRGUBjEyGEQysyhjSS4zSZ+zw+GoKB3JfwAiEFdjPdshXL2jYDvWahsE6wGiwh2zlmfM13TTkr895SWTTbQUnClo/yDQsAuF7ffL6ngeGsqc24Br7mhkbvy88LkHd0k9pu7zzvX5yXblXf3w9rYS2Ahh1wLjS91/wEsU6VV8lSWYPdoAGB0aLQAplveAyYgkElRKtrtPspvPeQRC81m/WNz4QdIDwTClt0CDgDIOOkQ2vP/vAYOgEd7d6ffL6XgCGV861NfG+pazxaVyPZyeX032ysAzGgstFVzgSPjNlg7ZT45krq/uKJUli0zMUdyro1TGbeXzdTyxN+GavJFT6yTC82SU32Hy8IPCkaDvFqEVMVxtcQOh2rNgDoUp7EoCIzkuJn86jqx3OpdzoPJ2ByKVE25KExl761L16w/4LXpt8H5zraUzbb4JR/q/76MBSjZGfZShb/eWoKhcu8T6LhVNXtOQp2UefhTZ2ld+AzzN7GIlAT3Q23MwMb9CiAQjv8rT3cqQCpg9g5GYdtz0ddM463O4vWKHVAcMKR9WhxCvPdYEh/Zdul/cAlNBDUdv9DAWbFDCcMm6bPCPrflLweX3SglftFzIMPfYcdNZXDqCc/pkgT2jGg0LX5579alykj7wgd/rO4+n6wG3Dq4/2ZOxYS7s8f7h6cd7rMp4PuN0KoDb137V9Iu9jYEzEsLUdK0URCGHufZqL/TP3fRryDizmMg4D2rlhwNCzZDADrQ2fAR2/eTbN3fc1mSngsWHAwIBuHogwplMaUwADWUTifpiBgrS4/nfu80CGON6YNOofwGh02JRoD1sGAhs0kQUWgAFxZMUBIAFIoQYADAADwIAGqjXQCYyLnx+L+w8eivsPHou35yBuSFz8D01skwbKwDg5ACgw+1TPPtsUONva1yIwTg4eivsHJxAMoAENQANSAwVgnIu3TwCMbZ1J0G8stVIaADAwcyB7gAaqNQBgQCzVYknNODi2XZkIgAFgABjQQLUG8sA4PxZ7Dx6KlyfbRVDMmBhvaCCvgRgYGhT3nxyLC5C3mrwQWV5k8M3m+CYGBkMCGQZgwVrAK7SgNZAHxjUuq2Jm3JyZEWPZz1gCGJg9MXtCA9UaADAglmqxYJbuZ5aesx8BDAADwIAGqjVQAMaNwHdJMKPMeTaE7f3rtwgM9dV2fK0dwutfePDpPH1aBAYNKp6HMc+BRUBi3IbQQCcwhmgUdULM0MA8NQBgbMSG16VYHjwSy29WhKsPx+KsuW+qnsXpZfUmWEvgr44eicWHj012nX14JHYPHomd7+81/B2KVXPfre9a+rRtZQGMTRDWt2OxSwF1wJCgwKcAaw2cj2LxfQCeo1SgHorF0T2x+6ENLKs1zpHAaGintfy2Bfxt+zs4MM7evxE7T1+J3ff/iqvrv8Xi6Sux8/SNWM7i+aD/iuVzx94/3sm+7Dz/vWmWbBqk00M1kx59FFfXHPj3xOI0PwNSkOzI8rqMBIgf+FU20HkGOvn2rq4JLPdk2ZaZnIBR6kfKRgaA7KOTZRCswmMEzBVlJAnAcFn1mbJ/J4Bjqn0c83UwMjA4AN/NJGVkezXgzn8XuwS85d+DpOxSnB4wbgQFWVnY8XJEBocLkNositquOG+dwKe+rXMe9SUHgNbjtKxR5zCIWzMwP3i2ESaDA+NKz8qLP8jZHIBzAcaNWC0pw9D2jgEMvbzgYOgERhTkHAyJpcTBo2DpQmPCsy1lDHavQL1PBNS3Y7EsZDsMBreuqv2HTGbTFzCuNIhVhsM+SvSvFq5bWm5kYOgAHDKl73kgPWDoJZVaXg002wTAUKl0TtgsfGf5EQHEsVPWfShW3y6TSyo3A0gGqgw6p62Mr5PnFjIMKp9bquTqaj3uA0NnbhlIbWPmUNvn4YGREZVroAxKSvN5Bpf7HK+EykocwZsMhWZ99ecFr8xm3omVqYcyA85qEksJ3pPQdd12qcH3rIz20KHTQ7F7dOjsOxBAXLjovQa9pl8duZ+5fqX3/rkuPMxYlWDkjHMumJN1Xt/IvYhuYDAcE5mT3tugOnJtmz44duJYqIHu/6cDDBm0dqmiNkv9zdHV0v+flzsGGhIAb8Tuc6pHbbDuPn8jN1xVfaX69Ybs2vsT+nEA9KNPo/w0w0exoBnS2ag8+3DoXVpVy40SJFyB6PpkQFFwJjKJOwWGayuD4aM4cy4lEwAADN9PfUNxQsAIYKCzhDjLcB2iswde4uiMwbsioz/zAaRhIq/cOPVp4Kx7BWfMDMNkCwYYl2Kl75+g+x12j+gSK2UYChirU7rq4vQ1fE/Zirm6oM5b0tUX58pE+n0MllzQ3i7D8G3nNqhOd6OWjxf7GvYd/5e14fhnOsDgoGfjqoAR7Il4Ae9nDB4wvHKOECvbvHMxuhuPBhjcD7UMUSm+BQat4S0QuKx9pUAzy4JcJpE7zmOmX6muNFzKy4mUX3MAsMfVUoX7Zo/bvqXqxbH1/DMvYJi9CbuHIfcyGDYeCPLAUPAI6uB9jKepvZP1nDuKKENgUFCbzTwHGMV03d+/yAZdAzA4gF0flDKMVHk6N2eLd9yxyzsegMy1Be/X0/R8gMGwCPYY5IZpIzDU3kewBJqruAJg0HLE3iLuA4MvoZpMwvRZZSWUFdBt4cn9CyrrBOY6AZcDRqmuHAD845dmL8M/vl5QlOzZ9s9mAwxvSWGEvuaSZKClx5h7GEa4LjDovXfjVQgMNWPbDCQOKLknIMERf3Z3wPiob3XPL2nUEuhQ0L5LLlsxPnP0kzwmf4T8ocCT82MNzAYY0RUR93Jpa4ZB9wTIG7L6zDLGvkqiB9MA41Is5UanO8gxMGSWYZYsbll6z9mF2heIvosyoQwjGeiFJUyufOo4g/8+fpcn2gydDzBIDPp7KXwPBl1BWWtJomeYsD5vP6RrFkp8zkIb7T4MsoGBcXrsLEUYBClg8GfhK8OCj4f/392SpHUD9dYZxvWJeEmXxwGMaQIjRXkc48DteGVgOACjdbwNsor7MKiO7Bex7P6GrNNb8nTY5thE49nnHkZOH7Lvt7CR65WPp3yAp82xP/h1EhkGG4PXtgCU/vp2LBbm/gn//KoApWVGdoni1teSrbjn8ftExhIAJTX+BIB4k5brjF/PTtuet5Fq80rvYez9fB7NsMnyFf3YlPMAjC0a7E0R7XD9wFKky7cABoCBWRQaqNYAgAGxVIula/bB5/ESadN8AmAAGAAGNFCtAQADYqkWy6bNluhPe0Y0ODD4XgfvG6RTeKan/N4JPyPDPjOj/O3YdgdDlPDZJmlgZGBwYNrnUtyZMz1gDHHnJwLlzsYWWeNgWePgwOBbutXMPSFg6O+T8MN3+r9VPAYGZ1t8p2rp6ePKHs6A4roQjPDJXWhgZGAEt3Lf5UwQAEMF83CZj6yfv/Mi+62/fu8duxEWsP7X8+9CHGgTUAo1MDwwaqHASwTzXIpU8HKGEj/LgjMF1UEdbMW6WsSgb+h5ciwuavtTUU5ByvkCnIQY9xvACMWK/1s0O0zZaQCDAsV7zgWDgYOHOq+POTMyp/jeRmWQOZDIVHrv1tXoTP66c8/fLYiA4UEGwAAgGnXq6WeYc6cBjFRHdcZhYKBBYP6X58RB5X171dSryvlZSItDh8kwyiCL+4YAahkzlB1CL9MFRgiIECAOMCwIcmDQ2YmXxdyxoHgJlrUJwBhC8KjzdrqfDDDMVQGz76D2KWxGkVuShHsA8f6GuSqRDc7bObFZhAwLZ3kV1wFgxD4ZeZxMhop2eSwmAQwFCyfwaaDCDMP8kLMLhOAc/i2S8OcDpjTwul/m5xeztgEYLFK8TgdYEwBGJjACYKgNwq6Ny6GWHj3tYVTDggSS8UsWMNMRFQJ8c8diAsDQQc4/eEwBwSm7+8h/eSzMKBIDo8+1+xqJMq1B18dVkiZYkM0ABsDTg3Zbtd5RfgLAcIKD9y9obR9kGCSe3D5H9JuoJjhLy5eWwbh9hpG1nfps9jI0JNgPwavdz2mxHWUBnv40MBFgdHcouc/hZCO9ZhQdlIUAu8cLPtpMH80EGPEVEiNInU0AGJspUDPOgPhgXyhr8fFMgMHLkXAPg/c/wuMInhYRoCz0UquB2QCDOpTcBzDrfwx67aCjHLSyrgZmBYx1O4nzECDQQD8aADCwNp7E2hgB3U9AD+1HAAPAADCggWoNJIGhfiaOflvyQJzAmdXOHJruqH8es/Amj1MSGNxhBQ5Ag/2BVwTstmugCIyr82Ox1/NDY7bd4eg/oDNnDVQA46F4eYJBnvMgw3boty8NABjYo8EeDTRQrQEAA2KpFktfsxTqmW/GUwbGtfqWJpYk8x1gBCfGrk8NdADjXLx98lDc7/nx+n12AHUhIKCB8TTQAQxtCD9ABuBA+o4l3FZroAMYOsM4ONlqJ2EGG28Gg6+n7esyMOR9GLisChFPW8QYn/HGB8BAio3sERqo1gCAAbFUiwUz+Xgz+VR9DWAAGAAGNFCtAQADYqkWy1RnPdg1XuZTBAa+rTreQED08PUcNJAEhn0exmPx9hwDOYeBhI3Q6RgaSAJjjIbRBgQODcxPAwAG9jCwhwENVGsAwIBYqsWCjGB+GUHfYwZgABgABjRQrQEAA2KpFkvfsxXqm1/GAmAAGAAGNFCtAQADYqkWCzKC+WUEfY8ZgAFgABjQQLUGAAyIpVosfc9WqG9+GQuAAWAAGNBAtQYADIilWizICOaXEfQ9ZgAGgAFgQAPVGgAwIJZqsfQ9W6G++WUsAAaAAWBAA9UaADAglmqxICOYX0bQ95gBGAAGgAENVGvg/zd0QaeoDDgIAAAAAElFTkSuQmCC;" vertex="1" parent="1">
          <mxGeometry x="1053.9971428571432" y="237.49712541852693" width="268" height="123" as="geometry" />
        </mxCell>
      </root>
    </mxGraphModel>
  </diagram>
  <diagram id="as5Z_qUbmL-x1F-_-ShV" name="第 6 页">
    <mxGraphModel dx="875" dy="464" grid="0" gridSize="10" guides="1" tooltips="1" connect="1" arrows="1" fold="1" page="1" pageScale="1" pageWidth="1920" pageHeight="1200" math="0" shadow="0">
      <root>
        <mxCell id="0" />
        <mxCell id="1" parent="0" />
        <mxCell id="WqEZ7E-81aNLw6prbD6m-3" style="edgeStyle=orthogonalEdgeStyle;rounded=0;orthogonalLoop=1;jettySize=auto;html=1;entryX=0.5;entryY=0;entryDx=0;entryDy=0;" edge="1" parent="1" source="WqEZ7E-81aNLw6prbD6m-1" target="WqEZ7E-81aNLw6prbD6m-2">
          <mxGeometry relative="1" as="geometry" />
        </mxCell>
        <mxCell id="WqEZ7E-81aNLw6prbD6m-5" value="判断并解析内容" style="edgeLabel;html=1;align=center;verticalAlign=middle;resizable=0;points=[];" vertex="1" connectable="0" parent="WqEZ7E-81aNLw6prbD6m-3">
          <mxGeometry x="-0.235" relative="1" as="geometry">
            <mxPoint as="offset" />
          </mxGeometry>
        </mxCell>
        <mxCell id="WqEZ7E-81aNLw6prbD6m-1" value="DOC 或 Excel" style="rounded=1;whiteSpace=wrap;html=1;fillColor=#99CCFF;" vertex="1" parent="1">
          <mxGeometry x="652" y="126" width="120" height="60" as="geometry" />
        </mxCell>
        <mxCell id="WqEZ7E-81aNLw6prbD6m-2" value="Java 解析" style="rounded=0;whiteSpace=wrap;html=1;fillColor=#FF99CC;" vertex="1" parent="1">
          <mxGeometry x="582" y="264" width="260" height="60" as="geometry" />
        </mxCell>
        <mxCell id="WqEZ7E-81aNLw6prbD6m-8" style="edgeStyle=orthogonalEdgeStyle;rounded=0;orthogonalLoop=1;jettySize=auto;html=1;entryX=0.5;entryY=0;entryDx=0;entryDy=0;" edge="1" parent="1" source="WqEZ7E-81aNLw6prbD6m-6" target="WqEZ7E-81aNLw6prbD6m-7">
          <mxGeometry relative="1" as="geometry" />
        </mxCell>
        <mxCell id="WqEZ7E-81aNLw6prbD6m-6" value="" style="shape=umlActor;verticalLabelPosition=bottom;verticalAlign=top;html=1;outlineConnect=0;" vertex="1" parent="1">
          <mxGeometry x="221" y="107" width="30" height="60" as="geometry" />
        </mxCell>
        <mxCell id="WqEZ7E-81aNLw6prbD6m-7" value="内容" style="shape=process;whiteSpace=wrap;html=1;backgroundOutline=1;fillColor=#FF9999;" vertex="1" parent="1">
          <mxGeometry x="202" y="261" width="127" height="37" as="geometry" />
        </mxCell>
        <mxCell id="WqEZ7E-81aNLw6prbD6m-9" value="&lt;b&gt;用户&lt;/b&gt;" style="text;html=1;strokeColor=none;fillColor=none;align=center;verticalAlign=middle;whiteSpace=wrap;rounded=0;" vertex="1" parent="1">
          <mxGeometry x="206" y="75" width="60" height="30" as="geometry" />
        </mxCell>
        <mxCell id="WqEZ7E-81aNLw6prbD6m-15" value="ES" style="shape=cylinder3;whiteSpace=wrap;html=1;boundedLbl=1;backgroundOutline=1;size=15;fillColor=#CC99FF;" vertex="1" parent="1">
          <mxGeometry x="332" y="421" width="171" height="80" as="geometry" />
        </mxCell>
        <mxCell id="WqEZ7E-81aNLw6prbD6m-19" style="edgeStyle=orthogonalEdgeStyle;rounded=0;orthogonalLoop=1;jettySize=auto;html=1;entryX=0.5;entryY=0;entryDx=0;entryDy=0;entryPerimeter=0;" edge="1" parent="1" source="WqEZ7E-81aNLw6prbD6m-7" target="WqEZ7E-81aNLw6prbD6m-15">
          <mxGeometry relative="1" as="geometry" />
        </mxCell>
        <mxCell id="WqEZ7E-81aNLw6prbD6m-21" value="拿到用户输入内容" style="edgeLabel;html=1;align=center;verticalAlign=middle;resizable=0;points=[];" vertex="1" connectable="0" parent="WqEZ7E-81aNLw6prbD6m-19">
          <mxGeometry x="0.4774" y="-1" relative="1" as="geometry">
            <mxPoint as="offset" />
          </mxGeometry>
        </mxCell>
      </root>
    </mxGraphModel>
  </diagram>
</mxfile>
